%TF.GenerationSoftware,KiCad,Pcbnew,10.0.4*%
%TF.CreationDate,2026-07-23T05:29:02-04:00*%
%TF.ProjectId,Rangefinder_test_schematic_v3,52616e67-6566-4696-9e64-65725f746573,1*%
%TF.SameCoordinates,Original*%
%TF.FileFunction,Soldermask,Bot*%
%TF.FilePolarity,Negative*%
%FSLAX46Y46*%
G04 Gerber Fmt 4.6, Leading zero omitted, Abs format (unit mm)*
G04 Created by KiCad (PCBNEW 10.0.4) date 2026-07-23 05:29:02*
%MOMM*%
%LPD*%
G01*
G04 APERTURE LIST*
G04 Aperture macros list*
%AMRoundRect*
0 Rectangle with rounded corners*
0 $1 Rounding radius*
0 $2 $3 $4 $5 $6 $7 $8 $9 X,Y pos of 4 corners*
0 Add a 4 corners polygon primitive as box body*
4,1,4,$2,$3,$4,$5,$6,$7,$8,$9,$2,$3,0*
0 Add four circle primitives for the rounded corners*
1,1,$1+$1,$2,$3*
1,1,$1+$1,$4,$5*
1,1,$1+$1,$6,$7*
1,1,$1+$1,$8,$9*
0 Add four rect primitives between the rounded corners*
20,1,$1+$1,$2,$3,$4,$5,0*
20,1,$1+$1,$4,$5,$6,$7,0*
20,1,$1+$1,$6,$7,$8,$9,0*
20,1,$1+$1,$8,$9,$2,$3,0*%
G04 Aperture macros list end*
%ADD10R,1.700000X1.700000*%
%ADD11C,1.700000*%
%ADD12C,2.700000*%
%ADD13RoundRect,0.250000X-0.750000X0.750000X-0.750000X-0.750000X0.750000X-0.750000X0.750000X0.750000X0*%
%ADD14C,2.000000*%
%ADD15O,1.900000X1.524000*%
%ADD16RoundRect,0.250000X-0.750000X-0.750000X0.750000X-0.750000X0.750000X0.750000X-0.750000X0.750000X0*%
G04 APERTURE END LIST*
D10*
%TO.C,J12*%
X100000000Y-80960000D03*
D11*
X100000000Y-83500000D03*
X100000000Y-86040000D03*
%TD*%
D12*
%TO.C,H6*%
X60000000Y-71500000D03*
%TD*%
D10*
%TO.C,J4*%
X137000000Y-99000000D03*
%TD*%
D12*
%TO.C,H5*%
X60000000Y-119500000D03*
%TD*%
%TO.C,H1*%
X113000000Y-87000000D03*
%TD*%
D13*
%TO.C,J2*%
X61000000Y-110960000D03*
D14*
X61000000Y-113500000D03*
%TD*%
D15*
%TO.C,U1*%
X66502460Y-114019813D03*
X66502460Y-111479813D03*
X66502460Y-108939813D03*
X66502460Y-106399813D03*
X66502460Y-103859813D03*
X66502460Y-101319813D03*
X66502460Y-98779813D03*
X66502460Y-96239813D03*
X66502460Y-93699813D03*
X66502460Y-91159813D03*
X66502460Y-88619813D03*
X66502460Y-86079813D03*
X66502460Y-83539813D03*
X66502460Y-80999813D03*
X66502460Y-78459813D03*
X91902460Y-114019813D03*
X91902460Y-111479813D03*
X91902460Y-108939813D03*
X91902460Y-106399813D03*
X91902460Y-103859813D03*
X91902460Y-101319813D03*
X91902460Y-98779813D03*
X91902460Y-96239813D03*
X91902460Y-93699813D03*
X91902460Y-91159813D03*
X91902460Y-88619813D03*
X91902460Y-86079813D03*
X91902460Y-83539813D03*
X91902460Y-80999813D03*
X91902460Y-78459813D03*
%TD*%
D14*
%TO.C,TP12*%
X99500000Y-104500000D03*
%TD*%
D10*
%TO.C,J6*%
X59000000Y-77380000D03*
D11*
X59000000Y-79920000D03*
X59000000Y-82460000D03*
X59000000Y-85000000D03*
X59000000Y-87540000D03*
X59000000Y-90080000D03*
%TD*%
D14*
%TO.C,TP2*%
X63000000Y-94000000D03*
%TD*%
D12*
%TO.C,H2*%
X128000000Y-101000000D03*
%TD*%
D10*
%TO.C,J14*%
X137000000Y-87540000D03*
D11*
X137000000Y-85000000D03*
X137000000Y-82460000D03*
X137000000Y-79920000D03*
%TD*%
D14*
%TO.C,TP14*%
X106000000Y-120500000D03*
%TD*%
D10*
%TO.C,J5*%
X137000000Y-106000000D03*
%TD*%
D14*
%TO.C,TP13*%
X105000000Y-101000000D03*
%TD*%
D10*
%TO.C,J13*%
X118880000Y-70500000D03*
D11*
X121420000Y-70500000D03*
X123960000Y-70500000D03*
X126500000Y-70500000D03*
%TD*%
D10*
%TO.C,J10*%
X108080000Y-70500000D03*
D11*
X105540000Y-70500000D03*
X103000000Y-70500000D03*
%TD*%
D14*
%TO.C,TP11*%
X132000000Y-114500000D03*
%TD*%
%TO.C,TP15*%
X97000000Y-114000000D03*
%TD*%
D12*
%TO.C,H3*%
X136000000Y-71500000D03*
%TD*%
D16*
%TO.C,J3*%
X123460000Y-118500000D03*
D14*
X126000000Y-118500000D03*
%TD*%
%TO.C,TP1*%
X59000000Y-94000000D03*
%TD*%
D12*
%TO.C,H4*%
X136000000Y-119500000D03*
%TD*%
M02*
