%TF.GenerationSoftware,KiCad,Pcbnew,10.0.4*%
%TF.CreationDate,2026-07-23T05:29:02-04:00*%
%TF.ProjectId,Rangefinder_test_schematic_v3,52616e67-6566-4696-9e64-65725f746573,1*%
%TF.SameCoordinates,Original*%
%TF.FileFunction,Soldermask,Top*%
%TF.FilePolarity,Negative*%
%FSLAX46Y46*%
G04 Gerber Fmt 4.6, Leading zero omitted, Abs format (unit mm)*
G04 Created by KiCad (PCBNEW 10.0.4) date 2026-07-23 05:29:02*
%MOMM*%
%LPD*%
G01*
G04 APERTURE LIST*
G04 Aperture macros list*
%AMRoundRect*
0 Rectangle with rounded corners*
0 $1 Rounding radius*
0 $2 $3 $4 $5 $6 $7 $8 $9 X,Y pos of 4 corners*
0 Add a 4 corners polygon primitive as box body*
4,1,4,$2,$3,$4,$5,$6,$7,$8,$9,$2,$3,0*
0 Add four circle primitives for the rounded corners*
1,1,$1+$1,$2,$3*
1,1,$1+$1,$4,$5*
1,1,$1+$1,$6,$7*
1,1,$1+$1,$8,$9*
0 Add four rect primitives between the rounded corners*
20,1,$1+$1,$2,$3,$4,$5,0*
20,1,$1+$1,$4,$5,$6,$7,0*
20,1,$1+$1,$6,$7,$8,$9,0*
20,1,$1+$1,$8,$9,$2,$3,0*%
G04 Aperture macros list end*
%ADD10R,1.700000X1.700000*%
%ADD11C,1.700000*%
%ADD12R,1.000000X1.500000*%
%ADD13C,2.700000*%
%ADD14RoundRect,0.250000X0.450000X-0.262500X0.450000X0.262500X-0.450000X0.262500X-0.450000X-0.262500X0*%
%ADD15RoundRect,0.250000X-0.262500X-0.450000X0.262500X-0.450000X0.262500X0.450000X-0.262500X0.450000X0*%
%ADD16RoundRect,0.250000X-0.750000X0.750000X-0.750000X-0.750000X0.750000X-0.750000X0.750000X0.750000X0*%
%ADD17C,2.000000*%
%ADD18RoundRect,0.250000X-1.050000X-0.550000X1.050000X-0.550000X1.050000X0.550000X-1.050000X0.550000X0*%
%ADD19O,1.900000X1.524000*%
%ADD20RoundRect,0.102000X-0.650000X0.150000X-0.650000X-0.150000X0.650000X-0.150000X0.650000X0.150000X0*%
%ADD21RoundRect,0.102000X-1.100000X0.950000X-1.100000X-0.950000X1.100000X-0.950000X1.100000X0.950000X0*%
%ADD22RoundRect,0.250000X-0.750000X-0.750000X0.750000X-0.750000X0.750000X0.750000X-0.750000X0.750000X0*%
%ADD23RoundRect,0.150000X-0.512500X-0.150000X0.512500X-0.150000X0.512500X0.150000X-0.512500X0.150000X0*%
G04 APERTURE END LIST*
%TO.C,JP1*%
G36*
X116200000Y-114750000D02*
G01*
X116500000Y-114750000D01*
X116500000Y-116250000D01*
X116200000Y-116250000D01*
X116200000Y-114750000D01*
G37*
%TO.C,JP2*%
G36*
X116200000Y-110750000D02*
G01*
X116500000Y-110750000D01*
X116500000Y-112250000D01*
X116200000Y-112250000D01*
X116200000Y-110750000D01*
G37*
%TD*%
D10*
%TO.C,J12*%
X100000000Y-80960000D03*
D11*
X100000000Y-83500000D03*
X100000000Y-86040000D03*
%TD*%
D12*
%TO.C,JP1*%
X115700000Y-115500000D03*
X117000000Y-115500000D03*
%TD*%
D13*
%TO.C,H6*%
X60000000Y-71500000D03*
%TD*%
D10*
%TO.C,J4*%
X137000000Y-99000000D03*
%TD*%
D14*
%TO.C,R1*%
X105000000Y-109912500D03*
X105000000Y-108087500D03*
%TD*%
D15*
%TO.C,Rload1*%
X60087500Y-98000000D03*
X61912500Y-98000000D03*
%TD*%
D13*
%TO.C,H5*%
X60000000Y-119500000D03*
%TD*%
%TO.C,H1*%
X113000000Y-87000000D03*
%TD*%
D16*
%TO.C,J2*%
X61000000Y-110960000D03*
D17*
X61000000Y-113500000D03*
%TD*%
D18*
%TO.C,C2*%
X110700000Y-120000000D03*
X114300000Y-120000000D03*
%TD*%
D19*
%TO.C,U1*%
X66502460Y-114019813D03*
X66502460Y-111479813D03*
X66502460Y-108939813D03*
X66502460Y-106399813D03*
X66502460Y-103859813D03*
X66502460Y-101319813D03*
X66502460Y-98779813D03*
X66502460Y-96239813D03*
X66502460Y-93699813D03*
X66502460Y-91159813D03*
X66502460Y-88619813D03*
X66502460Y-86079813D03*
X66502460Y-83539813D03*
X66502460Y-80999813D03*
X66502460Y-78459813D03*
X91902460Y-114019813D03*
X91902460Y-111479813D03*
X91902460Y-108939813D03*
X91902460Y-106399813D03*
X91902460Y-103859813D03*
X91902460Y-101319813D03*
X91902460Y-98779813D03*
X91902460Y-96239813D03*
X91902460Y-93699813D03*
X91902460Y-91159813D03*
X91902460Y-88619813D03*
X91902460Y-86079813D03*
X91902460Y-83539813D03*
X91902460Y-80999813D03*
X91902460Y-78459813D03*
%TD*%
D17*
%TO.C,TP12*%
X99500000Y-104500000D03*
%TD*%
D10*
%TO.C,J6*%
X59000000Y-77380000D03*
D11*
X59000000Y-79920000D03*
X59000000Y-82460000D03*
X59000000Y-85000000D03*
X59000000Y-87540000D03*
X59000000Y-90080000D03*
%TD*%
D17*
%TO.C,TP2*%
X63000000Y-94000000D03*
%TD*%
D13*
%TO.C,H2*%
X128000000Y-101000000D03*
%TD*%
D10*
%TO.C,J14*%
X137000000Y-87540000D03*
D11*
X137000000Y-85000000D03*
X137000000Y-82460000D03*
X137000000Y-79920000D03*
%TD*%
D18*
%TO.C,C1*%
X97900000Y-120000000D03*
X101500000Y-120000000D03*
%TD*%
D14*
%TO.C,R4*%
X111000000Y-76825000D03*
X111000000Y-75000000D03*
%TD*%
D17*
%TO.C,TP14*%
X106000000Y-120500000D03*
%TD*%
D10*
%TO.C,J5*%
X137000000Y-106000000D03*
%TD*%
D17*
%TO.C,TP13*%
X105000000Y-101000000D03*
%TD*%
D10*
%TO.C,J13*%
X118880000Y-70500000D03*
D11*
X121420000Y-70500000D03*
X123960000Y-70500000D03*
X126500000Y-70500000D03*
%TD*%
D10*
%TO.C,J10*%
X108080000Y-70500000D03*
D11*
X105540000Y-70500000D03*
X103000000Y-70500000D03*
%TD*%
D20*
%TO.C,J1*%
X117300000Y-96750000D03*
X117300000Y-96250000D03*
X117300000Y-95750000D03*
X117300000Y-95250000D03*
X117300000Y-94750000D03*
X117300000Y-94250000D03*
X117300000Y-93750000D03*
X117300000Y-93250000D03*
X117300000Y-92750000D03*
X117300000Y-92250000D03*
X117300000Y-91750000D03*
X117300000Y-91250000D03*
D21*
X120550000Y-89300000D03*
X120550000Y-98700000D03*
%TD*%
D14*
%TO.C,R2*%
X101500000Y-110000000D03*
X101500000Y-108175000D03*
%TD*%
D17*
%TO.C,TP11*%
X132000000Y-114500000D03*
%TD*%
%TO.C,TP15*%
X97000000Y-114000000D03*
%TD*%
D13*
%TO.C,H3*%
X136000000Y-71500000D03*
%TD*%
D12*
%TO.C,JP2*%
X115700000Y-111500000D03*
X117000000Y-111500000D03*
%TD*%
D18*
%TO.C,C3*%
X59200000Y-103000000D03*
X62800000Y-103000000D03*
%TD*%
D14*
%TO.C,R3*%
X108050000Y-76825000D03*
X108050000Y-75000000D03*
%TD*%
D22*
%TO.C,J3*%
X123460000Y-118500000D03*
D17*
X126000000Y-118500000D03*
%TD*%
%TO.C,TP1*%
X59000000Y-94000000D03*
%TD*%
D23*
%TO.C,U2*%
X106500000Y-114050000D03*
X106500000Y-115000000D03*
X106500000Y-115950000D03*
X108775000Y-115950000D03*
X108775000Y-114050000D03*
%TD*%
D13*
%TO.C,H4*%
X136000000Y-119500000D03*
%TD*%
M02*
