%TF.GenerationSoftware,KiCad,Pcbnew,10.0.4*%
%TF.CreationDate,2026-07-23T05:29:02-04:00*%
%TF.ProjectId,Rangefinder_test_schematic_v3,52616e67-6566-4696-9e64-65725f746573,1*%
%TF.SameCoordinates,Original*%
%TF.FileFunction,Legend,Top*%
%TF.FilePolarity,Positive*%
%FSLAX46Y46*%
G04 Gerber Fmt 4.6, Leading zero omitted, Abs format (unit mm)*
G04 Created by KiCad (PCBNEW 10.0.4) date 2026-07-23 05:29:02*
%MOMM*%
%LPD*%
G01*
G04 APERTURE LIST*
%ADD10C,0.400000*%
%ADD11C,0.200000*%
%ADD12C,0.100000*%
%ADD13C,0.150000*%
%ADD14C,0.120000*%
%ADD15C,0.127000*%
G04 APERTURE END LIST*
D10*
X96000000Y-89500000D02*
X107000000Y-89500000D01*
X107000000Y-97500000D01*
X96000000Y-97500000D01*
X96000000Y-89500000D01*
D11*
X114250000Y-88000000D02*
X126750000Y-88000000D01*
X126750000Y-100000000D01*
X114250000Y-100000000D01*
X114250000Y-88000000D01*
D12*
X114500000Y-108000000D02*
X114500000Y-113000000D01*
X114500000Y-113000000D02*
X120000000Y-113000000D01*
X114500000Y-113500000D02*
X114500000Y-114000000D01*
X114500000Y-114000000D02*
X114500000Y-117000000D01*
X114500000Y-117000000D02*
X117500000Y-117000000D01*
D10*
X117000000Y-77000000D02*
X128000000Y-77000000D01*
X128000000Y-85000000D01*
X117000000Y-85000000D01*
X117000000Y-77000000D01*
D12*
X117500000Y-119000000D02*
X117500000Y-117000000D01*
X117500000Y-119000000D02*
X120000000Y-119000000D01*
X120000000Y-108000000D02*
X114500000Y-108000000D01*
X120000000Y-113000000D02*
X120000000Y-108000000D01*
X120000000Y-113500000D02*
X114500000Y-113500000D01*
X120000000Y-119000000D02*
X120000000Y-113500000D01*
X59280074Y-108192419D02*
X58803884Y-108192419D01*
X58803884Y-108192419D02*
X58756265Y-108668609D01*
X58756265Y-108668609D02*
X58803884Y-108620990D01*
X58803884Y-108620990D02*
X58899122Y-108573371D01*
X58899122Y-108573371D02*
X59137217Y-108573371D01*
X59137217Y-108573371D02*
X59232455Y-108620990D01*
X59232455Y-108620990D02*
X59280074Y-108668609D01*
X59280074Y-108668609D02*
X59327693Y-108763847D01*
X59327693Y-108763847D02*
X59327693Y-109001942D01*
X59327693Y-109001942D02*
X59280074Y-109097180D01*
X59280074Y-109097180D02*
X59232455Y-109144800D01*
X59232455Y-109144800D02*
X59137217Y-109192419D01*
X59137217Y-109192419D02*
X58899122Y-109192419D01*
X58899122Y-109192419D02*
X58803884Y-109144800D01*
X58803884Y-109144800D02*
X58756265Y-109097180D01*
X59613408Y-108192419D02*
X59946741Y-109192419D01*
X59946741Y-109192419D02*
X60280074Y-108192419D01*
X61375313Y-109192419D02*
X61375313Y-108192419D01*
X61851503Y-109192419D02*
X61851503Y-108192419D01*
X61851503Y-108192419D02*
X62422931Y-109192419D01*
X62422931Y-109192419D02*
X62422931Y-108192419D01*
X61256265Y-76967657D02*
X61303884Y-76920038D01*
X61303884Y-76920038D02*
X61399122Y-76872419D01*
X61399122Y-76872419D02*
X61637217Y-76872419D01*
X61637217Y-76872419D02*
X61732455Y-76920038D01*
X61732455Y-76920038D02*
X61780074Y-76967657D01*
X61780074Y-76967657D02*
X61827693Y-77062895D01*
X61827693Y-77062895D02*
X61827693Y-77158133D01*
X61827693Y-77158133D02*
X61780074Y-77300990D01*
X61780074Y-77300990D02*
X61208646Y-77872419D01*
X61208646Y-77872419D02*
X61827693Y-77872419D01*
X62732455Y-76872419D02*
X62256265Y-76872419D01*
X62256265Y-76872419D02*
X62208646Y-77348609D01*
X62208646Y-77348609D02*
X62256265Y-77300990D01*
X62256265Y-77300990D02*
X62351503Y-77253371D01*
X62351503Y-77253371D02*
X62589598Y-77253371D01*
X62589598Y-77253371D02*
X62684836Y-77300990D01*
X62684836Y-77300990D02*
X62732455Y-77348609D01*
X62732455Y-77348609D02*
X62780074Y-77443847D01*
X62780074Y-77443847D02*
X62780074Y-77681942D01*
X62780074Y-77681942D02*
X62732455Y-77777180D01*
X62732455Y-77777180D02*
X62684836Y-77824800D01*
X62684836Y-77824800D02*
X62589598Y-77872419D01*
X62589598Y-77872419D02*
X62351503Y-77872419D01*
X62351503Y-77872419D02*
X62256265Y-77824800D01*
X62256265Y-77824800D02*
X62208646Y-77777180D01*
X61256265Y-79467657D02*
X61303884Y-79420038D01*
X61303884Y-79420038D02*
X61399122Y-79372419D01*
X61399122Y-79372419D02*
X61637217Y-79372419D01*
X61637217Y-79372419D02*
X61732455Y-79420038D01*
X61732455Y-79420038D02*
X61780074Y-79467657D01*
X61780074Y-79467657D02*
X61827693Y-79562895D01*
X61827693Y-79562895D02*
X61827693Y-79658133D01*
X61827693Y-79658133D02*
X61780074Y-79800990D01*
X61780074Y-79800990D02*
X61208646Y-80372419D01*
X61208646Y-80372419D02*
X61827693Y-80372419D01*
X62684836Y-79372419D02*
X62494360Y-79372419D01*
X62494360Y-79372419D02*
X62399122Y-79420038D01*
X62399122Y-79420038D02*
X62351503Y-79467657D01*
X62351503Y-79467657D02*
X62256265Y-79610514D01*
X62256265Y-79610514D02*
X62208646Y-79800990D01*
X62208646Y-79800990D02*
X62208646Y-80181942D01*
X62208646Y-80181942D02*
X62256265Y-80277180D01*
X62256265Y-80277180D02*
X62303884Y-80324800D01*
X62303884Y-80324800D02*
X62399122Y-80372419D01*
X62399122Y-80372419D02*
X62589598Y-80372419D01*
X62589598Y-80372419D02*
X62684836Y-80324800D01*
X62684836Y-80324800D02*
X62732455Y-80277180D01*
X62732455Y-80277180D02*
X62780074Y-80181942D01*
X62780074Y-80181942D02*
X62780074Y-79943847D01*
X62780074Y-79943847D02*
X62732455Y-79848609D01*
X62732455Y-79848609D02*
X62684836Y-79800990D01*
X62684836Y-79800990D02*
X62589598Y-79753371D01*
X62589598Y-79753371D02*
X62399122Y-79753371D01*
X62399122Y-79753371D02*
X62303884Y-79800990D01*
X62303884Y-79800990D02*
X62256265Y-79848609D01*
X62256265Y-79848609D02*
X62208646Y-79943847D01*
X61256265Y-81967657D02*
X61303884Y-81920038D01*
X61303884Y-81920038D02*
X61399122Y-81872419D01*
X61399122Y-81872419D02*
X61637217Y-81872419D01*
X61637217Y-81872419D02*
X61732455Y-81920038D01*
X61732455Y-81920038D02*
X61780074Y-81967657D01*
X61780074Y-81967657D02*
X61827693Y-82062895D01*
X61827693Y-82062895D02*
X61827693Y-82158133D01*
X61827693Y-82158133D02*
X61780074Y-82300990D01*
X61780074Y-82300990D02*
X61208646Y-82872419D01*
X61208646Y-82872419D02*
X61827693Y-82872419D01*
X62161027Y-81872419D02*
X62827693Y-81872419D01*
X62827693Y-81872419D02*
X62399122Y-82872419D01*
X61208646Y-84372419D02*
X61827693Y-84372419D01*
X61827693Y-84372419D02*
X61494360Y-84753371D01*
X61494360Y-84753371D02*
X61637217Y-84753371D01*
X61637217Y-84753371D02*
X61732455Y-84800990D01*
X61732455Y-84800990D02*
X61780074Y-84848609D01*
X61780074Y-84848609D02*
X61827693Y-84943847D01*
X61827693Y-84943847D02*
X61827693Y-85181942D01*
X61827693Y-85181942D02*
X61780074Y-85277180D01*
X61780074Y-85277180D02*
X61732455Y-85324800D01*
X61732455Y-85324800D02*
X61637217Y-85372419D01*
X61637217Y-85372419D02*
X61351503Y-85372419D01*
X61351503Y-85372419D02*
X61256265Y-85324800D01*
X61256265Y-85324800D02*
X61208646Y-85277180D01*
X62208646Y-84467657D02*
X62256265Y-84420038D01*
X62256265Y-84420038D02*
X62351503Y-84372419D01*
X62351503Y-84372419D02*
X62589598Y-84372419D01*
X62589598Y-84372419D02*
X62684836Y-84420038D01*
X62684836Y-84420038D02*
X62732455Y-84467657D01*
X62732455Y-84467657D02*
X62780074Y-84562895D01*
X62780074Y-84562895D02*
X62780074Y-84658133D01*
X62780074Y-84658133D02*
X62732455Y-84800990D01*
X62732455Y-84800990D02*
X62161027Y-85372419D01*
X62161027Y-85372419D02*
X62780074Y-85372419D01*
X61208646Y-86872419D02*
X61827693Y-86872419D01*
X61827693Y-86872419D02*
X61494360Y-87253371D01*
X61494360Y-87253371D02*
X61637217Y-87253371D01*
X61637217Y-87253371D02*
X61732455Y-87300990D01*
X61732455Y-87300990D02*
X61780074Y-87348609D01*
X61780074Y-87348609D02*
X61827693Y-87443847D01*
X61827693Y-87443847D02*
X61827693Y-87681942D01*
X61827693Y-87681942D02*
X61780074Y-87777180D01*
X61780074Y-87777180D02*
X61732455Y-87824800D01*
X61732455Y-87824800D02*
X61637217Y-87872419D01*
X61637217Y-87872419D02*
X61351503Y-87872419D01*
X61351503Y-87872419D02*
X61256265Y-87824800D01*
X61256265Y-87824800D02*
X61208646Y-87777180D01*
X62161027Y-86872419D02*
X62780074Y-86872419D01*
X62780074Y-86872419D02*
X62446741Y-87253371D01*
X62446741Y-87253371D02*
X62589598Y-87253371D01*
X62589598Y-87253371D02*
X62684836Y-87300990D01*
X62684836Y-87300990D02*
X62732455Y-87348609D01*
X62732455Y-87348609D02*
X62780074Y-87443847D01*
X62780074Y-87443847D02*
X62780074Y-87681942D01*
X62780074Y-87681942D02*
X62732455Y-87777180D01*
X62732455Y-87777180D02*
X62684836Y-87824800D01*
X62684836Y-87824800D02*
X62589598Y-87872419D01*
X62589598Y-87872419D02*
X62303884Y-87872419D01*
X62303884Y-87872419D02*
X62208646Y-87824800D01*
X62208646Y-87824800D02*
X62161027Y-87777180D01*
X61827693Y-89420038D02*
X61732455Y-89372419D01*
X61732455Y-89372419D02*
X61589598Y-89372419D01*
X61589598Y-89372419D02*
X61446741Y-89420038D01*
X61446741Y-89420038D02*
X61351503Y-89515276D01*
X61351503Y-89515276D02*
X61303884Y-89610514D01*
X61303884Y-89610514D02*
X61256265Y-89800990D01*
X61256265Y-89800990D02*
X61256265Y-89943847D01*
X61256265Y-89943847D02*
X61303884Y-90134323D01*
X61303884Y-90134323D02*
X61351503Y-90229561D01*
X61351503Y-90229561D02*
X61446741Y-90324800D01*
X61446741Y-90324800D02*
X61589598Y-90372419D01*
X61589598Y-90372419D02*
X61684836Y-90372419D01*
X61684836Y-90372419D02*
X61827693Y-90324800D01*
X61827693Y-90324800D02*
X61875312Y-90277180D01*
X61875312Y-90277180D02*
X61875312Y-89943847D01*
X61875312Y-89943847D02*
X61684836Y-89943847D01*
X62303884Y-90372419D02*
X62303884Y-89372419D01*
X62303884Y-89372419D02*
X62875312Y-90372419D01*
X62875312Y-90372419D02*
X62875312Y-89372419D01*
X63351503Y-90372419D02*
X63351503Y-89372419D01*
X63351503Y-89372419D02*
X63589598Y-89372419D01*
X63589598Y-89372419D02*
X63732455Y-89420038D01*
X63732455Y-89420038D02*
X63827693Y-89515276D01*
X63827693Y-89515276D02*
X63875312Y-89610514D01*
X63875312Y-89610514D02*
X63922931Y-89800990D01*
X63922931Y-89800990D02*
X63922931Y-89943847D01*
X63922931Y-89943847D02*
X63875312Y-90134323D01*
X63875312Y-90134323D02*
X63827693Y-90229561D01*
X63827693Y-90229561D02*
X63732455Y-90324800D01*
X63732455Y-90324800D02*
X63589598Y-90372419D01*
X63589598Y-90372419D02*
X63351503Y-90372419D01*
X62327693Y-115920038D02*
X62232455Y-115872419D01*
X62232455Y-115872419D02*
X62089598Y-115872419D01*
X62089598Y-115872419D02*
X61946741Y-115920038D01*
X61946741Y-115920038D02*
X61851503Y-116015276D01*
X61851503Y-116015276D02*
X61803884Y-116110514D01*
X61803884Y-116110514D02*
X61756265Y-116300990D01*
X61756265Y-116300990D02*
X61756265Y-116443847D01*
X61756265Y-116443847D02*
X61803884Y-116634323D01*
X61803884Y-116634323D02*
X61851503Y-116729561D01*
X61851503Y-116729561D02*
X61946741Y-116824800D01*
X61946741Y-116824800D02*
X62089598Y-116872419D01*
X62089598Y-116872419D02*
X62184836Y-116872419D01*
X62184836Y-116872419D02*
X62327693Y-116824800D01*
X62327693Y-116824800D02*
X62375312Y-116777180D01*
X62375312Y-116777180D02*
X62375312Y-116443847D01*
X62375312Y-116443847D02*
X62184836Y-116443847D01*
X62803884Y-116872419D02*
X62803884Y-115872419D01*
X62803884Y-115872419D02*
X63375312Y-116872419D01*
X63375312Y-116872419D02*
X63375312Y-115872419D01*
X63851503Y-116872419D02*
X63851503Y-115872419D01*
X63851503Y-115872419D02*
X64089598Y-115872419D01*
X64089598Y-115872419D02*
X64232455Y-115920038D01*
X64232455Y-115920038D02*
X64327693Y-116015276D01*
X64327693Y-116015276D02*
X64375312Y-116110514D01*
X64375312Y-116110514D02*
X64422931Y-116300990D01*
X64422931Y-116300990D02*
X64422931Y-116443847D01*
X64422931Y-116443847D02*
X64375312Y-116634323D01*
X64375312Y-116634323D02*
X64327693Y-116729561D01*
X64327693Y-116729561D02*
X64232455Y-116824800D01*
X64232455Y-116824800D02*
X64089598Y-116872419D01*
X64089598Y-116872419D02*
X63851503Y-116872419D01*
X130803884Y-82348609D02*
X131137217Y-82348609D01*
X131280074Y-82872419D02*
X130803884Y-82872419D01*
X130803884Y-82872419D02*
X130803884Y-81872419D01*
X130803884Y-81872419D02*
X131280074Y-81872419D01*
X131613408Y-81872419D02*
X132280074Y-82872419D01*
X132280074Y-81872419D02*
X131613408Y-82872419D01*
X132518170Y-81872419D02*
X133089598Y-81872419D01*
X132803884Y-82872419D02*
X132803884Y-81872419D01*
X133422932Y-82777180D02*
X133470551Y-82824800D01*
X133470551Y-82824800D02*
X133422932Y-82872419D01*
X133422932Y-82872419D02*
X133375313Y-82824800D01*
X133375313Y-82824800D02*
X133422932Y-82777180D01*
X133422932Y-82777180D02*
X133422932Y-82872419D01*
X133899122Y-82872419D02*
X133899122Y-81872419D01*
X134375312Y-82872419D02*
X134375312Y-81872419D01*
X134375312Y-81872419D02*
X134946740Y-82872419D01*
X134946740Y-82872419D02*
X134946740Y-81872419D01*
X135280074Y-81872419D02*
X135851502Y-81872419D01*
X135565788Y-82872419D02*
X135565788Y-81872419D01*
X131375312Y-97372419D02*
X131041979Y-96896228D01*
X130803884Y-97372419D02*
X130803884Y-96372419D01*
X130803884Y-96372419D02*
X131184836Y-96372419D01*
X131184836Y-96372419D02*
X131280074Y-96420038D01*
X131280074Y-96420038D02*
X131327693Y-96467657D01*
X131327693Y-96467657D02*
X131375312Y-96562895D01*
X131375312Y-96562895D02*
X131375312Y-96705752D01*
X131375312Y-96705752D02*
X131327693Y-96800990D01*
X131327693Y-96800990D02*
X131280074Y-96848609D01*
X131280074Y-96848609D02*
X131184836Y-96896228D01*
X131184836Y-96896228D02*
X130803884Y-96896228D01*
X131661027Y-96372419D02*
X132232455Y-96372419D01*
X131946741Y-97372419D02*
X131946741Y-96372419D01*
X133137217Y-97277180D02*
X133089598Y-97324800D01*
X133089598Y-97324800D02*
X132946741Y-97372419D01*
X132946741Y-97372419D02*
X132851503Y-97372419D01*
X132851503Y-97372419D02*
X132708646Y-97324800D01*
X132708646Y-97324800D02*
X132613408Y-97229561D01*
X132613408Y-97229561D02*
X132565789Y-97134323D01*
X132565789Y-97134323D02*
X132518170Y-96943847D01*
X132518170Y-96943847D02*
X132518170Y-96800990D01*
X132518170Y-96800990D02*
X132565789Y-96610514D01*
X132565789Y-96610514D02*
X132613408Y-96515276D01*
X132613408Y-96515276D02*
X132708646Y-96420038D01*
X132708646Y-96420038D02*
X132851503Y-96372419D01*
X132851503Y-96372419D02*
X132946741Y-96372419D01*
X132946741Y-96372419D02*
X133089598Y-96420038D01*
X133089598Y-96420038D02*
X133137217Y-96467657D01*
X133327694Y-97467657D02*
X134089598Y-97467657D01*
X134899122Y-97277180D02*
X134851503Y-97324800D01*
X134851503Y-97324800D02*
X134708646Y-97372419D01*
X134708646Y-97372419D02*
X134613408Y-97372419D01*
X134613408Y-97372419D02*
X134470551Y-97324800D01*
X134470551Y-97324800D02*
X134375313Y-97229561D01*
X134375313Y-97229561D02*
X134327694Y-97134323D01*
X134327694Y-97134323D02*
X134280075Y-96943847D01*
X134280075Y-96943847D02*
X134280075Y-96800990D01*
X134280075Y-96800990D02*
X134327694Y-96610514D01*
X134327694Y-96610514D02*
X134375313Y-96515276D01*
X134375313Y-96515276D02*
X134470551Y-96420038D01*
X134470551Y-96420038D02*
X134613408Y-96372419D01*
X134613408Y-96372419D02*
X134708646Y-96372419D01*
X134708646Y-96372419D02*
X134851503Y-96420038D01*
X134851503Y-96420038D02*
X134899122Y-96467657D01*
X135803884Y-97372419D02*
X135327694Y-97372419D01*
X135327694Y-97372419D02*
X135327694Y-96372419D01*
X136137218Y-97372419D02*
X136137218Y-96372419D01*
X136708646Y-97372419D02*
X136280075Y-96800990D01*
X136708646Y-96372419D02*
X136137218Y-96943847D01*
X133327693Y-79420038D02*
X133232455Y-79372419D01*
X133232455Y-79372419D02*
X133089598Y-79372419D01*
X133089598Y-79372419D02*
X132946741Y-79420038D01*
X132946741Y-79420038D02*
X132851503Y-79515276D01*
X132851503Y-79515276D02*
X132803884Y-79610514D01*
X132803884Y-79610514D02*
X132756265Y-79800990D01*
X132756265Y-79800990D02*
X132756265Y-79943847D01*
X132756265Y-79943847D02*
X132803884Y-80134323D01*
X132803884Y-80134323D02*
X132851503Y-80229561D01*
X132851503Y-80229561D02*
X132946741Y-80324800D01*
X132946741Y-80324800D02*
X133089598Y-80372419D01*
X133089598Y-80372419D02*
X133184836Y-80372419D01*
X133184836Y-80372419D02*
X133327693Y-80324800D01*
X133327693Y-80324800D02*
X133375312Y-80277180D01*
X133375312Y-80277180D02*
X133375312Y-79943847D01*
X133375312Y-79943847D02*
X133184836Y-79943847D01*
X133803884Y-80372419D02*
X133803884Y-79372419D01*
X133803884Y-79372419D02*
X134375312Y-80372419D01*
X134375312Y-80372419D02*
X134375312Y-79372419D01*
X134851503Y-80372419D02*
X134851503Y-79372419D01*
X134851503Y-79372419D02*
X135089598Y-79372419D01*
X135089598Y-79372419D02*
X135232455Y-79420038D01*
X135232455Y-79420038D02*
X135327693Y-79515276D01*
X135327693Y-79515276D02*
X135375312Y-79610514D01*
X135375312Y-79610514D02*
X135422931Y-79800990D01*
X135422931Y-79800990D02*
X135422931Y-79943847D01*
X135422931Y-79943847D02*
X135375312Y-80134323D01*
X135375312Y-80134323D02*
X135327693Y-80229561D01*
X135327693Y-80229561D02*
X135232455Y-80324800D01*
X135232455Y-80324800D02*
X135089598Y-80372419D01*
X135089598Y-80372419D02*
X134851503Y-80372419D01*
X132803884Y-85372419D02*
X132803884Y-84372419D01*
X133280074Y-85372419D02*
X133280074Y-84372419D01*
X133280074Y-84372419D02*
X133851502Y-85372419D01*
X133851502Y-85372419D02*
X133851502Y-84372419D01*
X134184836Y-84372419D02*
X134756264Y-84372419D01*
X134470550Y-85372419D02*
X134470550Y-84372419D01*
X135041979Y-84467657D02*
X135089598Y-84420038D01*
X135089598Y-84420038D02*
X135184836Y-84372419D01*
X135184836Y-84372419D02*
X135422931Y-84372419D01*
X135422931Y-84372419D02*
X135518169Y-84420038D01*
X135518169Y-84420038D02*
X135565788Y-84467657D01*
X135565788Y-84467657D02*
X135613407Y-84562895D01*
X135613407Y-84562895D02*
X135613407Y-84658133D01*
X135613407Y-84658133D02*
X135565788Y-84800990D01*
X135565788Y-84800990D02*
X134994360Y-85372419D01*
X134994360Y-85372419D02*
X135613407Y-85372419D01*
X132803884Y-87872419D02*
X132803884Y-86872419D01*
X133280074Y-87872419D02*
X133280074Y-86872419D01*
X133280074Y-86872419D02*
X133851502Y-87872419D01*
X133851502Y-87872419D02*
X133851502Y-86872419D01*
X134184836Y-86872419D02*
X134756264Y-86872419D01*
X134470550Y-87872419D02*
X134470550Y-86872419D01*
X135613407Y-87872419D02*
X135041979Y-87872419D01*
X135327693Y-87872419D02*
X135327693Y-86872419D01*
X135327693Y-86872419D02*
X135232455Y-87015276D01*
X135232455Y-87015276D02*
X135137217Y-87110514D01*
X135137217Y-87110514D02*
X135041979Y-87158133D01*
X132803884Y-108872419D02*
X132803884Y-107872419D01*
X132803884Y-107872419D02*
X133137217Y-108586704D01*
X133137217Y-108586704D02*
X133470550Y-107872419D01*
X133470550Y-107872419D02*
X133470550Y-108872419D01*
X133946741Y-107872419D02*
X133946741Y-108681942D01*
X133946741Y-108681942D02*
X133994360Y-108777180D01*
X133994360Y-108777180D02*
X134041979Y-108824800D01*
X134041979Y-108824800D02*
X134137217Y-108872419D01*
X134137217Y-108872419D02*
X134327693Y-108872419D01*
X134327693Y-108872419D02*
X134422931Y-108824800D01*
X134422931Y-108824800D02*
X134470550Y-108777180D01*
X134470550Y-108777180D02*
X134518169Y-108681942D01*
X134518169Y-108681942D02*
X134518169Y-107872419D01*
X134851503Y-107872419D02*
X135422931Y-107872419D01*
X135137217Y-108872419D02*
X135137217Y-107872419D01*
X136327693Y-108777180D02*
X136280074Y-108824800D01*
X136280074Y-108824800D02*
X136137217Y-108872419D01*
X136137217Y-108872419D02*
X136041979Y-108872419D01*
X136041979Y-108872419D02*
X135899122Y-108824800D01*
X135899122Y-108824800D02*
X135803884Y-108729561D01*
X135803884Y-108729561D02*
X135756265Y-108634323D01*
X135756265Y-108634323D02*
X135708646Y-108443847D01*
X135708646Y-108443847D02*
X135708646Y-108300990D01*
X135708646Y-108300990D02*
X135756265Y-108110514D01*
X135756265Y-108110514D02*
X135803884Y-108015276D01*
X135803884Y-108015276D02*
X135899122Y-107920038D01*
X135899122Y-107920038D02*
X136041979Y-107872419D01*
X136041979Y-107872419D02*
X136137217Y-107872419D01*
X136137217Y-107872419D02*
X136280074Y-107920038D01*
X136280074Y-107920038D02*
X136327693Y-107967657D01*
X137232455Y-108872419D02*
X136756265Y-108872419D01*
X136756265Y-108872419D02*
X136756265Y-107872419D01*
X137565789Y-108872419D02*
X137565789Y-107872419D01*
X138137217Y-108872419D02*
X137708646Y-108300990D01*
X138137217Y-107872419D02*
X137565789Y-108443847D01*
X119324800Y-112243734D02*
X119372419Y-112100877D01*
X119372419Y-112100877D02*
X119372419Y-111862782D01*
X119372419Y-111862782D02*
X119324800Y-111767544D01*
X119324800Y-111767544D02*
X119277180Y-111719925D01*
X119277180Y-111719925D02*
X119181942Y-111672306D01*
X119181942Y-111672306D02*
X119086704Y-111672306D01*
X119086704Y-111672306D02*
X118991466Y-111719925D01*
X118991466Y-111719925D02*
X118943847Y-111767544D01*
X118943847Y-111767544D02*
X118896228Y-111862782D01*
X118896228Y-111862782D02*
X118848609Y-112053258D01*
X118848609Y-112053258D02*
X118800990Y-112148496D01*
X118800990Y-112148496D02*
X118753371Y-112196115D01*
X118753371Y-112196115D02*
X118658133Y-112243734D01*
X118658133Y-112243734D02*
X118562895Y-112243734D01*
X118562895Y-112243734D02*
X118467657Y-112196115D01*
X118467657Y-112196115D02*
X118420038Y-112148496D01*
X118420038Y-112148496D02*
X118372419Y-112053258D01*
X118372419Y-112053258D02*
X118372419Y-111815163D01*
X118372419Y-111815163D02*
X118420038Y-111672306D01*
X119372419Y-110767544D02*
X119372419Y-111243734D01*
X119372419Y-111243734D02*
X118372419Y-111243734D01*
X119086704Y-110481829D02*
X119086704Y-110005639D01*
X119372419Y-110577067D02*
X118372419Y-110243734D01*
X118372419Y-110243734D02*
X119372419Y-109910401D01*
X118372419Y-109719924D02*
X119372419Y-109386591D01*
X119372419Y-109386591D02*
X118372419Y-109053258D01*
X118848609Y-108719924D02*
X118848609Y-108386591D01*
X119372419Y-108243734D02*
X119372419Y-108719924D01*
X119372419Y-108719924D02*
X118372419Y-108719924D01*
X118372419Y-108719924D02*
X118372419Y-108243734D01*
X119372419Y-118696115D02*
X118372419Y-118696115D01*
X118372419Y-118696115D02*
X119086704Y-118362782D01*
X119086704Y-118362782D02*
X118372419Y-118029449D01*
X118372419Y-118029449D02*
X119372419Y-118029449D01*
X119086704Y-117600877D02*
X119086704Y-117124687D01*
X119372419Y-117696115D02*
X118372419Y-117362782D01*
X118372419Y-117362782D02*
X119372419Y-117029449D01*
X119324800Y-116743734D02*
X119372419Y-116600877D01*
X119372419Y-116600877D02*
X119372419Y-116362782D01*
X119372419Y-116362782D02*
X119324800Y-116267544D01*
X119324800Y-116267544D02*
X119277180Y-116219925D01*
X119277180Y-116219925D02*
X119181942Y-116172306D01*
X119181942Y-116172306D02*
X119086704Y-116172306D01*
X119086704Y-116172306D02*
X118991466Y-116219925D01*
X118991466Y-116219925D02*
X118943847Y-116267544D01*
X118943847Y-116267544D02*
X118896228Y-116362782D01*
X118896228Y-116362782D02*
X118848609Y-116553258D01*
X118848609Y-116553258D02*
X118800990Y-116648496D01*
X118800990Y-116648496D02*
X118753371Y-116696115D01*
X118753371Y-116696115D02*
X118658133Y-116743734D01*
X118658133Y-116743734D02*
X118562895Y-116743734D01*
X118562895Y-116743734D02*
X118467657Y-116696115D01*
X118467657Y-116696115D02*
X118420038Y-116648496D01*
X118420038Y-116648496D02*
X118372419Y-116553258D01*
X118372419Y-116553258D02*
X118372419Y-116315163D01*
X118372419Y-116315163D02*
X118420038Y-116172306D01*
X118372419Y-115886591D02*
X118372419Y-115315163D01*
X119372419Y-115600877D02*
X118372419Y-115600877D01*
X118848609Y-114981829D02*
X118848609Y-114648496D01*
X119372419Y-114505639D02*
X119372419Y-114981829D01*
X119372419Y-114981829D02*
X118372419Y-114981829D01*
X118372419Y-114981829D02*
X118372419Y-114505639D01*
X119372419Y-113505639D02*
X118896228Y-113838972D01*
X119372419Y-114077067D02*
X118372419Y-114077067D01*
X118372419Y-114077067D02*
X118372419Y-113696115D01*
X118372419Y-113696115D02*
X118420038Y-113600877D01*
X118420038Y-113600877D02*
X118467657Y-113553258D01*
X118467657Y-113553258D02*
X118562895Y-113505639D01*
X118562895Y-113505639D02*
X118705752Y-113505639D01*
X118705752Y-113505639D02*
X118800990Y-113553258D01*
X118800990Y-113553258D02*
X118848609Y-113600877D01*
X118848609Y-113600877D02*
X118896228Y-113696115D01*
X118896228Y-113696115D02*
X118896228Y-114077067D01*
X122848609Y-114976115D02*
X122848609Y-114642782D01*
X123372419Y-114499925D02*
X123372419Y-114976115D01*
X123372419Y-114976115D02*
X122372419Y-114976115D01*
X122372419Y-114976115D02*
X122372419Y-114499925D01*
X122372419Y-114166591D02*
X123372419Y-113499925D01*
X122372419Y-113499925D02*
X123372419Y-114166591D01*
X122372419Y-113261829D02*
X122372419Y-112690401D01*
X123372419Y-112976115D02*
X122372419Y-112976115D01*
X123324800Y-111642781D02*
X123372419Y-111499924D01*
X123372419Y-111499924D02*
X123372419Y-111261829D01*
X123372419Y-111261829D02*
X123324800Y-111166591D01*
X123324800Y-111166591D02*
X123277180Y-111118972D01*
X123277180Y-111118972D02*
X123181942Y-111071353D01*
X123181942Y-111071353D02*
X123086704Y-111071353D01*
X123086704Y-111071353D02*
X122991466Y-111118972D01*
X122991466Y-111118972D02*
X122943847Y-111166591D01*
X122943847Y-111166591D02*
X122896228Y-111261829D01*
X122896228Y-111261829D02*
X122848609Y-111452305D01*
X122848609Y-111452305D02*
X122800990Y-111547543D01*
X122800990Y-111547543D02*
X122753371Y-111595162D01*
X122753371Y-111595162D02*
X122658133Y-111642781D01*
X122658133Y-111642781D02*
X122562895Y-111642781D01*
X122562895Y-111642781D02*
X122467657Y-111595162D01*
X122467657Y-111595162D02*
X122420038Y-111547543D01*
X122420038Y-111547543D02*
X122372419Y-111452305D01*
X122372419Y-111452305D02*
X122372419Y-111214210D01*
X122372419Y-111214210D02*
X122420038Y-111071353D01*
X122896228Y-110452305D02*
X123372419Y-110452305D01*
X122372419Y-110785638D02*
X122896228Y-110452305D01*
X122896228Y-110452305D02*
X122372419Y-110118972D01*
X123372419Y-109785638D02*
X122372419Y-109785638D01*
X122372419Y-109785638D02*
X123372419Y-109214210D01*
X123372419Y-109214210D02*
X122372419Y-109214210D01*
X123277180Y-108166591D02*
X123324800Y-108214210D01*
X123324800Y-108214210D02*
X123372419Y-108357067D01*
X123372419Y-108357067D02*
X123372419Y-108452305D01*
X123372419Y-108452305D02*
X123324800Y-108595162D01*
X123324800Y-108595162D02*
X123229561Y-108690400D01*
X123229561Y-108690400D02*
X123134323Y-108738019D01*
X123134323Y-108738019D02*
X122943847Y-108785638D01*
X122943847Y-108785638D02*
X122800990Y-108785638D01*
X122800990Y-108785638D02*
X122610514Y-108738019D01*
X122610514Y-108738019D02*
X122515276Y-108690400D01*
X122515276Y-108690400D02*
X122420038Y-108595162D01*
X122420038Y-108595162D02*
X122372419Y-108452305D01*
X122372419Y-108452305D02*
X122372419Y-108357067D01*
X122372419Y-108357067D02*
X122420038Y-108214210D01*
X122420038Y-108214210D02*
X122467657Y-108166591D01*
X125420038Y-114452306D02*
X125372419Y-114547544D01*
X125372419Y-114547544D02*
X125372419Y-114690401D01*
X125372419Y-114690401D02*
X125420038Y-114833258D01*
X125420038Y-114833258D02*
X125515276Y-114928496D01*
X125515276Y-114928496D02*
X125610514Y-114976115D01*
X125610514Y-114976115D02*
X125800990Y-115023734D01*
X125800990Y-115023734D02*
X125943847Y-115023734D01*
X125943847Y-115023734D02*
X126134323Y-114976115D01*
X126134323Y-114976115D02*
X126229561Y-114928496D01*
X126229561Y-114928496D02*
X126324800Y-114833258D01*
X126324800Y-114833258D02*
X126372419Y-114690401D01*
X126372419Y-114690401D02*
X126372419Y-114595163D01*
X126372419Y-114595163D02*
X126324800Y-114452306D01*
X126324800Y-114452306D02*
X126277180Y-114404687D01*
X126277180Y-114404687D02*
X125943847Y-114404687D01*
X125943847Y-114404687D02*
X125943847Y-114595163D01*
X126372419Y-113976115D02*
X125372419Y-113976115D01*
X125372419Y-113976115D02*
X126372419Y-113404687D01*
X126372419Y-113404687D02*
X125372419Y-113404687D01*
X126372419Y-112928496D02*
X125372419Y-112928496D01*
X125372419Y-112928496D02*
X125372419Y-112690401D01*
X125372419Y-112690401D02*
X125420038Y-112547544D01*
X125420038Y-112547544D02*
X125515276Y-112452306D01*
X125515276Y-112452306D02*
X125610514Y-112404687D01*
X125610514Y-112404687D02*
X125800990Y-112357068D01*
X125800990Y-112357068D02*
X125943847Y-112357068D01*
X125943847Y-112357068D02*
X126134323Y-112404687D01*
X126134323Y-112404687D02*
X126229561Y-112452306D01*
X126229561Y-112452306D02*
X126324800Y-112547544D01*
X126324800Y-112547544D02*
X126372419Y-112690401D01*
X126372419Y-112690401D02*
X126372419Y-112928496D01*
X121127580Y-72183884D02*
X122127580Y-72183884D01*
X122127580Y-72183884D02*
X121413295Y-72517217D01*
X121413295Y-72517217D02*
X122127580Y-72850550D01*
X122127580Y-72850550D02*
X121127580Y-72850550D01*
X121127580Y-73326741D02*
X122127580Y-73326741D01*
X121175200Y-73755312D02*
X121127580Y-73898169D01*
X121127580Y-73898169D02*
X121127580Y-74136264D01*
X121127580Y-74136264D02*
X121175200Y-74231502D01*
X121175200Y-74231502D02*
X121222819Y-74279121D01*
X121222819Y-74279121D02*
X121318057Y-74326740D01*
X121318057Y-74326740D02*
X121413295Y-74326740D01*
X121413295Y-74326740D02*
X121508533Y-74279121D01*
X121508533Y-74279121D02*
X121556152Y-74231502D01*
X121556152Y-74231502D02*
X121603771Y-74136264D01*
X121603771Y-74136264D02*
X121651390Y-73945788D01*
X121651390Y-73945788D02*
X121699009Y-73850550D01*
X121699009Y-73850550D02*
X121746628Y-73802931D01*
X121746628Y-73802931D02*
X121841866Y-73755312D01*
X121841866Y-73755312D02*
X121937104Y-73755312D01*
X121937104Y-73755312D02*
X122032342Y-73802931D01*
X122032342Y-73802931D02*
X122079961Y-73850550D01*
X122079961Y-73850550D02*
X122127580Y-73945788D01*
X122127580Y-73945788D02*
X122127580Y-74183883D01*
X122127580Y-74183883D02*
X122079961Y-74326740D01*
X122127580Y-74945788D02*
X122127580Y-75136264D01*
X122127580Y-75136264D02*
X122079961Y-75231502D01*
X122079961Y-75231502D02*
X121984723Y-75326740D01*
X121984723Y-75326740D02*
X121794247Y-75374359D01*
X121794247Y-75374359D02*
X121460914Y-75374359D01*
X121460914Y-75374359D02*
X121270438Y-75326740D01*
X121270438Y-75326740D02*
X121175200Y-75231502D01*
X121175200Y-75231502D02*
X121127580Y-75136264D01*
X121127580Y-75136264D02*
X121127580Y-74945788D01*
X121127580Y-74945788D02*
X121175200Y-74850550D01*
X121175200Y-74850550D02*
X121270438Y-74755312D01*
X121270438Y-74755312D02*
X121460914Y-74707693D01*
X121460914Y-74707693D02*
X121794247Y-74707693D01*
X121794247Y-74707693D02*
X121984723Y-74755312D01*
X121984723Y-74755312D02*
X122079961Y-74850550D01*
X122079961Y-74850550D02*
X122127580Y-74945788D01*
X127079961Y-72707693D02*
X127127580Y-72612455D01*
X127127580Y-72612455D02*
X127127580Y-72469598D01*
X127127580Y-72469598D02*
X127079961Y-72326741D01*
X127079961Y-72326741D02*
X126984723Y-72231503D01*
X126984723Y-72231503D02*
X126889485Y-72183884D01*
X126889485Y-72183884D02*
X126699009Y-72136265D01*
X126699009Y-72136265D02*
X126556152Y-72136265D01*
X126556152Y-72136265D02*
X126365676Y-72183884D01*
X126365676Y-72183884D02*
X126270438Y-72231503D01*
X126270438Y-72231503D02*
X126175200Y-72326741D01*
X126175200Y-72326741D02*
X126127580Y-72469598D01*
X126127580Y-72469598D02*
X126127580Y-72564836D01*
X126127580Y-72564836D02*
X126175200Y-72707693D01*
X126175200Y-72707693D02*
X126222819Y-72755312D01*
X126222819Y-72755312D02*
X126556152Y-72755312D01*
X126556152Y-72755312D02*
X126556152Y-72564836D01*
X126127580Y-73183884D02*
X127127580Y-73183884D01*
X127127580Y-73183884D02*
X126127580Y-73755312D01*
X126127580Y-73755312D02*
X127127580Y-73755312D01*
X126127580Y-74231503D02*
X127127580Y-74231503D01*
X127127580Y-74231503D02*
X127127580Y-74469598D01*
X127127580Y-74469598D02*
X127079961Y-74612455D01*
X127079961Y-74612455D02*
X126984723Y-74707693D01*
X126984723Y-74707693D02*
X126889485Y-74755312D01*
X126889485Y-74755312D02*
X126699009Y-74802931D01*
X126699009Y-74802931D02*
X126556152Y-74802931D01*
X126556152Y-74802931D02*
X126365676Y-74755312D01*
X126365676Y-74755312D02*
X126270438Y-74707693D01*
X126270438Y-74707693D02*
X126175200Y-74612455D01*
X126175200Y-74612455D02*
X126127580Y-74469598D01*
X126127580Y-74469598D02*
X126127580Y-74231503D01*
D13*
X102860588Y-80417438D02*
X102765350Y-80369819D01*
X102765350Y-80369819D02*
X102622493Y-80369819D01*
X102622493Y-80369819D02*
X102479636Y-80417438D01*
X102479636Y-80417438D02*
X102384398Y-80512676D01*
X102384398Y-80512676D02*
X102336779Y-80607914D01*
X102336779Y-80607914D02*
X102289160Y-80798390D01*
X102289160Y-80798390D02*
X102289160Y-80941247D01*
X102289160Y-80941247D02*
X102336779Y-81131723D01*
X102336779Y-81131723D02*
X102384398Y-81226961D01*
X102384398Y-81226961D02*
X102479636Y-81322200D01*
X102479636Y-81322200D02*
X102622493Y-81369819D01*
X102622493Y-81369819D02*
X102717731Y-81369819D01*
X102717731Y-81369819D02*
X102860588Y-81322200D01*
X102860588Y-81322200D02*
X102908207Y-81274580D01*
X102908207Y-81274580D02*
X102908207Y-80941247D01*
X102908207Y-80941247D02*
X102717731Y-80941247D01*
X103336779Y-81369819D02*
X103336779Y-80369819D01*
X103336779Y-80369819D02*
X103908207Y-81369819D01*
X103908207Y-81369819D02*
X103908207Y-80369819D01*
X104384398Y-81369819D02*
X104384398Y-80369819D01*
X104384398Y-80369819D02*
X104622493Y-80369819D01*
X104622493Y-80369819D02*
X104765350Y-80417438D01*
X104765350Y-80417438D02*
X104860588Y-80512676D01*
X104860588Y-80512676D02*
X104908207Y-80607914D01*
X104908207Y-80607914D02*
X104955826Y-80798390D01*
X104955826Y-80798390D02*
X104955826Y-80941247D01*
X104955826Y-80941247D02*
X104908207Y-81131723D01*
X104908207Y-81131723D02*
X104860588Y-81226961D01*
X104860588Y-81226961D02*
X104765350Y-81322200D01*
X104765350Y-81322200D02*
X104622493Y-81369819D01*
X104622493Y-81369819D02*
X104384398Y-81369819D01*
X102193922Y-82869819D02*
X102765350Y-82869819D01*
X102479636Y-83869819D02*
X102479636Y-82869819D01*
X103003446Y-82869819D02*
X103670112Y-83869819D01*
X103670112Y-82869819D02*
X103003446Y-83869819D01*
X102908207Y-86369819D02*
X102574874Y-85893628D01*
X102336779Y-86369819D02*
X102336779Y-85369819D01*
X102336779Y-85369819D02*
X102717731Y-85369819D01*
X102717731Y-85369819D02*
X102812969Y-85417438D01*
X102812969Y-85417438D02*
X102860588Y-85465057D01*
X102860588Y-85465057D02*
X102908207Y-85560295D01*
X102908207Y-85560295D02*
X102908207Y-85703152D01*
X102908207Y-85703152D02*
X102860588Y-85798390D01*
X102860588Y-85798390D02*
X102812969Y-85846009D01*
X102812969Y-85846009D02*
X102717731Y-85893628D01*
X102717731Y-85893628D02*
X102336779Y-85893628D01*
X103241541Y-85369819D02*
X103908207Y-86369819D01*
X103908207Y-85369819D02*
X103241541Y-86369819D01*
X108360588Y-71917438D02*
X108265350Y-71869819D01*
X108265350Y-71869819D02*
X108122493Y-71869819D01*
X108122493Y-71869819D02*
X107979636Y-71917438D01*
X107979636Y-71917438D02*
X107884398Y-72012676D01*
X107884398Y-72012676D02*
X107836779Y-72107914D01*
X107836779Y-72107914D02*
X107789160Y-72298390D01*
X107789160Y-72298390D02*
X107789160Y-72441247D01*
X107789160Y-72441247D02*
X107836779Y-72631723D01*
X107836779Y-72631723D02*
X107884398Y-72726961D01*
X107884398Y-72726961D02*
X107979636Y-72822200D01*
X107979636Y-72822200D02*
X108122493Y-72869819D01*
X108122493Y-72869819D02*
X108217731Y-72869819D01*
X108217731Y-72869819D02*
X108360588Y-72822200D01*
X108360588Y-72822200D02*
X108408207Y-72774580D01*
X108408207Y-72774580D02*
X108408207Y-72441247D01*
X108408207Y-72441247D02*
X108217731Y-72441247D01*
X108836779Y-72869819D02*
X108836779Y-71869819D01*
X108836779Y-71869819D02*
X109408207Y-72869819D01*
X109408207Y-72869819D02*
X109408207Y-71869819D01*
X109884398Y-72869819D02*
X109884398Y-71869819D01*
X109884398Y-71869819D02*
X110122493Y-71869819D01*
X110122493Y-71869819D02*
X110265350Y-71917438D01*
X110265350Y-71917438D02*
X110360588Y-72012676D01*
X110360588Y-72012676D02*
X110408207Y-72107914D01*
X110408207Y-72107914D02*
X110455826Y-72298390D01*
X110455826Y-72298390D02*
X110455826Y-72441247D01*
X110455826Y-72441247D02*
X110408207Y-72631723D01*
X110408207Y-72631723D02*
X110360588Y-72726961D01*
X110360588Y-72726961D02*
X110265350Y-72822200D01*
X110265350Y-72822200D02*
X110122493Y-72869819D01*
X110122493Y-72869819D02*
X109884398Y-72869819D01*
X102677800Y-72289160D02*
X102630180Y-72432017D01*
X102630180Y-72432017D02*
X102630180Y-72670112D01*
X102630180Y-72670112D02*
X102677800Y-72765350D01*
X102677800Y-72765350D02*
X102725419Y-72812969D01*
X102725419Y-72812969D02*
X102820657Y-72860588D01*
X102820657Y-72860588D02*
X102915895Y-72860588D01*
X102915895Y-72860588D02*
X103011133Y-72812969D01*
X103011133Y-72812969D02*
X103058752Y-72765350D01*
X103058752Y-72765350D02*
X103106371Y-72670112D01*
X103106371Y-72670112D02*
X103153990Y-72479636D01*
X103153990Y-72479636D02*
X103201609Y-72384398D01*
X103201609Y-72384398D02*
X103249228Y-72336779D01*
X103249228Y-72336779D02*
X103344466Y-72289160D01*
X103344466Y-72289160D02*
X103439704Y-72289160D01*
X103439704Y-72289160D02*
X103534942Y-72336779D01*
X103534942Y-72336779D02*
X103582561Y-72384398D01*
X103582561Y-72384398D02*
X103630180Y-72479636D01*
X103630180Y-72479636D02*
X103630180Y-72717731D01*
X103630180Y-72717731D02*
X103582561Y-72860588D01*
X102725419Y-73860588D02*
X102677800Y-73812969D01*
X102677800Y-73812969D02*
X102630180Y-73670112D01*
X102630180Y-73670112D02*
X102630180Y-73574874D01*
X102630180Y-73574874D02*
X102677800Y-73432017D01*
X102677800Y-73432017D02*
X102773038Y-73336779D01*
X102773038Y-73336779D02*
X102868276Y-73289160D01*
X102868276Y-73289160D02*
X103058752Y-73241541D01*
X103058752Y-73241541D02*
X103201609Y-73241541D01*
X103201609Y-73241541D02*
X103392085Y-73289160D01*
X103392085Y-73289160D02*
X103487323Y-73336779D01*
X103487323Y-73336779D02*
X103582561Y-73432017D01*
X103582561Y-73432017D02*
X103630180Y-73574874D01*
X103630180Y-73574874D02*
X103630180Y-73670112D01*
X103630180Y-73670112D02*
X103582561Y-73812969D01*
X103582561Y-73812969D02*
X103534942Y-73860588D01*
X102630180Y-74765350D02*
X102630180Y-74289160D01*
X102630180Y-74289160D02*
X103630180Y-74289160D01*
X105177800Y-72289160D02*
X105130180Y-72432017D01*
X105130180Y-72432017D02*
X105130180Y-72670112D01*
X105130180Y-72670112D02*
X105177800Y-72765350D01*
X105177800Y-72765350D02*
X105225419Y-72812969D01*
X105225419Y-72812969D02*
X105320657Y-72860588D01*
X105320657Y-72860588D02*
X105415895Y-72860588D01*
X105415895Y-72860588D02*
X105511133Y-72812969D01*
X105511133Y-72812969D02*
X105558752Y-72765350D01*
X105558752Y-72765350D02*
X105606371Y-72670112D01*
X105606371Y-72670112D02*
X105653990Y-72479636D01*
X105653990Y-72479636D02*
X105701609Y-72384398D01*
X105701609Y-72384398D02*
X105749228Y-72336779D01*
X105749228Y-72336779D02*
X105844466Y-72289160D01*
X105844466Y-72289160D02*
X105939704Y-72289160D01*
X105939704Y-72289160D02*
X106034942Y-72336779D01*
X106034942Y-72336779D02*
X106082561Y-72384398D01*
X106082561Y-72384398D02*
X106130180Y-72479636D01*
X106130180Y-72479636D02*
X106130180Y-72717731D01*
X106130180Y-72717731D02*
X106082561Y-72860588D01*
X105130180Y-73289160D02*
X106130180Y-73289160D01*
X106130180Y-73289160D02*
X106130180Y-73527255D01*
X106130180Y-73527255D02*
X106082561Y-73670112D01*
X106082561Y-73670112D02*
X105987323Y-73765350D01*
X105987323Y-73765350D02*
X105892085Y-73812969D01*
X105892085Y-73812969D02*
X105701609Y-73860588D01*
X105701609Y-73860588D02*
X105558752Y-73860588D01*
X105558752Y-73860588D02*
X105368276Y-73812969D01*
X105368276Y-73812969D02*
X105273038Y-73765350D01*
X105273038Y-73765350D02*
X105177800Y-73670112D01*
X105177800Y-73670112D02*
X105130180Y-73527255D01*
X105130180Y-73527255D02*
X105130180Y-73289160D01*
X105415895Y-74241541D02*
X105415895Y-74717731D01*
X105130180Y-74146303D02*
X106130180Y-74479636D01*
X106130180Y-74479636D02*
X105130180Y-74812969D01*
X118130180Y-72336779D02*
X119130180Y-72336779D01*
X119130180Y-72336779D02*
X118415895Y-72670112D01*
X118415895Y-72670112D02*
X119130180Y-73003445D01*
X119130180Y-73003445D02*
X118130180Y-73003445D01*
X119130180Y-73670112D02*
X119130180Y-73860588D01*
X119130180Y-73860588D02*
X119082561Y-73955826D01*
X119082561Y-73955826D02*
X118987323Y-74051064D01*
X118987323Y-74051064D02*
X118796847Y-74098683D01*
X118796847Y-74098683D02*
X118463514Y-74098683D01*
X118463514Y-74098683D02*
X118273038Y-74051064D01*
X118273038Y-74051064D02*
X118177800Y-73955826D01*
X118177800Y-73955826D02*
X118130180Y-73860588D01*
X118130180Y-73860588D02*
X118130180Y-73670112D01*
X118130180Y-73670112D02*
X118177800Y-73574874D01*
X118177800Y-73574874D02*
X118273038Y-73479636D01*
X118273038Y-73479636D02*
X118463514Y-73432017D01*
X118463514Y-73432017D02*
X118796847Y-73432017D01*
X118796847Y-73432017D02*
X118987323Y-73479636D01*
X118987323Y-73479636D02*
X119082561Y-73574874D01*
X119082561Y-73574874D02*
X119130180Y-73670112D01*
X118177800Y-74479636D02*
X118130180Y-74622493D01*
X118130180Y-74622493D02*
X118130180Y-74860588D01*
X118130180Y-74860588D02*
X118177800Y-74955826D01*
X118177800Y-74955826D02*
X118225419Y-75003445D01*
X118225419Y-75003445D02*
X118320657Y-75051064D01*
X118320657Y-75051064D02*
X118415895Y-75051064D01*
X118415895Y-75051064D02*
X118511133Y-75003445D01*
X118511133Y-75003445D02*
X118558752Y-74955826D01*
X118558752Y-74955826D02*
X118606371Y-74860588D01*
X118606371Y-74860588D02*
X118653990Y-74670112D01*
X118653990Y-74670112D02*
X118701609Y-74574874D01*
X118701609Y-74574874D02*
X118749228Y-74527255D01*
X118749228Y-74527255D02*
X118844466Y-74479636D01*
X118844466Y-74479636D02*
X118939704Y-74479636D01*
X118939704Y-74479636D02*
X119034942Y-74527255D01*
X119034942Y-74527255D02*
X119082561Y-74574874D01*
X119082561Y-74574874D02*
X119130180Y-74670112D01*
X119130180Y-74670112D02*
X119130180Y-74908207D01*
X119130180Y-74908207D02*
X119082561Y-75051064D01*
X118130180Y-75479636D02*
X119130180Y-75479636D01*
X123677800Y-72289160D02*
X123630180Y-72432017D01*
X123630180Y-72432017D02*
X123630180Y-72670112D01*
X123630180Y-72670112D02*
X123677800Y-72765350D01*
X123677800Y-72765350D02*
X123725419Y-72812969D01*
X123725419Y-72812969D02*
X123820657Y-72860588D01*
X123820657Y-72860588D02*
X123915895Y-72860588D01*
X123915895Y-72860588D02*
X124011133Y-72812969D01*
X124011133Y-72812969D02*
X124058752Y-72765350D01*
X124058752Y-72765350D02*
X124106371Y-72670112D01*
X124106371Y-72670112D02*
X124153990Y-72479636D01*
X124153990Y-72479636D02*
X124201609Y-72384398D01*
X124201609Y-72384398D02*
X124249228Y-72336779D01*
X124249228Y-72336779D02*
X124344466Y-72289160D01*
X124344466Y-72289160D02*
X124439704Y-72289160D01*
X124439704Y-72289160D02*
X124534942Y-72336779D01*
X124534942Y-72336779D02*
X124582561Y-72384398D01*
X124582561Y-72384398D02*
X124630180Y-72479636D01*
X124630180Y-72479636D02*
X124630180Y-72717731D01*
X124630180Y-72717731D02*
X124582561Y-72860588D01*
X123725419Y-73860588D02*
X123677800Y-73812969D01*
X123677800Y-73812969D02*
X123630180Y-73670112D01*
X123630180Y-73670112D02*
X123630180Y-73574874D01*
X123630180Y-73574874D02*
X123677800Y-73432017D01*
X123677800Y-73432017D02*
X123773038Y-73336779D01*
X123773038Y-73336779D02*
X123868276Y-73289160D01*
X123868276Y-73289160D02*
X124058752Y-73241541D01*
X124058752Y-73241541D02*
X124201609Y-73241541D01*
X124201609Y-73241541D02*
X124392085Y-73289160D01*
X124392085Y-73289160D02*
X124487323Y-73336779D01*
X124487323Y-73336779D02*
X124582561Y-73432017D01*
X124582561Y-73432017D02*
X124630180Y-73574874D01*
X124630180Y-73574874D02*
X124630180Y-73670112D01*
X124630180Y-73670112D02*
X124582561Y-73812969D01*
X124582561Y-73812969D02*
X124534942Y-73860588D01*
X123630180Y-74765350D02*
X123630180Y-74289160D01*
X123630180Y-74289160D02*
X124630180Y-74289160D01*
X123630180Y-75098684D02*
X124630180Y-75098684D01*
X123630180Y-75670112D02*
X124201609Y-75241541D01*
X124630180Y-75670112D02*
X124058752Y-75098684D01*
D11*
X97928571Y-90537387D02*
X97928571Y-91346910D01*
X97928571Y-91346910D02*
X97976190Y-91442148D01*
X97976190Y-91442148D02*
X98023809Y-91489768D01*
X98023809Y-91489768D02*
X98119047Y-91537387D01*
X98119047Y-91537387D02*
X98309523Y-91537387D01*
X98309523Y-91537387D02*
X98404761Y-91489768D01*
X98404761Y-91489768D02*
X98452380Y-91442148D01*
X98452380Y-91442148D02*
X98499999Y-91346910D01*
X98499999Y-91346910D02*
X98499999Y-90537387D01*
X99119047Y-91537387D02*
X99023809Y-91489768D01*
X99023809Y-91489768D02*
X98976190Y-91394529D01*
X98976190Y-91394529D02*
X98976190Y-90537387D01*
X99357143Y-90870720D02*
X99738095Y-90870720D01*
X99500000Y-90537387D02*
X99500000Y-91394529D01*
X99500000Y-91394529D02*
X99547619Y-91489768D01*
X99547619Y-91489768D02*
X99642857Y-91537387D01*
X99642857Y-91537387D02*
X99738095Y-91537387D01*
X100071429Y-91537387D02*
X100071429Y-90870720D01*
X100071429Y-91061196D02*
X100119048Y-90965958D01*
X100119048Y-90965958D02*
X100166667Y-90918339D01*
X100166667Y-90918339D02*
X100261905Y-90870720D01*
X100261905Y-90870720D02*
X100357143Y-90870720D01*
X101119048Y-91537387D02*
X101119048Y-91013577D01*
X101119048Y-91013577D02*
X101071429Y-90918339D01*
X101071429Y-90918339D02*
X100976191Y-90870720D01*
X100976191Y-90870720D02*
X100785715Y-90870720D01*
X100785715Y-90870720D02*
X100690477Y-90918339D01*
X101119048Y-91489768D02*
X101023810Y-91537387D01*
X101023810Y-91537387D02*
X100785715Y-91537387D01*
X100785715Y-91537387D02*
X100690477Y-91489768D01*
X100690477Y-91489768D02*
X100642858Y-91394529D01*
X100642858Y-91394529D02*
X100642858Y-91299291D01*
X100642858Y-91299291D02*
X100690477Y-91204053D01*
X100690477Y-91204053D02*
X100785715Y-91156434D01*
X100785715Y-91156434D02*
X101023810Y-91156434D01*
X101023810Y-91156434D02*
X101119048Y-91108815D01*
X101547620Y-91489768D02*
X101642858Y-91537387D01*
X101642858Y-91537387D02*
X101833334Y-91537387D01*
X101833334Y-91537387D02*
X101928572Y-91489768D01*
X101928572Y-91489768D02*
X101976191Y-91394529D01*
X101976191Y-91394529D02*
X101976191Y-91346910D01*
X101976191Y-91346910D02*
X101928572Y-91251672D01*
X101928572Y-91251672D02*
X101833334Y-91204053D01*
X101833334Y-91204053D02*
X101690477Y-91204053D01*
X101690477Y-91204053D02*
X101595239Y-91156434D01*
X101595239Y-91156434D02*
X101547620Y-91061196D01*
X101547620Y-91061196D02*
X101547620Y-91013577D01*
X101547620Y-91013577D02*
X101595239Y-90918339D01*
X101595239Y-90918339D02*
X101690477Y-90870720D01*
X101690477Y-90870720D02*
X101833334Y-90870720D01*
X101833334Y-90870720D02*
X101928572Y-90918339D01*
X102547620Y-91537387D02*
X102452382Y-91489768D01*
X102452382Y-91489768D02*
X102404763Y-91442148D01*
X102404763Y-91442148D02*
X102357144Y-91346910D01*
X102357144Y-91346910D02*
X102357144Y-91061196D01*
X102357144Y-91061196D02*
X102404763Y-90965958D01*
X102404763Y-90965958D02*
X102452382Y-90918339D01*
X102452382Y-90918339D02*
X102547620Y-90870720D01*
X102547620Y-90870720D02*
X102690477Y-90870720D01*
X102690477Y-90870720D02*
X102785715Y-90918339D01*
X102785715Y-90918339D02*
X102833334Y-90965958D01*
X102833334Y-90965958D02*
X102880953Y-91061196D01*
X102880953Y-91061196D02*
X102880953Y-91346910D01*
X102880953Y-91346910D02*
X102833334Y-91442148D01*
X102833334Y-91442148D02*
X102785715Y-91489768D01*
X102785715Y-91489768D02*
X102690477Y-91537387D01*
X102690477Y-91537387D02*
X102547620Y-91537387D01*
X103309525Y-90870720D02*
X103309525Y-91537387D01*
X103309525Y-90965958D02*
X103357144Y-90918339D01*
X103357144Y-90918339D02*
X103452382Y-90870720D01*
X103452382Y-90870720D02*
X103595239Y-90870720D01*
X103595239Y-90870720D02*
X103690477Y-90918339D01*
X103690477Y-90918339D02*
X103738096Y-91013577D01*
X103738096Y-91013577D02*
X103738096Y-91537387D01*
X104214287Y-91537387D02*
X104214287Y-90870720D01*
X104214287Y-90537387D02*
X104166668Y-90585006D01*
X104166668Y-90585006D02*
X104214287Y-90632625D01*
X104214287Y-90632625D02*
X104261906Y-90585006D01*
X104261906Y-90585006D02*
X104214287Y-90537387D01*
X104214287Y-90537387D02*
X104214287Y-90632625D01*
X105119048Y-91489768D02*
X105023810Y-91537387D01*
X105023810Y-91537387D02*
X104833334Y-91537387D01*
X104833334Y-91537387D02*
X104738096Y-91489768D01*
X104738096Y-91489768D02*
X104690477Y-91442148D01*
X104690477Y-91442148D02*
X104642858Y-91346910D01*
X104642858Y-91346910D02*
X104642858Y-91061196D01*
X104642858Y-91061196D02*
X104690477Y-90965958D01*
X104690477Y-90965958D02*
X104738096Y-90918339D01*
X104738096Y-90918339D02*
X104833334Y-90870720D01*
X104833334Y-90870720D02*
X105023810Y-90870720D01*
X105023810Y-90870720D02*
X105119048Y-90918339D01*
X97047618Y-92147331D02*
X97619046Y-92147331D01*
X97333332Y-93147331D02*
X97333332Y-92147331D01*
X97952380Y-93147331D02*
X97952380Y-92480664D01*
X97952380Y-92671140D02*
X97999999Y-92575902D01*
X97999999Y-92575902D02*
X98047618Y-92528283D01*
X98047618Y-92528283D02*
X98142856Y-92480664D01*
X98142856Y-92480664D02*
X98238094Y-92480664D01*
X98571428Y-93147331D02*
X98571428Y-92480664D01*
X98571428Y-92147331D02*
X98523809Y-92194950D01*
X98523809Y-92194950D02*
X98571428Y-92242569D01*
X98571428Y-92242569D02*
X98619047Y-92194950D01*
X98619047Y-92194950D02*
X98571428Y-92147331D01*
X98571428Y-92147331D02*
X98571428Y-92242569D01*
X99190475Y-93147331D02*
X99095237Y-93099712D01*
X99095237Y-93099712D02*
X99047618Y-93004473D01*
X99047618Y-93004473D02*
X99047618Y-92147331D01*
X99999999Y-93147331D02*
X99999999Y-92623521D01*
X99999999Y-92623521D02*
X99952380Y-92528283D01*
X99952380Y-92528283D02*
X99857142Y-92480664D01*
X99857142Y-92480664D02*
X99666666Y-92480664D01*
X99666666Y-92480664D02*
X99571428Y-92528283D01*
X99999999Y-93099712D02*
X99904761Y-93147331D01*
X99904761Y-93147331D02*
X99666666Y-93147331D01*
X99666666Y-93147331D02*
X99571428Y-93099712D01*
X99571428Y-93099712D02*
X99523809Y-93004473D01*
X99523809Y-93004473D02*
X99523809Y-92909235D01*
X99523809Y-92909235D02*
X99571428Y-92813997D01*
X99571428Y-92813997D02*
X99666666Y-92766378D01*
X99666666Y-92766378D02*
X99904761Y-92766378D01*
X99904761Y-92766378D02*
X99999999Y-92718759D01*
X100333333Y-92480664D02*
X100714285Y-92480664D01*
X100476190Y-92147331D02*
X100476190Y-93004473D01*
X100476190Y-93004473D02*
X100523809Y-93099712D01*
X100523809Y-93099712D02*
X100619047Y-93147331D01*
X100619047Y-93147331D02*
X100714285Y-93147331D01*
X101428571Y-93099712D02*
X101333333Y-93147331D01*
X101333333Y-93147331D02*
X101142857Y-93147331D01*
X101142857Y-93147331D02*
X101047619Y-93099712D01*
X101047619Y-93099712D02*
X101000000Y-93004473D01*
X101000000Y-93004473D02*
X101000000Y-92623521D01*
X101000000Y-92623521D02*
X101047619Y-92528283D01*
X101047619Y-92528283D02*
X101142857Y-92480664D01*
X101142857Y-92480664D02*
X101333333Y-92480664D01*
X101333333Y-92480664D02*
X101428571Y-92528283D01*
X101428571Y-92528283D02*
X101476190Y-92623521D01*
X101476190Y-92623521D02*
X101476190Y-92718759D01*
X101476190Y-92718759D02*
X101000000Y-92813997D01*
X101904762Y-93147331D02*
X101904762Y-92480664D01*
X101904762Y-92671140D02*
X101952381Y-92575902D01*
X101952381Y-92575902D02*
X102000000Y-92528283D01*
X102000000Y-92528283D02*
X102095238Y-92480664D01*
X102095238Y-92480664D02*
X102190476Y-92480664D01*
X102952381Y-93147331D02*
X102952381Y-92623521D01*
X102952381Y-92623521D02*
X102904762Y-92528283D01*
X102904762Y-92528283D02*
X102809524Y-92480664D01*
X102809524Y-92480664D02*
X102619048Y-92480664D01*
X102619048Y-92480664D02*
X102523810Y-92528283D01*
X102952381Y-93099712D02*
X102857143Y-93147331D01*
X102857143Y-93147331D02*
X102619048Y-93147331D01*
X102619048Y-93147331D02*
X102523810Y-93099712D01*
X102523810Y-93099712D02*
X102476191Y-93004473D01*
X102476191Y-93004473D02*
X102476191Y-92909235D01*
X102476191Y-92909235D02*
X102523810Y-92813997D01*
X102523810Y-92813997D02*
X102619048Y-92766378D01*
X102619048Y-92766378D02*
X102857143Y-92766378D01*
X102857143Y-92766378D02*
X102952381Y-92718759D01*
X103285715Y-92480664D02*
X103666667Y-92480664D01*
X103428572Y-92147331D02*
X103428572Y-93004473D01*
X103428572Y-93004473D02*
X103476191Y-93099712D01*
X103476191Y-93099712D02*
X103571429Y-93147331D01*
X103571429Y-93147331D02*
X103666667Y-93147331D01*
X104000001Y-93147331D02*
X104000001Y-92480664D01*
X104000001Y-92147331D02*
X103952382Y-92194950D01*
X103952382Y-92194950D02*
X104000001Y-92242569D01*
X104000001Y-92242569D02*
X104047620Y-92194950D01*
X104047620Y-92194950D02*
X104000001Y-92147331D01*
X104000001Y-92147331D02*
X104000001Y-92242569D01*
X104619048Y-93147331D02*
X104523810Y-93099712D01*
X104523810Y-93099712D02*
X104476191Y-93052092D01*
X104476191Y-93052092D02*
X104428572Y-92956854D01*
X104428572Y-92956854D02*
X104428572Y-92671140D01*
X104428572Y-92671140D02*
X104476191Y-92575902D01*
X104476191Y-92575902D02*
X104523810Y-92528283D01*
X104523810Y-92528283D02*
X104619048Y-92480664D01*
X104619048Y-92480664D02*
X104761905Y-92480664D01*
X104761905Y-92480664D02*
X104857143Y-92528283D01*
X104857143Y-92528283D02*
X104904762Y-92575902D01*
X104904762Y-92575902D02*
X104952381Y-92671140D01*
X104952381Y-92671140D02*
X104952381Y-92956854D01*
X104952381Y-92956854D02*
X104904762Y-93052092D01*
X104904762Y-93052092D02*
X104857143Y-93099712D01*
X104857143Y-93099712D02*
X104761905Y-93147331D01*
X104761905Y-93147331D02*
X104619048Y-93147331D01*
X105380953Y-92480664D02*
X105380953Y-93147331D01*
X105380953Y-92575902D02*
X105428572Y-92528283D01*
X105428572Y-92528283D02*
X105523810Y-92480664D01*
X105523810Y-92480664D02*
X105666667Y-92480664D01*
X105666667Y-92480664D02*
X105761905Y-92528283D01*
X105761905Y-92528283D02*
X105809524Y-92623521D01*
X105809524Y-92623521D02*
X105809524Y-93147331D01*
X99357142Y-94233465D02*
X99499999Y-94281084D01*
X99499999Y-94281084D02*
X99547618Y-94328703D01*
X99547618Y-94328703D02*
X99595237Y-94423941D01*
X99595237Y-94423941D02*
X99595237Y-94566798D01*
X99595237Y-94566798D02*
X99547618Y-94662036D01*
X99547618Y-94662036D02*
X99499999Y-94709656D01*
X99499999Y-94709656D02*
X99404761Y-94757275D01*
X99404761Y-94757275D02*
X99023809Y-94757275D01*
X99023809Y-94757275D02*
X99023809Y-93757275D01*
X99023809Y-93757275D02*
X99357142Y-93757275D01*
X99357142Y-93757275D02*
X99452380Y-93804894D01*
X99452380Y-93804894D02*
X99499999Y-93852513D01*
X99499999Y-93852513D02*
X99547618Y-93947751D01*
X99547618Y-93947751D02*
X99547618Y-94042989D01*
X99547618Y-94042989D02*
X99499999Y-94138227D01*
X99499999Y-94138227D02*
X99452380Y-94185846D01*
X99452380Y-94185846D02*
X99357142Y-94233465D01*
X99357142Y-94233465D02*
X99023809Y-94233465D01*
X100404761Y-94709656D02*
X100309523Y-94757275D01*
X100309523Y-94757275D02*
X100119047Y-94757275D01*
X100119047Y-94757275D02*
X100023809Y-94709656D01*
X100023809Y-94709656D02*
X99976190Y-94614417D01*
X99976190Y-94614417D02*
X99976190Y-94233465D01*
X99976190Y-94233465D02*
X100023809Y-94138227D01*
X100023809Y-94138227D02*
X100119047Y-94090608D01*
X100119047Y-94090608D02*
X100309523Y-94090608D01*
X100309523Y-94090608D02*
X100404761Y-94138227D01*
X100404761Y-94138227D02*
X100452380Y-94233465D01*
X100452380Y-94233465D02*
X100452380Y-94328703D01*
X100452380Y-94328703D02*
X99976190Y-94423941D01*
X101309523Y-94757275D02*
X101309523Y-94233465D01*
X101309523Y-94233465D02*
X101261904Y-94138227D01*
X101261904Y-94138227D02*
X101166666Y-94090608D01*
X101166666Y-94090608D02*
X100976190Y-94090608D01*
X100976190Y-94090608D02*
X100880952Y-94138227D01*
X101309523Y-94709656D02*
X101214285Y-94757275D01*
X101214285Y-94757275D02*
X100976190Y-94757275D01*
X100976190Y-94757275D02*
X100880952Y-94709656D01*
X100880952Y-94709656D02*
X100833333Y-94614417D01*
X100833333Y-94614417D02*
X100833333Y-94519179D01*
X100833333Y-94519179D02*
X100880952Y-94423941D01*
X100880952Y-94423941D02*
X100976190Y-94376322D01*
X100976190Y-94376322D02*
X101214285Y-94376322D01*
X101214285Y-94376322D02*
X101309523Y-94328703D01*
X102214285Y-94709656D02*
X102119047Y-94757275D01*
X102119047Y-94757275D02*
X101928571Y-94757275D01*
X101928571Y-94757275D02*
X101833333Y-94709656D01*
X101833333Y-94709656D02*
X101785714Y-94662036D01*
X101785714Y-94662036D02*
X101738095Y-94566798D01*
X101738095Y-94566798D02*
X101738095Y-94281084D01*
X101738095Y-94281084D02*
X101785714Y-94185846D01*
X101785714Y-94185846D02*
X101833333Y-94138227D01*
X101833333Y-94138227D02*
X101928571Y-94090608D01*
X101928571Y-94090608D02*
X102119047Y-94090608D01*
X102119047Y-94090608D02*
X102214285Y-94138227D01*
X102785714Y-94757275D02*
X102690476Y-94709656D01*
X102690476Y-94709656D02*
X102642857Y-94662036D01*
X102642857Y-94662036D02*
X102595238Y-94566798D01*
X102595238Y-94566798D02*
X102595238Y-94281084D01*
X102595238Y-94281084D02*
X102642857Y-94185846D01*
X102642857Y-94185846D02*
X102690476Y-94138227D01*
X102690476Y-94138227D02*
X102785714Y-94090608D01*
X102785714Y-94090608D02*
X102928571Y-94090608D01*
X102928571Y-94090608D02*
X103023809Y-94138227D01*
X103023809Y-94138227D02*
X103071428Y-94185846D01*
X103071428Y-94185846D02*
X103119047Y-94281084D01*
X103119047Y-94281084D02*
X103119047Y-94566798D01*
X103119047Y-94566798D02*
X103071428Y-94662036D01*
X103071428Y-94662036D02*
X103023809Y-94709656D01*
X103023809Y-94709656D02*
X102928571Y-94757275D01*
X102928571Y-94757275D02*
X102785714Y-94757275D01*
X103547619Y-94090608D02*
X103547619Y-94757275D01*
X103547619Y-94185846D02*
X103595238Y-94138227D01*
X103595238Y-94138227D02*
X103690476Y-94090608D01*
X103690476Y-94090608D02*
X103833333Y-94090608D01*
X103833333Y-94090608D02*
X103928571Y-94138227D01*
X103928571Y-94138227D02*
X103976190Y-94233465D01*
X103976190Y-94233465D02*
X103976190Y-94757275D01*
X100690476Y-95367219D02*
X101023809Y-96367219D01*
X101023809Y-96367219D02*
X101357142Y-95367219D01*
X102214285Y-96367219D02*
X101642857Y-96367219D01*
X101928571Y-96367219D02*
X101928571Y-95367219D01*
X101928571Y-95367219D02*
X101833333Y-95510076D01*
X101833333Y-95510076D02*
X101738095Y-95605314D01*
X101738095Y-95605314D02*
X101642857Y-95652933D01*
X117809523Y-80709656D02*
X117952380Y-80757275D01*
X117952380Y-80757275D02*
X118190475Y-80757275D01*
X118190475Y-80757275D02*
X118285713Y-80709656D01*
X118285713Y-80709656D02*
X118333332Y-80662036D01*
X118333332Y-80662036D02*
X118380951Y-80566798D01*
X118380951Y-80566798D02*
X118380951Y-80471560D01*
X118380951Y-80471560D02*
X118333332Y-80376322D01*
X118333332Y-80376322D02*
X118285713Y-80328703D01*
X118285713Y-80328703D02*
X118190475Y-80281084D01*
X118190475Y-80281084D02*
X117999999Y-80233465D01*
X117999999Y-80233465D02*
X117904761Y-80185846D01*
X117904761Y-80185846D02*
X117857142Y-80138227D01*
X117857142Y-80138227D02*
X117809523Y-80042989D01*
X117809523Y-80042989D02*
X117809523Y-79947751D01*
X117809523Y-79947751D02*
X117857142Y-79852513D01*
X117857142Y-79852513D02*
X117904761Y-79804894D01*
X117904761Y-79804894D02*
X117999999Y-79757275D01*
X117999999Y-79757275D02*
X118238094Y-79757275D01*
X118238094Y-79757275D02*
X118380951Y-79804894D01*
X118809523Y-80757275D02*
X118809523Y-79757275D01*
X119238094Y-80757275D02*
X119238094Y-80233465D01*
X119238094Y-80233465D02*
X119190475Y-80138227D01*
X119190475Y-80138227D02*
X119095237Y-80090608D01*
X119095237Y-80090608D02*
X118952380Y-80090608D01*
X118952380Y-80090608D02*
X118857142Y-80138227D01*
X118857142Y-80138227D02*
X118809523Y-80185846D01*
X120142856Y-80757275D02*
X120142856Y-80233465D01*
X120142856Y-80233465D02*
X120095237Y-80138227D01*
X120095237Y-80138227D02*
X119999999Y-80090608D01*
X119999999Y-80090608D02*
X119809523Y-80090608D01*
X119809523Y-80090608D02*
X119714285Y-80138227D01*
X120142856Y-80709656D02*
X120047618Y-80757275D01*
X120047618Y-80757275D02*
X119809523Y-80757275D01*
X119809523Y-80757275D02*
X119714285Y-80709656D01*
X119714285Y-80709656D02*
X119666666Y-80614417D01*
X119666666Y-80614417D02*
X119666666Y-80519179D01*
X119666666Y-80519179D02*
X119714285Y-80423941D01*
X119714285Y-80423941D02*
X119809523Y-80376322D01*
X119809523Y-80376322D02*
X120047618Y-80376322D01*
X120047618Y-80376322D02*
X120142856Y-80328703D01*
X120619047Y-80090608D02*
X120619047Y-80757275D01*
X120619047Y-80185846D02*
X120666666Y-80138227D01*
X120666666Y-80138227D02*
X120761904Y-80090608D01*
X120761904Y-80090608D02*
X120904761Y-80090608D01*
X120904761Y-80090608D02*
X120999999Y-80138227D01*
X120999999Y-80138227D02*
X121047618Y-80233465D01*
X121047618Y-80233465D02*
X121047618Y-80757275D01*
X121904761Y-80709656D02*
X121809523Y-80757275D01*
X121809523Y-80757275D02*
X121619047Y-80757275D01*
X121619047Y-80757275D02*
X121523809Y-80709656D01*
X121523809Y-80709656D02*
X121476190Y-80614417D01*
X121476190Y-80614417D02*
X121476190Y-80233465D01*
X121476190Y-80233465D02*
X121523809Y-80138227D01*
X121523809Y-80138227D02*
X121619047Y-80090608D01*
X121619047Y-80090608D02*
X121809523Y-80090608D01*
X121809523Y-80090608D02*
X121904761Y-80138227D01*
X121904761Y-80138227D02*
X121952380Y-80233465D01*
X121952380Y-80233465D02*
X121952380Y-80328703D01*
X121952380Y-80328703D02*
X121476190Y-80423941D01*
X123142857Y-80757275D02*
X123142857Y-79757275D01*
X123142857Y-79757275D02*
X123476190Y-80471560D01*
X123476190Y-80471560D02*
X123809523Y-79757275D01*
X123809523Y-79757275D02*
X123809523Y-80757275D01*
X124714285Y-80090608D02*
X124714285Y-80757275D01*
X124285714Y-80090608D02*
X124285714Y-80614417D01*
X124285714Y-80614417D02*
X124333333Y-80709656D01*
X124333333Y-80709656D02*
X124428571Y-80757275D01*
X124428571Y-80757275D02*
X124571428Y-80757275D01*
X124571428Y-80757275D02*
X124666666Y-80709656D01*
X124666666Y-80709656D02*
X124714285Y-80662036D01*
X125333333Y-80757275D02*
X125238095Y-80709656D01*
X125238095Y-80709656D02*
X125190476Y-80614417D01*
X125190476Y-80614417D02*
X125190476Y-79757275D01*
X125857143Y-80757275D02*
X125761905Y-80709656D01*
X125761905Y-80709656D02*
X125714286Y-80614417D01*
X125714286Y-80614417D02*
X125714286Y-79757275D01*
X126238096Y-80757275D02*
X126238096Y-80090608D01*
X126238096Y-79757275D02*
X126190477Y-79804894D01*
X126190477Y-79804894D02*
X126238096Y-79852513D01*
X126238096Y-79852513D02*
X126285715Y-79804894D01*
X126285715Y-79804894D02*
X126238096Y-79757275D01*
X126238096Y-79757275D02*
X126238096Y-79852513D01*
X126714286Y-80090608D02*
X126714286Y-80757275D01*
X126714286Y-80185846D02*
X126761905Y-80138227D01*
X126761905Y-80138227D02*
X126857143Y-80090608D01*
X126857143Y-80090608D02*
X127000000Y-80090608D01*
X127000000Y-80090608D02*
X127095238Y-80138227D01*
X127095238Y-80138227D02*
X127142857Y-80233465D01*
X127142857Y-80233465D02*
X127142857Y-80757275D01*
X120785714Y-81462457D02*
X120833333Y-81414838D01*
X120833333Y-81414838D02*
X120928571Y-81367219D01*
X120928571Y-81367219D02*
X121166666Y-81367219D01*
X121166666Y-81367219D02*
X121261904Y-81414838D01*
X121261904Y-81414838D02*
X121309523Y-81462457D01*
X121309523Y-81462457D02*
X121357142Y-81557695D01*
X121357142Y-81557695D02*
X121357142Y-81652933D01*
X121357142Y-81652933D02*
X121309523Y-81795790D01*
X121309523Y-81795790D02*
X120738095Y-82367219D01*
X120738095Y-82367219D02*
X121357142Y-82367219D01*
X121976190Y-81367219D02*
X122071428Y-81367219D01*
X122071428Y-81367219D02*
X122166666Y-81414838D01*
X122166666Y-81414838D02*
X122214285Y-81462457D01*
X122214285Y-81462457D02*
X122261904Y-81557695D01*
X122261904Y-81557695D02*
X122309523Y-81748171D01*
X122309523Y-81748171D02*
X122309523Y-81986266D01*
X122309523Y-81986266D02*
X122261904Y-82176742D01*
X122261904Y-82176742D02*
X122214285Y-82271980D01*
X122214285Y-82271980D02*
X122166666Y-82319600D01*
X122166666Y-82319600D02*
X122071428Y-82367219D01*
X122071428Y-82367219D02*
X121976190Y-82367219D01*
X121976190Y-82367219D02*
X121880952Y-82319600D01*
X121880952Y-82319600D02*
X121833333Y-82271980D01*
X121833333Y-82271980D02*
X121785714Y-82176742D01*
X121785714Y-82176742D02*
X121738095Y-81986266D01*
X121738095Y-81986266D02*
X121738095Y-81748171D01*
X121738095Y-81748171D02*
X121785714Y-81557695D01*
X121785714Y-81557695D02*
X121833333Y-81462457D01*
X121833333Y-81462457D02*
X121880952Y-81414838D01*
X121880952Y-81414838D02*
X121976190Y-81367219D01*
X122690476Y-81462457D02*
X122738095Y-81414838D01*
X122738095Y-81414838D02*
X122833333Y-81367219D01*
X122833333Y-81367219D02*
X123071428Y-81367219D01*
X123071428Y-81367219D02*
X123166666Y-81414838D01*
X123166666Y-81414838D02*
X123214285Y-81462457D01*
X123214285Y-81462457D02*
X123261904Y-81557695D01*
X123261904Y-81557695D02*
X123261904Y-81652933D01*
X123261904Y-81652933D02*
X123214285Y-81795790D01*
X123214285Y-81795790D02*
X122642857Y-82367219D01*
X122642857Y-82367219D02*
X123261904Y-82367219D01*
X124119047Y-81367219D02*
X123928571Y-81367219D01*
X123928571Y-81367219D02*
X123833333Y-81414838D01*
X123833333Y-81414838D02*
X123785714Y-81462457D01*
X123785714Y-81462457D02*
X123690476Y-81605314D01*
X123690476Y-81605314D02*
X123642857Y-81795790D01*
X123642857Y-81795790D02*
X123642857Y-82176742D01*
X123642857Y-82176742D02*
X123690476Y-82271980D01*
X123690476Y-82271980D02*
X123738095Y-82319600D01*
X123738095Y-82319600D02*
X123833333Y-82367219D01*
X123833333Y-82367219D02*
X124023809Y-82367219D01*
X124023809Y-82367219D02*
X124119047Y-82319600D01*
X124119047Y-82319600D02*
X124166666Y-82271980D01*
X124166666Y-82271980D02*
X124214285Y-82176742D01*
X124214285Y-82176742D02*
X124214285Y-81938647D01*
X124214285Y-81938647D02*
X124166666Y-81843409D01*
X124166666Y-81843409D02*
X124119047Y-81795790D01*
X124119047Y-81795790D02*
X124023809Y-81748171D01*
X124023809Y-81748171D02*
X123833333Y-81748171D01*
X123833333Y-81748171D02*
X123738095Y-81795790D01*
X123738095Y-81795790D02*
X123690476Y-81843409D01*
X123690476Y-81843409D02*
X123642857Y-81938647D01*
D13*
X99190476Y-78034819D02*
X99190476Y-78749104D01*
X99190476Y-78749104D02*
X99142857Y-78891961D01*
X99142857Y-78891961D02*
X99047619Y-78987200D01*
X99047619Y-78987200D02*
X98904762Y-79034819D01*
X98904762Y-79034819D02*
X98809524Y-79034819D01*
X100190476Y-79034819D02*
X99619048Y-79034819D01*
X99904762Y-79034819D02*
X99904762Y-78034819D01*
X99904762Y-78034819D02*
X99809524Y-78177676D01*
X99809524Y-78177676D02*
X99714286Y-78272914D01*
X99714286Y-78272914D02*
X99619048Y-78320533D01*
X100571429Y-78130057D02*
X100619048Y-78082438D01*
X100619048Y-78082438D02*
X100714286Y-78034819D01*
X100714286Y-78034819D02*
X100952381Y-78034819D01*
X100952381Y-78034819D02*
X101047619Y-78082438D01*
X101047619Y-78082438D02*
X101095238Y-78130057D01*
X101095238Y-78130057D02*
X101142857Y-78225295D01*
X101142857Y-78225295D02*
X101142857Y-78320533D01*
X101142857Y-78320533D02*
X101095238Y-78463390D01*
X101095238Y-78463390D02*
X100523810Y-79034819D01*
X100523810Y-79034819D02*
X101142857Y-79034819D01*
X115516666Y-113154819D02*
X115516666Y-113869104D01*
X115516666Y-113869104D02*
X115469047Y-114011961D01*
X115469047Y-114011961D02*
X115373809Y-114107200D01*
X115373809Y-114107200D02*
X115230952Y-114154819D01*
X115230952Y-114154819D02*
X115135714Y-114154819D01*
X115992857Y-114154819D02*
X115992857Y-113154819D01*
X115992857Y-113154819D02*
X116373809Y-113154819D01*
X116373809Y-113154819D02*
X116469047Y-113202438D01*
X116469047Y-113202438D02*
X116516666Y-113250057D01*
X116516666Y-113250057D02*
X116564285Y-113345295D01*
X116564285Y-113345295D02*
X116564285Y-113488152D01*
X116564285Y-113488152D02*
X116516666Y-113583390D01*
X116516666Y-113583390D02*
X116469047Y-113631009D01*
X116469047Y-113631009D02*
X116373809Y-113678628D01*
X116373809Y-113678628D02*
X115992857Y-113678628D01*
X117516666Y-114154819D02*
X116945238Y-114154819D01*
X117230952Y-114154819D02*
X117230952Y-113154819D01*
X117230952Y-113154819D02*
X117135714Y-113297676D01*
X117135714Y-113297676D02*
X117040476Y-113392914D01*
X117040476Y-113392914D02*
X116945238Y-113440533D01*
X136666666Y-96074819D02*
X136666666Y-96789104D01*
X136666666Y-96789104D02*
X136619047Y-96931961D01*
X136619047Y-96931961D02*
X136523809Y-97027200D01*
X136523809Y-97027200D02*
X136380952Y-97074819D01*
X136380952Y-97074819D02*
X136285714Y-97074819D01*
X137571428Y-96408152D02*
X137571428Y-97074819D01*
X137333333Y-96027200D02*
X137095238Y-96741485D01*
X137095238Y-96741485D02*
X137714285Y-96741485D01*
X103804819Y-109166666D02*
X103328628Y-109499999D01*
X103804819Y-109738094D02*
X102804819Y-109738094D01*
X102804819Y-109738094D02*
X102804819Y-109357142D01*
X102804819Y-109357142D02*
X102852438Y-109261904D01*
X102852438Y-109261904D02*
X102900057Y-109214285D01*
X102900057Y-109214285D02*
X102995295Y-109166666D01*
X102995295Y-109166666D02*
X103138152Y-109166666D01*
X103138152Y-109166666D02*
X103233390Y-109214285D01*
X103233390Y-109214285D02*
X103281009Y-109261904D01*
X103281009Y-109261904D02*
X103328628Y-109357142D01*
X103328628Y-109357142D02*
X103328628Y-109738094D01*
X103804819Y-108214285D02*
X103804819Y-108785713D01*
X103804819Y-108499999D02*
X102804819Y-108499999D01*
X102804819Y-108499999D02*
X102947676Y-108595237D01*
X102947676Y-108595237D02*
X103042914Y-108690475D01*
X103042914Y-108690475D02*
X103090533Y-108785713D01*
X59214285Y-96804819D02*
X58880952Y-96328628D01*
X58642857Y-96804819D02*
X58642857Y-95804819D01*
X58642857Y-95804819D02*
X59023809Y-95804819D01*
X59023809Y-95804819D02*
X59119047Y-95852438D01*
X59119047Y-95852438D02*
X59166666Y-95900057D01*
X59166666Y-95900057D02*
X59214285Y-95995295D01*
X59214285Y-95995295D02*
X59214285Y-96138152D01*
X59214285Y-96138152D02*
X59166666Y-96233390D01*
X59166666Y-96233390D02*
X59119047Y-96281009D01*
X59119047Y-96281009D02*
X59023809Y-96328628D01*
X59023809Y-96328628D02*
X58642857Y-96328628D01*
X59785714Y-96804819D02*
X59690476Y-96757200D01*
X59690476Y-96757200D02*
X59642857Y-96661961D01*
X59642857Y-96661961D02*
X59642857Y-95804819D01*
X60309524Y-96804819D02*
X60214286Y-96757200D01*
X60214286Y-96757200D02*
X60166667Y-96709580D01*
X60166667Y-96709580D02*
X60119048Y-96614342D01*
X60119048Y-96614342D02*
X60119048Y-96328628D01*
X60119048Y-96328628D02*
X60166667Y-96233390D01*
X60166667Y-96233390D02*
X60214286Y-96185771D01*
X60214286Y-96185771D02*
X60309524Y-96138152D01*
X60309524Y-96138152D02*
X60452381Y-96138152D01*
X60452381Y-96138152D02*
X60547619Y-96185771D01*
X60547619Y-96185771D02*
X60595238Y-96233390D01*
X60595238Y-96233390D02*
X60642857Y-96328628D01*
X60642857Y-96328628D02*
X60642857Y-96614342D01*
X60642857Y-96614342D02*
X60595238Y-96709580D01*
X60595238Y-96709580D02*
X60547619Y-96757200D01*
X60547619Y-96757200D02*
X60452381Y-96804819D01*
X60452381Y-96804819D02*
X60309524Y-96804819D01*
X61500000Y-96804819D02*
X61500000Y-96281009D01*
X61500000Y-96281009D02*
X61452381Y-96185771D01*
X61452381Y-96185771D02*
X61357143Y-96138152D01*
X61357143Y-96138152D02*
X61166667Y-96138152D01*
X61166667Y-96138152D02*
X61071429Y-96185771D01*
X61500000Y-96757200D02*
X61404762Y-96804819D01*
X61404762Y-96804819D02*
X61166667Y-96804819D01*
X61166667Y-96804819D02*
X61071429Y-96757200D01*
X61071429Y-96757200D02*
X61023810Y-96661961D01*
X61023810Y-96661961D02*
X61023810Y-96566723D01*
X61023810Y-96566723D02*
X61071429Y-96471485D01*
X61071429Y-96471485D02*
X61166667Y-96423866D01*
X61166667Y-96423866D02*
X61404762Y-96423866D01*
X61404762Y-96423866D02*
X61500000Y-96376247D01*
X62404762Y-96804819D02*
X62404762Y-95804819D01*
X62404762Y-96757200D02*
X62309524Y-96804819D01*
X62309524Y-96804819D02*
X62119048Y-96804819D01*
X62119048Y-96804819D02*
X62023810Y-96757200D01*
X62023810Y-96757200D02*
X61976191Y-96709580D01*
X61976191Y-96709580D02*
X61928572Y-96614342D01*
X61928572Y-96614342D02*
X61928572Y-96328628D01*
X61928572Y-96328628D02*
X61976191Y-96233390D01*
X61976191Y-96233390D02*
X62023810Y-96185771D01*
X62023810Y-96185771D02*
X62119048Y-96138152D01*
X62119048Y-96138152D02*
X62309524Y-96138152D01*
X62309524Y-96138152D02*
X62404762Y-96185771D01*
X63404762Y-96804819D02*
X62833334Y-96804819D01*
X63119048Y-96804819D02*
X63119048Y-95804819D01*
X63119048Y-95804819D02*
X63023810Y-95947676D01*
X63023810Y-95947676D02*
X62928572Y-96042914D01*
X62928572Y-96042914D02*
X62833334Y-96090533D01*
X64674819Y-112563333D02*
X65389104Y-112563333D01*
X65389104Y-112563333D02*
X65531961Y-112610952D01*
X65531961Y-112610952D02*
X65627200Y-112706190D01*
X65627200Y-112706190D02*
X65674819Y-112849047D01*
X65674819Y-112849047D02*
X65674819Y-112944285D01*
X64770057Y-112134761D02*
X64722438Y-112087142D01*
X64722438Y-112087142D02*
X64674819Y-111991904D01*
X64674819Y-111991904D02*
X64674819Y-111753809D01*
X64674819Y-111753809D02*
X64722438Y-111658571D01*
X64722438Y-111658571D02*
X64770057Y-111610952D01*
X64770057Y-111610952D02*
X64865295Y-111563333D01*
X64865295Y-111563333D02*
X64960533Y-111563333D01*
X64960533Y-111563333D02*
X65103390Y-111610952D01*
X65103390Y-111610952D02*
X65674819Y-112182380D01*
X65674819Y-112182380D02*
X65674819Y-111563333D01*
X112333333Y-117159580D02*
X112285714Y-117207200D01*
X112285714Y-117207200D02*
X112142857Y-117254819D01*
X112142857Y-117254819D02*
X112047619Y-117254819D01*
X112047619Y-117254819D02*
X111904762Y-117207200D01*
X111904762Y-117207200D02*
X111809524Y-117111961D01*
X111809524Y-117111961D02*
X111761905Y-117016723D01*
X111761905Y-117016723D02*
X111714286Y-116826247D01*
X111714286Y-116826247D02*
X111714286Y-116683390D01*
X111714286Y-116683390D02*
X111761905Y-116492914D01*
X111761905Y-116492914D02*
X111809524Y-116397676D01*
X111809524Y-116397676D02*
X111904762Y-116302438D01*
X111904762Y-116302438D02*
X112047619Y-116254819D01*
X112047619Y-116254819D02*
X112142857Y-116254819D01*
X112142857Y-116254819D02*
X112285714Y-116302438D01*
X112285714Y-116302438D02*
X112333333Y-116350057D01*
X112714286Y-116350057D02*
X112761905Y-116302438D01*
X112761905Y-116302438D02*
X112857143Y-116254819D01*
X112857143Y-116254819D02*
X113095238Y-116254819D01*
X113095238Y-116254819D02*
X113190476Y-116302438D01*
X113190476Y-116302438D02*
X113238095Y-116350057D01*
X113238095Y-116350057D02*
X113285714Y-116445295D01*
X113285714Y-116445295D02*
X113285714Y-116540533D01*
X113285714Y-116540533D02*
X113238095Y-116683390D01*
X113238095Y-116683390D02*
X112666667Y-117254819D01*
X112666667Y-117254819D02*
X113285714Y-117254819D01*
X80247640Y-94842908D02*
X79438117Y-94842908D01*
X79438117Y-94842908D02*
X79342879Y-94890527D01*
X79342879Y-94890527D02*
X79295260Y-94938146D01*
X79295260Y-94938146D02*
X79247640Y-95033384D01*
X79247640Y-95033384D02*
X79247640Y-95223860D01*
X79247640Y-95223860D02*
X79295260Y-95319098D01*
X79295260Y-95319098D02*
X79342879Y-95366717D01*
X79342879Y-95366717D02*
X79438117Y-95414336D01*
X79438117Y-95414336D02*
X80247640Y-95414336D01*
X79247640Y-96414336D02*
X79247640Y-95842908D01*
X79247640Y-96128622D02*
X80247640Y-96128622D01*
X80247640Y-96128622D02*
X80104783Y-96033384D01*
X80104783Y-96033384D02*
X80009545Y-95938146D01*
X80009545Y-95938146D02*
X79961926Y-95842908D01*
D12*
X67757693Y-78848609D02*
X68124360Y-78848609D01*
X68281503Y-79372419D02*
X67757693Y-79372419D01*
X67757693Y-79372419D02*
X67757693Y-78372419D01*
X67757693Y-78372419D02*
X68281503Y-78372419D01*
X68752931Y-79372419D02*
X68752931Y-78372419D01*
X68752931Y-78372419D02*
X69381503Y-79372419D01*
X69381503Y-79372419D02*
X69381503Y-78372419D01*
X68333884Y-80920038D02*
X68229122Y-80872419D01*
X68229122Y-80872419D02*
X68071979Y-80872419D01*
X68071979Y-80872419D02*
X67914836Y-80920038D01*
X67914836Y-80920038D02*
X67810074Y-81015276D01*
X67810074Y-81015276D02*
X67757693Y-81110514D01*
X67757693Y-81110514D02*
X67705312Y-81300990D01*
X67705312Y-81300990D02*
X67705312Y-81443847D01*
X67705312Y-81443847D02*
X67757693Y-81634323D01*
X67757693Y-81634323D02*
X67810074Y-81729561D01*
X67810074Y-81729561D02*
X67914836Y-81824800D01*
X67914836Y-81824800D02*
X68071979Y-81872419D01*
X68071979Y-81872419D02*
X68176741Y-81872419D01*
X68176741Y-81872419D02*
X68333884Y-81824800D01*
X68333884Y-81824800D02*
X68386265Y-81777180D01*
X68386265Y-81777180D02*
X68386265Y-81443847D01*
X68386265Y-81443847D02*
X68176741Y-81443847D01*
X68857693Y-81872419D02*
X68857693Y-80872419D01*
X68857693Y-80872419D02*
X69276741Y-80872419D01*
X69276741Y-80872419D02*
X69381503Y-80920038D01*
X69381503Y-80920038D02*
X69433884Y-80967657D01*
X69433884Y-80967657D02*
X69486265Y-81062895D01*
X69486265Y-81062895D02*
X69486265Y-81205752D01*
X69486265Y-81205752D02*
X69433884Y-81300990D01*
X69433884Y-81300990D02*
X69381503Y-81348609D01*
X69381503Y-81348609D02*
X69276741Y-81396228D01*
X69276741Y-81396228D02*
X68857693Y-81396228D01*
X69957693Y-81872419D02*
X69957693Y-80872419D01*
X70691027Y-80872419D02*
X70900551Y-80872419D01*
X70900551Y-80872419D02*
X71005313Y-80920038D01*
X71005313Y-80920038D02*
X71110075Y-81015276D01*
X71110075Y-81015276D02*
X71162456Y-81205752D01*
X71162456Y-81205752D02*
X71162456Y-81539085D01*
X71162456Y-81539085D02*
X71110075Y-81729561D01*
X71110075Y-81729561D02*
X71005313Y-81824800D01*
X71005313Y-81824800D02*
X70900551Y-81872419D01*
X70900551Y-81872419D02*
X70691027Y-81872419D01*
X70691027Y-81872419D02*
X70586265Y-81824800D01*
X70586265Y-81824800D02*
X70481503Y-81729561D01*
X70481503Y-81729561D02*
X70429122Y-81539085D01*
X70429122Y-81539085D02*
X70429122Y-81205752D01*
X70429122Y-81205752D02*
X70481503Y-81015276D01*
X70481503Y-81015276D02*
X70586265Y-80920038D01*
X70586265Y-80920038D02*
X70691027Y-80872419D01*
X71529122Y-80872419D02*
X72210075Y-80872419D01*
X72210075Y-80872419D02*
X71843408Y-81253371D01*
X71843408Y-81253371D02*
X72000551Y-81253371D01*
X72000551Y-81253371D02*
X72105313Y-81300990D01*
X72105313Y-81300990D02*
X72157694Y-81348609D01*
X72157694Y-81348609D02*
X72210075Y-81443847D01*
X72210075Y-81443847D02*
X72210075Y-81681942D01*
X72210075Y-81681942D02*
X72157694Y-81777180D01*
X72157694Y-81777180D02*
X72105313Y-81824800D01*
X72105313Y-81824800D02*
X72000551Y-81872419D01*
X72000551Y-81872419D02*
X71686265Y-81872419D01*
X71686265Y-81872419D02*
X71581503Y-81824800D01*
X71581503Y-81824800D02*
X71529122Y-81777180D01*
X73152932Y-80872419D02*
X72943408Y-80872419D01*
X72943408Y-80872419D02*
X72838646Y-80920038D01*
X72838646Y-80920038D02*
X72786265Y-80967657D01*
X72786265Y-80967657D02*
X72681503Y-81110514D01*
X72681503Y-81110514D02*
X72629122Y-81300990D01*
X72629122Y-81300990D02*
X72629122Y-81681942D01*
X72629122Y-81681942D02*
X72681503Y-81777180D01*
X72681503Y-81777180D02*
X72733884Y-81824800D01*
X72733884Y-81824800D02*
X72838646Y-81872419D01*
X72838646Y-81872419D02*
X73048170Y-81872419D01*
X73048170Y-81872419D02*
X73152932Y-81824800D01*
X73152932Y-81824800D02*
X73205313Y-81777180D01*
X73205313Y-81777180D02*
X73257694Y-81681942D01*
X73257694Y-81681942D02*
X73257694Y-81443847D01*
X73257694Y-81443847D02*
X73205313Y-81348609D01*
X73205313Y-81348609D02*
X73152932Y-81300990D01*
X73152932Y-81300990D02*
X73048170Y-81253371D01*
X73048170Y-81253371D02*
X72838646Y-81253371D01*
X72838646Y-81253371D02*
X72733884Y-81300990D01*
X72733884Y-81300990D02*
X72681503Y-81348609D01*
X72681503Y-81348609D02*
X72629122Y-81443847D01*
X68333884Y-83420038D02*
X68229122Y-83372419D01*
X68229122Y-83372419D02*
X68071979Y-83372419D01*
X68071979Y-83372419D02*
X67914836Y-83420038D01*
X67914836Y-83420038D02*
X67810074Y-83515276D01*
X67810074Y-83515276D02*
X67757693Y-83610514D01*
X67757693Y-83610514D02*
X67705312Y-83800990D01*
X67705312Y-83800990D02*
X67705312Y-83943847D01*
X67705312Y-83943847D02*
X67757693Y-84134323D01*
X67757693Y-84134323D02*
X67810074Y-84229561D01*
X67810074Y-84229561D02*
X67914836Y-84324800D01*
X67914836Y-84324800D02*
X68071979Y-84372419D01*
X68071979Y-84372419D02*
X68176741Y-84372419D01*
X68176741Y-84372419D02*
X68333884Y-84324800D01*
X68333884Y-84324800D02*
X68386265Y-84277180D01*
X68386265Y-84277180D02*
X68386265Y-83943847D01*
X68386265Y-83943847D02*
X68176741Y-83943847D01*
X68857693Y-84372419D02*
X68857693Y-83372419D01*
X68857693Y-83372419D02*
X69276741Y-83372419D01*
X69276741Y-83372419D02*
X69381503Y-83420038D01*
X69381503Y-83420038D02*
X69433884Y-83467657D01*
X69433884Y-83467657D02*
X69486265Y-83562895D01*
X69486265Y-83562895D02*
X69486265Y-83705752D01*
X69486265Y-83705752D02*
X69433884Y-83800990D01*
X69433884Y-83800990D02*
X69381503Y-83848609D01*
X69381503Y-83848609D02*
X69276741Y-83896228D01*
X69276741Y-83896228D02*
X68857693Y-83896228D01*
X69957693Y-84372419D02*
X69957693Y-83372419D01*
X70691027Y-83372419D02*
X70900551Y-83372419D01*
X70900551Y-83372419D02*
X71005313Y-83420038D01*
X71005313Y-83420038D02*
X71110075Y-83515276D01*
X71110075Y-83515276D02*
X71162456Y-83705752D01*
X71162456Y-83705752D02*
X71162456Y-84039085D01*
X71162456Y-84039085D02*
X71110075Y-84229561D01*
X71110075Y-84229561D02*
X71005313Y-84324800D01*
X71005313Y-84324800D02*
X70900551Y-84372419D01*
X70900551Y-84372419D02*
X70691027Y-84372419D01*
X70691027Y-84372419D02*
X70586265Y-84324800D01*
X70586265Y-84324800D02*
X70481503Y-84229561D01*
X70481503Y-84229561D02*
X70429122Y-84039085D01*
X70429122Y-84039085D02*
X70429122Y-83705752D01*
X70429122Y-83705752D02*
X70481503Y-83515276D01*
X70481503Y-83515276D02*
X70586265Y-83420038D01*
X70586265Y-83420038D02*
X70691027Y-83372419D01*
X71529122Y-83372419D02*
X72210075Y-83372419D01*
X72210075Y-83372419D02*
X71843408Y-83753371D01*
X71843408Y-83753371D02*
X72000551Y-83753371D01*
X72000551Y-83753371D02*
X72105313Y-83800990D01*
X72105313Y-83800990D02*
X72157694Y-83848609D01*
X72157694Y-83848609D02*
X72210075Y-83943847D01*
X72210075Y-83943847D02*
X72210075Y-84181942D01*
X72210075Y-84181942D02*
X72157694Y-84277180D01*
X72157694Y-84277180D02*
X72105313Y-84324800D01*
X72105313Y-84324800D02*
X72000551Y-84372419D01*
X72000551Y-84372419D02*
X71686265Y-84372419D01*
X71686265Y-84372419D02*
X71581503Y-84324800D01*
X71581503Y-84324800D02*
X71529122Y-84277180D01*
X72733884Y-84372419D02*
X72943408Y-84372419D01*
X72943408Y-84372419D02*
X73048170Y-84324800D01*
X73048170Y-84324800D02*
X73100551Y-84277180D01*
X73100551Y-84277180D02*
X73205313Y-84134323D01*
X73205313Y-84134323D02*
X73257694Y-83943847D01*
X73257694Y-83943847D02*
X73257694Y-83562895D01*
X73257694Y-83562895D02*
X73205313Y-83467657D01*
X73205313Y-83467657D02*
X73152932Y-83420038D01*
X73152932Y-83420038D02*
X73048170Y-83372419D01*
X73048170Y-83372419D02*
X72838646Y-83372419D01*
X72838646Y-83372419D02*
X72733884Y-83420038D01*
X72733884Y-83420038D02*
X72681503Y-83467657D01*
X72681503Y-83467657D02*
X72629122Y-83562895D01*
X72629122Y-83562895D02*
X72629122Y-83800990D01*
X72629122Y-83800990D02*
X72681503Y-83896228D01*
X72681503Y-83896228D02*
X72733884Y-83943847D01*
X72733884Y-83943847D02*
X72838646Y-83991466D01*
X72838646Y-83991466D02*
X73048170Y-83991466D01*
X73048170Y-83991466D02*
X73152932Y-83943847D01*
X73152932Y-83943847D02*
X73205313Y-83896228D01*
X73205313Y-83896228D02*
X73257694Y-83800990D01*
X68333884Y-85920038D02*
X68229122Y-85872419D01*
X68229122Y-85872419D02*
X68071979Y-85872419D01*
X68071979Y-85872419D02*
X67914836Y-85920038D01*
X67914836Y-85920038D02*
X67810074Y-86015276D01*
X67810074Y-86015276D02*
X67757693Y-86110514D01*
X67757693Y-86110514D02*
X67705312Y-86300990D01*
X67705312Y-86300990D02*
X67705312Y-86443847D01*
X67705312Y-86443847D02*
X67757693Y-86634323D01*
X67757693Y-86634323D02*
X67810074Y-86729561D01*
X67810074Y-86729561D02*
X67914836Y-86824800D01*
X67914836Y-86824800D02*
X68071979Y-86872419D01*
X68071979Y-86872419D02*
X68176741Y-86872419D01*
X68176741Y-86872419D02*
X68333884Y-86824800D01*
X68333884Y-86824800D02*
X68386265Y-86777180D01*
X68386265Y-86777180D02*
X68386265Y-86443847D01*
X68386265Y-86443847D02*
X68176741Y-86443847D01*
X68857693Y-86872419D02*
X68857693Y-85872419D01*
X68857693Y-85872419D02*
X69276741Y-85872419D01*
X69276741Y-85872419D02*
X69381503Y-85920038D01*
X69381503Y-85920038D02*
X69433884Y-85967657D01*
X69433884Y-85967657D02*
X69486265Y-86062895D01*
X69486265Y-86062895D02*
X69486265Y-86205752D01*
X69486265Y-86205752D02*
X69433884Y-86300990D01*
X69433884Y-86300990D02*
X69381503Y-86348609D01*
X69381503Y-86348609D02*
X69276741Y-86396228D01*
X69276741Y-86396228D02*
X68857693Y-86396228D01*
X69957693Y-86872419D02*
X69957693Y-85872419D01*
X70691027Y-85872419D02*
X70900551Y-85872419D01*
X70900551Y-85872419D02*
X71005313Y-85920038D01*
X71005313Y-85920038D02*
X71110075Y-86015276D01*
X71110075Y-86015276D02*
X71162456Y-86205752D01*
X71162456Y-86205752D02*
X71162456Y-86539085D01*
X71162456Y-86539085D02*
X71110075Y-86729561D01*
X71110075Y-86729561D02*
X71005313Y-86824800D01*
X71005313Y-86824800D02*
X70900551Y-86872419D01*
X70900551Y-86872419D02*
X70691027Y-86872419D01*
X70691027Y-86872419D02*
X70586265Y-86824800D01*
X70586265Y-86824800D02*
X70481503Y-86729561D01*
X70481503Y-86729561D02*
X70429122Y-86539085D01*
X70429122Y-86539085D02*
X70429122Y-86205752D01*
X70429122Y-86205752D02*
X70481503Y-86015276D01*
X70481503Y-86015276D02*
X70586265Y-85920038D01*
X70586265Y-85920038D02*
X70691027Y-85872419D01*
X71529122Y-85872419D02*
X72210075Y-85872419D01*
X72210075Y-85872419D02*
X71843408Y-86253371D01*
X71843408Y-86253371D02*
X72000551Y-86253371D01*
X72000551Y-86253371D02*
X72105313Y-86300990D01*
X72105313Y-86300990D02*
X72157694Y-86348609D01*
X72157694Y-86348609D02*
X72210075Y-86443847D01*
X72210075Y-86443847D02*
X72210075Y-86681942D01*
X72210075Y-86681942D02*
X72157694Y-86777180D01*
X72157694Y-86777180D02*
X72105313Y-86824800D01*
X72105313Y-86824800D02*
X72000551Y-86872419D01*
X72000551Y-86872419D02*
X71686265Y-86872419D01*
X71686265Y-86872419D02*
X71581503Y-86824800D01*
X71581503Y-86824800D02*
X71529122Y-86777180D01*
X73152932Y-86205752D02*
X73152932Y-86872419D01*
X72891027Y-85824800D02*
X72629122Y-86539085D01*
X72629122Y-86539085D02*
X73310075Y-86539085D01*
X68333884Y-88420038D02*
X68229122Y-88372419D01*
X68229122Y-88372419D02*
X68071979Y-88372419D01*
X68071979Y-88372419D02*
X67914836Y-88420038D01*
X67914836Y-88420038D02*
X67810074Y-88515276D01*
X67810074Y-88515276D02*
X67757693Y-88610514D01*
X67757693Y-88610514D02*
X67705312Y-88800990D01*
X67705312Y-88800990D02*
X67705312Y-88943847D01*
X67705312Y-88943847D02*
X67757693Y-89134323D01*
X67757693Y-89134323D02*
X67810074Y-89229561D01*
X67810074Y-89229561D02*
X67914836Y-89324800D01*
X67914836Y-89324800D02*
X68071979Y-89372419D01*
X68071979Y-89372419D02*
X68176741Y-89372419D01*
X68176741Y-89372419D02*
X68333884Y-89324800D01*
X68333884Y-89324800D02*
X68386265Y-89277180D01*
X68386265Y-89277180D02*
X68386265Y-88943847D01*
X68386265Y-88943847D02*
X68176741Y-88943847D01*
X68857693Y-89372419D02*
X68857693Y-88372419D01*
X68857693Y-88372419D02*
X69276741Y-88372419D01*
X69276741Y-88372419D02*
X69381503Y-88420038D01*
X69381503Y-88420038D02*
X69433884Y-88467657D01*
X69433884Y-88467657D02*
X69486265Y-88562895D01*
X69486265Y-88562895D02*
X69486265Y-88705752D01*
X69486265Y-88705752D02*
X69433884Y-88800990D01*
X69433884Y-88800990D02*
X69381503Y-88848609D01*
X69381503Y-88848609D02*
X69276741Y-88896228D01*
X69276741Y-88896228D02*
X68857693Y-88896228D01*
X69957693Y-89372419D02*
X69957693Y-88372419D01*
X70691027Y-88372419D02*
X70900551Y-88372419D01*
X70900551Y-88372419D02*
X71005313Y-88420038D01*
X71005313Y-88420038D02*
X71110075Y-88515276D01*
X71110075Y-88515276D02*
X71162456Y-88705752D01*
X71162456Y-88705752D02*
X71162456Y-89039085D01*
X71162456Y-89039085D02*
X71110075Y-89229561D01*
X71110075Y-89229561D02*
X71005313Y-89324800D01*
X71005313Y-89324800D02*
X70900551Y-89372419D01*
X70900551Y-89372419D02*
X70691027Y-89372419D01*
X70691027Y-89372419D02*
X70586265Y-89324800D01*
X70586265Y-89324800D02*
X70481503Y-89229561D01*
X70481503Y-89229561D02*
X70429122Y-89039085D01*
X70429122Y-89039085D02*
X70429122Y-88705752D01*
X70429122Y-88705752D02*
X70481503Y-88515276D01*
X70481503Y-88515276D02*
X70586265Y-88420038D01*
X70586265Y-88420038D02*
X70691027Y-88372419D01*
X71529122Y-88372419D02*
X72210075Y-88372419D01*
X72210075Y-88372419D02*
X71843408Y-88753371D01*
X71843408Y-88753371D02*
X72000551Y-88753371D01*
X72000551Y-88753371D02*
X72105313Y-88800990D01*
X72105313Y-88800990D02*
X72157694Y-88848609D01*
X72157694Y-88848609D02*
X72210075Y-88943847D01*
X72210075Y-88943847D02*
X72210075Y-89181942D01*
X72210075Y-89181942D02*
X72157694Y-89277180D01*
X72157694Y-89277180D02*
X72105313Y-89324800D01*
X72105313Y-89324800D02*
X72000551Y-89372419D01*
X72000551Y-89372419D02*
X71686265Y-89372419D01*
X71686265Y-89372419D02*
X71581503Y-89324800D01*
X71581503Y-89324800D02*
X71529122Y-89277180D01*
X73205313Y-88372419D02*
X72681503Y-88372419D01*
X72681503Y-88372419D02*
X72629122Y-88848609D01*
X72629122Y-88848609D02*
X72681503Y-88800990D01*
X72681503Y-88800990D02*
X72786265Y-88753371D01*
X72786265Y-88753371D02*
X73048170Y-88753371D01*
X73048170Y-88753371D02*
X73152932Y-88800990D01*
X73152932Y-88800990D02*
X73205313Y-88848609D01*
X73205313Y-88848609D02*
X73257694Y-88943847D01*
X73257694Y-88943847D02*
X73257694Y-89181942D01*
X73257694Y-89181942D02*
X73205313Y-89277180D01*
X73205313Y-89277180D02*
X73152932Y-89324800D01*
X73152932Y-89324800D02*
X73048170Y-89372419D01*
X73048170Y-89372419D02*
X72786265Y-89372419D01*
X72786265Y-89372419D02*
X72681503Y-89324800D01*
X72681503Y-89324800D02*
X72629122Y-89277180D01*
X68333884Y-90920038D02*
X68229122Y-90872419D01*
X68229122Y-90872419D02*
X68071979Y-90872419D01*
X68071979Y-90872419D02*
X67914836Y-90920038D01*
X67914836Y-90920038D02*
X67810074Y-91015276D01*
X67810074Y-91015276D02*
X67757693Y-91110514D01*
X67757693Y-91110514D02*
X67705312Y-91300990D01*
X67705312Y-91300990D02*
X67705312Y-91443847D01*
X67705312Y-91443847D02*
X67757693Y-91634323D01*
X67757693Y-91634323D02*
X67810074Y-91729561D01*
X67810074Y-91729561D02*
X67914836Y-91824800D01*
X67914836Y-91824800D02*
X68071979Y-91872419D01*
X68071979Y-91872419D02*
X68176741Y-91872419D01*
X68176741Y-91872419D02*
X68333884Y-91824800D01*
X68333884Y-91824800D02*
X68386265Y-91777180D01*
X68386265Y-91777180D02*
X68386265Y-91443847D01*
X68386265Y-91443847D02*
X68176741Y-91443847D01*
X68857693Y-91872419D02*
X68857693Y-90872419D01*
X68857693Y-90872419D02*
X69276741Y-90872419D01*
X69276741Y-90872419D02*
X69381503Y-90920038D01*
X69381503Y-90920038D02*
X69433884Y-90967657D01*
X69433884Y-90967657D02*
X69486265Y-91062895D01*
X69486265Y-91062895D02*
X69486265Y-91205752D01*
X69486265Y-91205752D02*
X69433884Y-91300990D01*
X69433884Y-91300990D02*
X69381503Y-91348609D01*
X69381503Y-91348609D02*
X69276741Y-91396228D01*
X69276741Y-91396228D02*
X68857693Y-91396228D01*
X69957693Y-91872419D02*
X69957693Y-90872419D01*
X70691027Y-90872419D02*
X70900551Y-90872419D01*
X70900551Y-90872419D02*
X71005313Y-90920038D01*
X71005313Y-90920038D02*
X71110075Y-91015276D01*
X71110075Y-91015276D02*
X71162456Y-91205752D01*
X71162456Y-91205752D02*
X71162456Y-91539085D01*
X71162456Y-91539085D02*
X71110075Y-91729561D01*
X71110075Y-91729561D02*
X71005313Y-91824800D01*
X71005313Y-91824800D02*
X70900551Y-91872419D01*
X70900551Y-91872419D02*
X70691027Y-91872419D01*
X70691027Y-91872419D02*
X70586265Y-91824800D01*
X70586265Y-91824800D02*
X70481503Y-91729561D01*
X70481503Y-91729561D02*
X70429122Y-91539085D01*
X70429122Y-91539085D02*
X70429122Y-91205752D01*
X70429122Y-91205752D02*
X70481503Y-91015276D01*
X70481503Y-91015276D02*
X70586265Y-90920038D01*
X70586265Y-90920038D02*
X70691027Y-90872419D01*
X71529122Y-90872419D02*
X72210075Y-90872419D01*
X72210075Y-90872419D02*
X71843408Y-91253371D01*
X71843408Y-91253371D02*
X72000551Y-91253371D01*
X72000551Y-91253371D02*
X72105313Y-91300990D01*
X72105313Y-91300990D02*
X72157694Y-91348609D01*
X72157694Y-91348609D02*
X72210075Y-91443847D01*
X72210075Y-91443847D02*
X72210075Y-91681942D01*
X72210075Y-91681942D02*
X72157694Y-91777180D01*
X72157694Y-91777180D02*
X72105313Y-91824800D01*
X72105313Y-91824800D02*
X72000551Y-91872419D01*
X72000551Y-91872419D02*
X71686265Y-91872419D01*
X71686265Y-91872419D02*
X71581503Y-91824800D01*
X71581503Y-91824800D02*
X71529122Y-91777180D01*
X72629122Y-90967657D02*
X72681503Y-90920038D01*
X72681503Y-90920038D02*
X72786265Y-90872419D01*
X72786265Y-90872419D02*
X73048170Y-90872419D01*
X73048170Y-90872419D02*
X73152932Y-90920038D01*
X73152932Y-90920038D02*
X73205313Y-90967657D01*
X73205313Y-90967657D02*
X73257694Y-91062895D01*
X73257694Y-91062895D02*
X73257694Y-91158133D01*
X73257694Y-91158133D02*
X73205313Y-91300990D01*
X73205313Y-91300990D02*
X72576741Y-91872419D01*
X72576741Y-91872419D02*
X73257694Y-91872419D01*
X68333884Y-93420038D02*
X68229122Y-93372419D01*
X68229122Y-93372419D02*
X68071979Y-93372419D01*
X68071979Y-93372419D02*
X67914836Y-93420038D01*
X67914836Y-93420038D02*
X67810074Y-93515276D01*
X67810074Y-93515276D02*
X67757693Y-93610514D01*
X67757693Y-93610514D02*
X67705312Y-93800990D01*
X67705312Y-93800990D02*
X67705312Y-93943847D01*
X67705312Y-93943847D02*
X67757693Y-94134323D01*
X67757693Y-94134323D02*
X67810074Y-94229561D01*
X67810074Y-94229561D02*
X67914836Y-94324800D01*
X67914836Y-94324800D02*
X68071979Y-94372419D01*
X68071979Y-94372419D02*
X68176741Y-94372419D01*
X68176741Y-94372419D02*
X68333884Y-94324800D01*
X68333884Y-94324800D02*
X68386265Y-94277180D01*
X68386265Y-94277180D02*
X68386265Y-93943847D01*
X68386265Y-93943847D02*
X68176741Y-93943847D01*
X68857693Y-94372419D02*
X68857693Y-93372419D01*
X68857693Y-93372419D02*
X69276741Y-93372419D01*
X69276741Y-93372419D02*
X69381503Y-93420038D01*
X69381503Y-93420038D02*
X69433884Y-93467657D01*
X69433884Y-93467657D02*
X69486265Y-93562895D01*
X69486265Y-93562895D02*
X69486265Y-93705752D01*
X69486265Y-93705752D02*
X69433884Y-93800990D01*
X69433884Y-93800990D02*
X69381503Y-93848609D01*
X69381503Y-93848609D02*
X69276741Y-93896228D01*
X69276741Y-93896228D02*
X68857693Y-93896228D01*
X69957693Y-94372419D02*
X69957693Y-93372419D01*
X70691027Y-93372419D02*
X70900551Y-93372419D01*
X70900551Y-93372419D02*
X71005313Y-93420038D01*
X71005313Y-93420038D02*
X71110075Y-93515276D01*
X71110075Y-93515276D02*
X71162456Y-93705752D01*
X71162456Y-93705752D02*
X71162456Y-94039085D01*
X71162456Y-94039085D02*
X71110075Y-94229561D01*
X71110075Y-94229561D02*
X71005313Y-94324800D01*
X71005313Y-94324800D02*
X70900551Y-94372419D01*
X70900551Y-94372419D02*
X70691027Y-94372419D01*
X70691027Y-94372419D02*
X70586265Y-94324800D01*
X70586265Y-94324800D02*
X70481503Y-94229561D01*
X70481503Y-94229561D02*
X70429122Y-94039085D01*
X70429122Y-94039085D02*
X70429122Y-93705752D01*
X70429122Y-93705752D02*
X70481503Y-93515276D01*
X70481503Y-93515276D02*
X70586265Y-93420038D01*
X70586265Y-93420038D02*
X70691027Y-93372419D01*
X71529122Y-93372419D02*
X72210075Y-93372419D01*
X72210075Y-93372419D02*
X71843408Y-93753371D01*
X71843408Y-93753371D02*
X72000551Y-93753371D01*
X72000551Y-93753371D02*
X72105313Y-93800990D01*
X72105313Y-93800990D02*
X72157694Y-93848609D01*
X72157694Y-93848609D02*
X72210075Y-93943847D01*
X72210075Y-93943847D02*
X72210075Y-94181942D01*
X72210075Y-94181942D02*
X72157694Y-94277180D01*
X72157694Y-94277180D02*
X72105313Y-94324800D01*
X72105313Y-94324800D02*
X72000551Y-94372419D01*
X72000551Y-94372419D02*
X71686265Y-94372419D01*
X71686265Y-94372419D02*
X71581503Y-94324800D01*
X71581503Y-94324800D02*
X71529122Y-94277180D01*
X72576741Y-93372419D02*
X73257694Y-93372419D01*
X73257694Y-93372419D02*
X72891027Y-93753371D01*
X72891027Y-93753371D02*
X73048170Y-93753371D01*
X73048170Y-93753371D02*
X73152932Y-93800990D01*
X73152932Y-93800990D02*
X73205313Y-93848609D01*
X73205313Y-93848609D02*
X73257694Y-93943847D01*
X73257694Y-93943847D02*
X73257694Y-94181942D01*
X73257694Y-94181942D02*
X73205313Y-94277180D01*
X73205313Y-94277180D02*
X73152932Y-94324800D01*
X73152932Y-94324800D02*
X73048170Y-94372419D01*
X73048170Y-94372419D02*
X72733884Y-94372419D01*
X72733884Y-94372419D02*
X72629122Y-94324800D01*
X72629122Y-94324800D02*
X72576741Y-94277180D01*
X68333884Y-95920038D02*
X68229122Y-95872419D01*
X68229122Y-95872419D02*
X68071979Y-95872419D01*
X68071979Y-95872419D02*
X67914836Y-95920038D01*
X67914836Y-95920038D02*
X67810074Y-96015276D01*
X67810074Y-96015276D02*
X67757693Y-96110514D01*
X67757693Y-96110514D02*
X67705312Y-96300990D01*
X67705312Y-96300990D02*
X67705312Y-96443847D01*
X67705312Y-96443847D02*
X67757693Y-96634323D01*
X67757693Y-96634323D02*
X67810074Y-96729561D01*
X67810074Y-96729561D02*
X67914836Y-96824800D01*
X67914836Y-96824800D02*
X68071979Y-96872419D01*
X68071979Y-96872419D02*
X68176741Y-96872419D01*
X68176741Y-96872419D02*
X68333884Y-96824800D01*
X68333884Y-96824800D02*
X68386265Y-96777180D01*
X68386265Y-96777180D02*
X68386265Y-96443847D01*
X68386265Y-96443847D02*
X68176741Y-96443847D01*
X68857693Y-96872419D02*
X68857693Y-95872419D01*
X68857693Y-95872419D02*
X69276741Y-95872419D01*
X69276741Y-95872419D02*
X69381503Y-95920038D01*
X69381503Y-95920038D02*
X69433884Y-95967657D01*
X69433884Y-95967657D02*
X69486265Y-96062895D01*
X69486265Y-96062895D02*
X69486265Y-96205752D01*
X69486265Y-96205752D02*
X69433884Y-96300990D01*
X69433884Y-96300990D02*
X69381503Y-96348609D01*
X69381503Y-96348609D02*
X69276741Y-96396228D01*
X69276741Y-96396228D02*
X68857693Y-96396228D01*
X69957693Y-96872419D02*
X69957693Y-95872419D01*
X70691027Y-95872419D02*
X70900551Y-95872419D01*
X70900551Y-95872419D02*
X71005313Y-95920038D01*
X71005313Y-95920038D02*
X71110075Y-96015276D01*
X71110075Y-96015276D02*
X71162456Y-96205752D01*
X71162456Y-96205752D02*
X71162456Y-96539085D01*
X71162456Y-96539085D02*
X71110075Y-96729561D01*
X71110075Y-96729561D02*
X71005313Y-96824800D01*
X71005313Y-96824800D02*
X70900551Y-96872419D01*
X70900551Y-96872419D02*
X70691027Y-96872419D01*
X70691027Y-96872419D02*
X70586265Y-96824800D01*
X70586265Y-96824800D02*
X70481503Y-96729561D01*
X70481503Y-96729561D02*
X70429122Y-96539085D01*
X70429122Y-96539085D02*
X70429122Y-96205752D01*
X70429122Y-96205752D02*
X70481503Y-96015276D01*
X70481503Y-96015276D02*
X70586265Y-95920038D01*
X70586265Y-95920038D02*
X70691027Y-95872419D01*
X71581503Y-95967657D02*
X71633884Y-95920038D01*
X71633884Y-95920038D02*
X71738646Y-95872419D01*
X71738646Y-95872419D02*
X72000551Y-95872419D01*
X72000551Y-95872419D02*
X72105313Y-95920038D01*
X72105313Y-95920038D02*
X72157694Y-95967657D01*
X72157694Y-95967657D02*
X72210075Y-96062895D01*
X72210075Y-96062895D02*
X72210075Y-96158133D01*
X72210075Y-96158133D02*
X72157694Y-96300990D01*
X72157694Y-96300990D02*
X71529122Y-96872419D01*
X71529122Y-96872419D02*
X72210075Y-96872419D01*
X73205313Y-95872419D02*
X72681503Y-95872419D01*
X72681503Y-95872419D02*
X72629122Y-96348609D01*
X72629122Y-96348609D02*
X72681503Y-96300990D01*
X72681503Y-96300990D02*
X72786265Y-96253371D01*
X72786265Y-96253371D02*
X73048170Y-96253371D01*
X73048170Y-96253371D02*
X73152932Y-96300990D01*
X73152932Y-96300990D02*
X73205313Y-96348609D01*
X73205313Y-96348609D02*
X73257694Y-96443847D01*
X73257694Y-96443847D02*
X73257694Y-96681942D01*
X73257694Y-96681942D02*
X73205313Y-96777180D01*
X73205313Y-96777180D02*
X73152932Y-96824800D01*
X73152932Y-96824800D02*
X73048170Y-96872419D01*
X73048170Y-96872419D02*
X72786265Y-96872419D01*
X72786265Y-96872419D02*
X72681503Y-96824800D01*
X72681503Y-96824800D02*
X72629122Y-96777180D01*
X68333884Y-98420038D02*
X68229122Y-98372419D01*
X68229122Y-98372419D02*
X68071979Y-98372419D01*
X68071979Y-98372419D02*
X67914836Y-98420038D01*
X67914836Y-98420038D02*
X67810074Y-98515276D01*
X67810074Y-98515276D02*
X67757693Y-98610514D01*
X67757693Y-98610514D02*
X67705312Y-98800990D01*
X67705312Y-98800990D02*
X67705312Y-98943847D01*
X67705312Y-98943847D02*
X67757693Y-99134323D01*
X67757693Y-99134323D02*
X67810074Y-99229561D01*
X67810074Y-99229561D02*
X67914836Y-99324800D01*
X67914836Y-99324800D02*
X68071979Y-99372419D01*
X68071979Y-99372419D02*
X68176741Y-99372419D01*
X68176741Y-99372419D02*
X68333884Y-99324800D01*
X68333884Y-99324800D02*
X68386265Y-99277180D01*
X68386265Y-99277180D02*
X68386265Y-98943847D01*
X68386265Y-98943847D02*
X68176741Y-98943847D01*
X68857693Y-99372419D02*
X68857693Y-98372419D01*
X68857693Y-98372419D02*
X69276741Y-98372419D01*
X69276741Y-98372419D02*
X69381503Y-98420038D01*
X69381503Y-98420038D02*
X69433884Y-98467657D01*
X69433884Y-98467657D02*
X69486265Y-98562895D01*
X69486265Y-98562895D02*
X69486265Y-98705752D01*
X69486265Y-98705752D02*
X69433884Y-98800990D01*
X69433884Y-98800990D02*
X69381503Y-98848609D01*
X69381503Y-98848609D02*
X69276741Y-98896228D01*
X69276741Y-98896228D02*
X68857693Y-98896228D01*
X69957693Y-99372419D02*
X69957693Y-98372419D01*
X70691027Y-98372419D02*
X70900551Y-98372419D01*
X70900551Y-98372419D02*
X71005313Y-98420038D01*
X71005313Y-98420038D02*
X71110075Y-98515276D01*
X71110075Y-98515276D02*
X71162456Y-98705752D01*
X71162456Y-98705752D02*
X71162456Y-99039085D01*
X71162456Y-99039085D02*
X71110075Y-99229561D01*
X71110075Y-99229561D02*
X71005313Y-99324800D01*
X71005313Y-99324800D02*
X70900551Y-99372419D01*
X70900551Y-99372419D02*
X70691027Y-99372419D01*
X70691027Y-99372419D02*
X70586265Y-99324800D01*
X70586265Y-99324800D02*
X70481503Y-99229561D01*
X70481503Y-99229561D02*
X70429122Y-99039085D01*
X70429122Y-99039085D02*
X70429122Y-98705752D01*
X70429122Y-98705752D02*
X70481503Y-98515276D01*
X70481503Y-98515276D02*
X70586265Y-98420038D01*
X70586265Y-98420038D02*
X70691027Y-98372419D01*
X71581503Y-98467657D02*
X71633884Y-98420038D01*
X71633884Y-98420038D02*
X71738646Y-98372419D01*
X71738646Y-98372419D02*
X72000551Y-98372419D01*
X72000551Y-98372419D02*
X72105313Y-98420038D01*
X72105313Y-98420038D02*
X72157694Y-98467657D01*
X72157694Y-98467657D02*
X72210075Y-98562895D01*
X72210075Y-98562895D02*
X72210075Y-98658133D01*
X72210075Y-98658133D02*
X72157694Y-98800990D01*
X72157694Y-98800990D02*
X71529122Y-99372419D01*
X71529122Y-99372419D02*
X72210075Y-99372419D01*
X73152932Y-98372419D02*
X72943408Y-98372419D01*
X72943408Y-98372419D02*
X72838646Y-98420038D01*
X72838646Y-98420038D02*
X72786265Y-98467657D01*
X72786265Y-98467657D02*
X72681503Y-98610514D01*
X72681503Y-98610514D02*
X72629122Y-98800990D01*
X72629122Y-98800990D02*
X72629122Y-99181942D01*
X72629122Y-99181942D02*
X72681503Y-99277180D01*
X72681503Y-99277180D02*
X72733884Y-99324800D01*
X72733884Y-99324800D02*
X72838646Y-99372419D01*
X72838646Y-99372419D02*
X73048170Y-99372419D01*
X73048170Y-99372419D02*
X73152932Y-99324800D01*
X73152932Y-99324800D02*
X73205313Y-99277180D01*
X73205313Y-99277180D02*
X73257694Y-99181942D01*
X73257694Y-99181942D02*
X73257694Y-98943847D01*
X73257694Y-98943847D02*
X73205313Y-98848609D01*
X73205313Y-98848609D02*
X73152932Y-98800990D01*
X73152932Y-98800990D02*
X73048170Y-98753371D01*
X73048170Y-98753371D02*
X72838646Y-98753371D01*
X72838646Y-98753371D02*
X72733884Y-98800990D01*
X72733884Y-98800990D02*
X72681503Y-98848609D01*
X72681503Y-98848609D02*
X72629122Y-98943847D01*
X68333884Y-100920038D02*
X68229122Y-100872419D01*
X68229122Y-100872419D02*
X68071979Y-100872419D01*
X68071979Y-100872419D02*
X67914836Y-100920038D01*
X67914836Y-100920038D02*
X67810074Y-101015276D01*
X67810074Y-101015276D02*
X67757693Y-101110514D01*
X67757693Y-101110514D02*
X67705312Y-101300990D01*
X67705312Y-101300990D02*
X67705312Y-101443847D01*
X67705312Y-101443847D02*
X67757693Y-101634323D01*
X67757693Y-101634323D02*
X67810074Y-101729561D01*
X67810074Y-101729561D02*
X67914836Y-101824800D01*
X67914836Y-101824800D02*
X68071979Y-101872419D01*
X68071979Y-101872419D02*
X68176741Y-101872419D01*
X68176741Y-101872419D02*
X68333884Y-101824800D01*
X68333884Y-101824800D02*
X68386265Y-101777180D01*
X68386265Y-101777180D02*
X68386265Y-101443847D01*
X68386265Y-101443847D02*
X68176741Y-101443847D01*
X68857693Y-101872419D02*
X68857693Y-100872419D01*
X68857693Y-100872419D02*
X69276741Y-100872419D01*
X69276741Y-100872419D02*
X69381503Y-100920038D01*
X69381503Y-100920038D02*
X69433884Y-100967657D01*
X69433884Y-100967657D02*
X69486265Y-101062895D01*
X69486265Y-101062895D02*
X69486265Y-101205752D01*
X69486265Y-101205752D02*
X69433884Y-101300990D01*
X69433884Y-101300990D02*
X69381503Y-101348609D01*
X69381503Y-101348609D02*
X69276741Y-101396228D01*
X69276741Y-101396228D02*
X68857693Y-101396228D01*
X69957693Y-101872419D02*
X69957693Y-100872419D01*
X70691027Y-100872419D02*
X70900551Y-100872419D01*
X70900551Y-100872419D02*
X71005313Y-100920038D01*
X71005313Y-100920038D02*
X71110075Y-101015276D01*
X71110075Y-101015276D02*
X71162456Y-101205752D01*
X71162456Y-101205752D02*
X71162456Y-101539085D01*
X71162456Y-101539085D02*
X71110075Y-101729561D01*
X71110075Y-101729561D02*
X71005313Y-101824800D01*
X71005313Y-101824800D02*
X70900551Y-101872419D01*
X70900551Y-101872419D02*
X70691027Y-101872419D01*
X70691027Y-101872419D02*
X70586265Y-101824800D01*
X70586265Y-101824800D02*
X70481503Y-101729561D01*
X70481503Y-101729561D02*
X70429122Y-101539085D01*
X70429122Y-101539085D02*
X70429122Y-101205752D01*
X70429122Y-101205752D02*
X70481503Y-101015276D01*
X70481503Y-101015276D02*
X70586265Y-100920038D01*
X70586265Y-100920038D02*
X70691027Y-100872419D01*
X71581503Y-100967657D02*
X71633884Y-100920038D01*
X71633884Y-100920038D02*
X71738646Y-100872419D01*
X71738646Y-100872419D02*
X72000551Y-100872419D01*
X72000551Y-100872419D02*
X72105313Y-100920038D01*
X72105313Y-100920038D02*
X72157694Y-100967657D01*
X72157694Y-100967657D02*
X72210075Y-101062895D01*
X72210075Y-101062895D02*
X72210075Y-101158133D01*
X72210075Y-101158133D02*
X72157694Y-101300990D01*
X72157694Y-101300990D02*
X71529122Y-101872419D01*
X71529122Y-101872419D02*
X72210075Y-101872419D01*
X72576741Y-100872419D02*
X73310075Y-100872419D01*
X73310075Y-100872419D02*
X72838646Y-101872419D01*
X68333884Y-103420038D02*
X68229122Y-103372419D01*
X68229122Y-103372419D02*
X68071979Y-103372419D01*
X68071979Y-103372419D02*
X67914836Y-103420038D01*
X67914836Y-103420038D02*
X67810074Y-103515276D01*
X67810074Y-103515276D02*
X67757693Y-103610514D01*
X67757693Y-103610514D02*
X67705312Y-103800990D01*
X67705312Y-103800990D02*
X67705312Y-103943847D01*
X67705312Y-103943847D02*
X67757693Y-104134323D01*
X67757693Y-104134323D02*
X67810074Y-104229561D01*
X67810074Y-104229561D02*
X67914836Y-104324800D01*
X67914836Y-104324800D02*
X68071979Y-104372419D01*
X68071979Y-104372419D02*
X68176741Y-104372419D01*
X68176741Y-104372419D02*
X68333884Y-104324800D01*
X68333884Y-104324800D02*
X68386265Y-104277180D01*
X68386265Y-104277180D02*
X68386265Y-103943847D01*
X68386265Y-103943847D02*
X68176741Y-103943847D01*
X68857693Y-104372419D02*
X68857693Y-103372419D01*
X68857693Y-103372419D02*
X69276741Y-103372419D01*
X69276741Y-103372419D02*
X69381503Y-103420038D01*
X69381503Y-103420038D02*
X69433884Y-103467657D01*
X69433884Y-103467657D02*
X69486265Y-103562895D01*
X69486265Y-103562895D02*
X69486265Y-103705752D01*
X69486265Y-103705752D02*
X69433884Y-103800990D01*
X69433884Y-103800990D02*
X69381503Y-103848609D01*
X69381503Y-103848609D02*
X69276741Y-103896228D01*
X69276741Y-103896228D02*
X68857693Y-103896228D01*
X69957693Y-104372419D02*
X69957693Y-103372419D01*
X70691027Y-103372419D02*
X70900551Y-103372419D01*
X70900551Y-103372419D02*
X71005313Y-103420038D01*
X71005313Y-103420038D02*
X71110075Y-103515276D01*
X71110075Y-103515276D02*
X71162456Y-103705752D01*
X71162456Y-103705752D02*
X71162456Y-104039085D01*
X71162456Y-104039085D02*
X71110075Y-104229561D01*
X71110075Y-104229561D02*
X71005313Y-104324800D01*
X71005313Y-104324800D02*
X70900551Y-104372419D01*
X70900551Y-104372419D02*
X70691027Y-104372419D01*
X70691027Y-104372419D02*
X70586265Y-104324800D01*
X70586265Y-104324800D02*
X70481503Y-104229561D01*
X70481503Y-104229561D02*
X70429122Y-104039085D01*
X70429122Y-104039085D02*
X70429122Y-103705752D01*
X70429122Y-103705752D02*
X70481503Y-103515276D01*
X70481503Y-103515276D02*
X70586265Y-103420038D01*
X70586265Y-103420038D02*
X70691027Y-103372419D01*
X72210075Y-104372419D02*
X71581503Y-104372419D01*
X71895789Y-104372419D02*
X71895789Y-103372419D01*
X71895789Y-103372419D02*
X71791027Y-103515276D01*
X71791027Y-103515276D02*
X71686265Y-103610514D01*
X71686265Y-103610514D02*
X71581503Y-103658133D01*
X73152932Y-103705752D02*
X73152932Y-104372419D01*
X72891027Y-103324800D02*
X72629122Y-104039085D01*
X72629122Y-104039085D02*
X73310075Y-104039085D01*
X68333884Y-105920038D02*
X68229122Y-105872419D01*
X68229122Y-105872419D02*
X68071979Y-105872419D01*
X68071979Y-105872419D02*
X67914836Y-105920038D01*
X67914836Y-105920038D02*
X67810074Y-106015276D01*
X67810074Y-106015276D02*
X67757693Y-106110514D01*
X67757693Y-106110514D02*
X67705312Y-106300990D01*
X67705312Y-106300990D02*
X67705312Y-106443847D01*
X67705312Y-106443847D02*
X67757693Y-106634323D01*
X67757693Y-106634323D02*
X67810074Y-106729561D01*
X67810074Y-106729561D02*
X67914836Y-106824800D01*
X67914836Y-106824800D02*
X68071979Y-106872419D01*
X68071979Y-106872419D02*
X68176741Y-106872419D01*
X68176741Y-106872419D02*
X68333884Y-106824800D01*
X68333884Y-106824800D02*
X68386265Y-106777180D01*
X68386265Y-106777180D02*
X68386265Y-106443847D01*
X68386265Y-106443847D02*
X68176741Y-106443847D01*
X68857693Y-106872419D02*
X68857693Y-105872419D01*
X68857693Y-105872419D02*
X69276741Y-105872419D01*
X69276741Y-105872419D02*
X69381503Y-105920038D01*
X69381503Y-105920038D02*
X69433884Y-105967657D01*
X69433884Y-105967657D02*
X69486265Y-106062895D01*
X69486265Y-106062895D02*
X69486265Y-106205752D01*
X69486265Y-106205752D02*
X69433884Y-106300990D01*
X69433884Y-106300990D02*
X69381503Y-106348609D01*
X69381503Y-106348609D02*
X69276741Y-106396228D01*
X69276741Y-106396228D02*
X68857693Y-106396228D01*
X69957693Y-106872419D02*
X69957693Y-105872419D01*
X70691027Y-105872419D02*
X70900551Y-105872419D01*
X70900551Y-105872419D02*
X71005313Y-105920038D01*
X71005313Y-105920038D02*
X71110075Y-106015276D01*
X71110075Y-106015276D02*
X71162456Y-106205752D01*
X71162456Y-106205752D02*
X71162456Y-106539085D01*
X71162456Y-106539085D02*
X71110075Y-106729561D01*
X71110075Y-106729561D02*
X71005313Y-106824800D01*
X71005313Y-106824800D02*
X70900551Y-106872419D01*
X70900551Y-106872419D02*
X70691027Y-106872419D01*
X70691027Y-106872419D02*
X70586265Y-106824800D01*
X70586265Y-106824800D02*
X70481503Y-106729561D01*
X70481503Y-106729561D02*
X70429122Y-106539085D01*
X70429122Y-106539085D02*
X70429122Y-106205752D01*
X70429122Y-106205752D02*
X70481503Y-106015276D01*
X70481503Y-106015276D02*
X70586265Y-105920038D01*
X70586265Y-105920038D02*
X70691027Y-105872419D01*
X72210075Y-106872419D02*
X71581503Y-106872419D01*
X71895789Y-106872419D02*
X71895789Y-105872419D01*
X71895789Y-105872419D02*
X71791027Y-106015276D01*
X71791027Y-106015276D02*
X71686265Y-106110514D01*
X71686265Y-106110514D02*
X71581503Y-106158133D01*
X72629122Y-105967657D02*
X72681503Y-105920038D01*
X72681503Y-105920038D02*
X72786265Y-105872419D01*
X72786265Y-105872419D02*
X73048170Y-105872419D01*
X73048170Y-105872419D02*
X73152932Y-105920038D01*
X73152932Y-105920038D02*
X73205313Y-105967657D01*
X73205313Y-105967657D02*
X73257694Y-106062895D01*
X73257694Y-106062895D02*
X73257694Y-106158133D01*
X73257694Y-106158133D02*
X73205313Y-106300990D01*
X73205313Y-106300990D02*
X72576741Y-106872419D01*
X72576741Y-106872419D02*
X73257694Y-106872419D01*
X68333884Y-108420038D02*
X68229122Y-108372419D01*
X68229122Y-108372419D02*
X68071979Y-108372419D01*
X68071979Y-108372419D02*
X67914836Y-108420038D01*
X67914836Y-108420038D02*
X67810074Y-108515276D01*
X67810074Y-108515276D02*
X67757693Y-108610514D01*
X67757693Y-108610514D02*
X67705312Y-108800990D01*
X67705312Y-108800990D02*
X67705312Y-108943847D01*
X67705312Y-108943847D02*
X67757693Y-109134323D01*
X67757693Y-109134323D02*
X67810074Y-109229561D01*
X67810074Y-109229561D02*
X67914836Y-109324800D01*
X67914836Y-109324800D02*
X68071979Y-109372419D01*
X68071979Y-109372419D02*
X68176741Y-109372419D01*
X68176741Y-109372419D02*
X68333884Y-109324800D01*
X68333884Y-109324800D02*
X68386265Y-109277180D01*
X68386265Y-109277180D02*
X68386265Y-108943847D01*
X68386265Y-108943847D02*
X68176741Y-108943847D01*
X68857693Y-109372419D02*
X68857693Y-108372419D01*
X68857693Y-108372419D02*
X69276741Y-108372419D01*
X69276741Y-108372419D02*
X69381503Y-108420038D01*
X69381503Y-108420038D02*
X69433884Y-108467657D01*
X69433884Y-108467657D02*
X69486265Y-108562895D01*
X69486265Y-108562895D02*
X69486265Y-108705752D01*
X69486265Y-108705752D02*
X69433884Y-108800990D01*
X69433884Y-108800990D02*
X69381503Y-108848609D01*
X69381503Y-108848609D02*
X69276741Y-108896228D01*
X69276741Y-108896228D02*
X68857693Y-108896228D01*
X69957693Y-109372419D02*
X69957693Y-108372419D01*
X70691027Y-108372419D02*
X70900551Y-108372419D01*
X70900551Y-108372419D02*
X71005313Y-108420038D01*
X71005313Y-108420038D02*
X71110075Y-108515276D01*
X71110075Y-108515276D02*
X71162456Y-108705752D01*
X71162456Y-108705752D02*
X71162456Y-109039085D01*
X71162456Y-109039085D02*
X71110075Y-109229561D01*
X71110075Y-109229561D02*
X71005313Y-109324800D01*
X71005313Y-109324800D02*
X70900551Y-109372419D01*
X70900551Y-109372419D02*
X70691027Y-109372419D01*
X70691027Y-109372419D02*
X70586265Y-109324800D01*
X70586265Y-109324800D02*
X70481503Y-109229561D01*
X70481503Y-109229561D02*
X70429122Y-109039085D01*
X70429122Y-109039085D02*
X70429122Y-108705752D01*
X70429122Y-108705752D02*
X70481503Y-108515276D01*
X70481503Y-108515276D02*
X70586265Y-108420038D01*
X70586265Y-108420038D02*
X70691027Y-108372419D01*
X72210075Y-109372419D02*
X71581503Y-109372419D01*
X71895789Y-109372419D02*
X71895789Y-108372419D01*
X71895789Y-108372419D02*
X71791027Y-108515276D01*
X71791027Y-108515276D02*
X71686265Y-108610514D01*
X71686265Y-108610514D02*
X71581503Y-108658133D01*
X72576741Y-108372419D02*
X73257694Y-108372419D01*
X73257694Y-108372419D02*
X72891027Y-108753371D01*
X72891027Y-108753371D02*
X73048170Y-108753371D01*
X73048170Y-108753371D02*
X73152932Y-108800990D01*
X73152932Y-108800990D02*
X73205313Y-108848609D01*
X73205313Y-108848609D02*
X73257694Y-108943847D01*
X73257694Y-108943847D02*
X73257694Y-109181942D01*
X73257694Y-109181942D02*
X73205313Y-109277180D01*
X73205313Y-109277180D02*
X73152932Y-109324800D01*
X73152932Y-109324800D02*
X73048170Y-109372419D01*
X73048170Y-109372419D02*
X72733884Y-109372419D01*
X72733884Y-109372419D02*
X72629122Y-109324800D01*
X72629122Y-109324800D02*
X72576741Y-109277180D01*
X68333884Y-110920038D02*
X68229122Y-110872419D01*
X68229122Y-110872419D02*
X68071979Y-110872419D01*
X68071979Y-110872419D02*
X67914836Y-110920038D01*
X67914836Y-110920038D02*
X67810074Y-111015276D01*
X67810074Y-111015276D02*
X67757693Y-111110514D01*
X67757693Y-111110514D02*
X67705312Y-111300990D01*
X67705312Y-111300990D02*
X67705312Y-111443847D01*
X67705312Y-111443847D02*
X67757693Y-111634323D01*
X67757693Y-111634323D02*
X67810074Y-111729561D01*
X67810074Y-111729561D02*
X67914836Y-111824800D01*
X67914836Y-111824800D02*
X68071979Y-111872419D01*
X68071979Y-111872419D02*
X68176741Y-111872419D01*
X68176741Y-111872419D02*
X68333884Y-111824800D01*
X68333884Y-111824800D02*
X68386265Y-111777180D01*
X68386265Y-111777180D02*
X68386265Y-111443847D01*
X68386265Y-111443847D02*
X68176741Y-111443847D01*
X68857693Y-111872419D02*
X68857693Y-110872419D01*
X68857693Y-110872419D02*
X69486265Y-111872419D01*
X69486265Y-111872419D02*
X69486265Y-110872419D01*
X70010074Y-111872419D02*
X70010074Y-110872419D01*
X70010074Y-110872419D02*
X70271979Y-110872419D01*
X70271979Y-110872419D02*
X70429122Y-110920038D01*
X70429122Y-110920038D02*
X70533884Y-111015276D01*
X70533884Y-111015276D02*
X70586265Y-111110514D01*
X70586265Y-111110514D02*
X70638646Y-111300990D01*
X70638646Y-111300990D02*
X70638646Y-111443847D01*
X70638646Y-111443847D02*
X70586265Y-111634323D01*
X70586265Y-111634323D02*
X70533884Y-111729561D01*
X70533884Y-111729561D02*
X70429122Y-111824800D01*
X70429122Y-111824800D02*
X70271979Y-111872419D01*
X70271979Y-111872419D02*
X70010074Y-111872419D01*
X68100550Y-113372419D02*
X68467217Y-114372419D01*
X68467217Y-114372419D02*
X68833884Y-113372419D01*
X69200550Y-114372419D02*
X69200550Y-113372419D01*
X69724360Y-114372419D02*
X69724360Y-113372419D01*
X69724360Y-113372419D02*
X70352932Y-114372419D01*
X70352932Y-114372419D02*
X70352932Y-113372419D01*
X78233884Y-120372419D02*
X78233884Y-121181942D01*
X78233884Y-121181942D02*
X78281503Y-121277180D01*
X78281503Y-121277180D02*
X78329122Y-121324800D01*
X78329122Y-121324800D02*
X78424360Y-121372419D01*
X78424360Y-121372419D02*
X78614836Y-121372419D01*
X78614836Y-121372419D02*
X78710074Y-121324800D01*
X78710074Y-121324800D02*
X78757693Y-121277180D01*
X78757693Y-121277180D02*
X78805312Y-121181942D01*
X78805312Y-121181942D02*
X78805312Y-120372419D01*
X79233884Y-121324800D02*
X79376741Y-121372419D01*
X79376741Y-121372419D02*
X79614836Y-121372419D01*
X79614836Y-121372419D02*
X79710074Y-121324800D01*
X79710074Y-121324800D02*
X79757693Y-121277180D01*
X79757693Y-121277180D02*
X79805312Y-121181942D01*
X79805312Y-121181942D02*
X79805312Y-121086704D01*
X79805312Y-121086704D02*
X79757693Y-120991466D01*
X79757693Y-120991466D02*
X79710074Y-120943847D01*
X79710074Y-120943847D02*
X79614836Y-120896228D01*
X79614836Y-120896228D02*
X79424360Y-120848609D01*
X79424360Y-120848609D02*
X79329122Y-120800990D01*
X79329122Y-120800990D02*
X79281503Y-120753371D01*
X79281503Y-120753371D02*
X79233884Y-120658133D01*
X79233884Y-120658133D02*
X79233884Y-120562895D01*
X79233884Y-120562895D02*
X79281503Y-120467657D01*
X79281503Y-120467657D02*
X79329122Y-120420038D01*
X79329122Y-120420038D02*
X79424360Y-120372419D01*
X79424360Y-120372419D02*
X79662455Y-120372419D01*
X79662455Y-120372419D02*
X79805312Y-120420038D01*
X80567217Y-120848609D02*
X80710074Y-120896228D01*
X80710074Y-120896228D02*
X80757693Y-120943847D01*
X80757693Y-120943847D02*
X80805312Y-121039085D01*
X80805312Y-121039085D02*
X80805312Y-121181942D01*
X80805312Y-121181942D02*
X80757693Y-121277180D01*
X80757693Y-121277180D02*
X80710074Y-121324800D01*
X80710074Y-121324800D02*
X80614836Y-121372419D01*
X80614836Y-121372419D02*
X80233884Y-121372419D01*
X80233884Y-121372419D02*
X80233884Y-120372419D01*
X80233884Y-120372419D02*
X80567217Y-120372419D01*
X80567217Y-120372419D02*
X80662455Y-120420038D01*
X80662455Y-120420038D02*
X80710074Y-120467657D01*
X80710074Y-120467657D02*
X80757693Y-120562895D01*
X80757693Y-120562895D02*
X80757693Y-120658133D01*
X80757693Y-120658133D02*
X80710074Y-120753371D01*
X80710074Y-120753371D02*
X80662455Y-120800990D01*
X80662455Y-120800990D02*
X80567217Y-120848609D01*
X80567217Y-120848609D02*
X80233884Y-120848609D01*
X85833884Y-77920038D02*
X85729122Y-77872419D01*
X85729122Y-77872419D02*
X85571979Y-77872419D01*
X85571979Y-77872419D02*
X85414836Y-77920038D01*
X85414836Y-77920038D02*
X85310074Y-78015276D01*
X85310074Y-78015276D02*
X85257693Y-78110514D01*
X85257693Y-78110514D02*
X85205312Y-78300990D01*
X85205312Y-78300990D02*
X85205312Y-78443847D01*
X85205312Y-78443847D02*
X85257693Y-78634323D01*
X85257693Y-78634323D02*
X85310074Y-78729561D01*
X85310074Y-78729561D02*
X85414836Y-78824800D01*
X85414836Y-78824800D02*
X85571979Y-78872419D01*
X85571979Y-78872419D02*
X85676741Y-78872419D01*
X85676741Y-78872419D02*
X85833884Y-78824800D01*
X85833884Y-78824800D02*
X85886265Y-78777180D01*
X85886265Y-78777180D02*
X85886265Y-78443847D01*
X85886265Y-78443847D02*
X85676741Y-78443847D01*
X86357693Y-78872419D02*
X86357693Y-77872419D01*
X86357693Y-77872419D02*
X86776741Y-77872419D01*
X86776741Y-77872419D02*
X86881503Y-77920038D01*
X86881503Y-77920038D02*
X86933884Y-77967657D01*
X86933884Y-77967657D02*
X86986265Y-78062895D01*
X86986265Y-78062895D02*
X86986265Y-78205752D01*
X86986265Y-78205752D02*
X86933884Y-78300990D01*
X86933884Y-78300990D02*
X86881503Y-78348609D01*
X86881503Y-78348609D02*
X86776741Y-78396228D01*
X86776741Y-78396228D02*
X86357693Y-78396228D01*
X87457693Y-78872419D02*
X87457693Y-77872419D01*
X88191027Y-77872419D02*
X88400551Y-77872419D01*
X88400551Y-77872419D02*
X88505313Y-77920038D01*
X88505313Y-77920038D02*
X88610075Y-78015276D01*
X88610075Y-78015276D02*
X88662456Y-78205752D01*
X88662456Y-78205752D02*
X88662456Y-78539085D01*
X88662456Y-78539085D02*
X88610075Y-78729561D01*
X88610075Y-78729561D02*
X88505313Y-78824800D01*
X88505313Y-78824800D02*
X88400551Y-78872419D01*
X88400551Y-78872419D02*
X88191027Y-78872419D01*
X88191027Y-78872419D02*
X88086265Y-78824800D01*
X88086265Y-78824800D02*
X87981503Y-78729561D01*
X87981503Y-78729561D02*
X87929122Y-78539085D01*
X87929122Y-78539085D02*
X87929122Y-78205752D01*
X87929122Y-78205752D02*
X87981503Y-78015276D01*
X87981503Y-78015276D02*
X88086265Y-77920038D01*
X88086265Y-77920038D02*
X88191027Y-77872419D01*
X89081503Y-77967657D02*
X89133884Y-77920038D01*
X89133884Y-77920038D02*
X89238646Y-77872419D01*
X89238646Y-77872419D02*
X89500551Y-77872419D01*
X89500551Y-77872419D02*
X89605313Y-77920038D01*
X89605313Y-77920038D02*
X89657694Y-77967657D01*
X89657694Y-77967657D02*
X89710075Y-78062895D01*
X89710075Y-78062895D02*
X89710075Y-78158133D01*
X89710075Y-78158133D02*
X89657694Y-78300990D01*
X89657694Y-78300990D02*
X89029122Y-78872419D01*
X89029122Y-78872419D02*
X89710075Y-78872419D01*
X90076741Y-77872419D02*
X90757694Y-77872419D01*
X90757694Y-77872419D02*
X90391027Y-78253371D01*
X90391027Y-78253371D02*
X90548170Y-78253371D01*
X90548170Y-78253371D02*
X90652932Y-78300990D01*
X90652932Y-78300990D02*
X90705313Y-78348609D01*
X90705313Y-78348609D02*
X90757694Y-78443847D01*
X90757694Y-78443847D02*
X90757694Y-78681942D01*
X90757694Y-78681942D02*
X90705313Y-78777180D01*
X90705313Y-78777180D02*
X90652932Y-78824800D01*
X90652932Y-78824800D02*
X90548170Y-78872419D01*
X90548170Y-78872419D02*
X90233884Y-78872419D01*
X90233884Y-78872419D02*
X90129122Y-78824800D01*
X90129122Y-78824800D02*
X90076741Y-78777180D01*
X85833884Y-80420038D02*
X85729122Y-80372419D01*
X85729122Y-80372419D02*
X85571979Y-80372419D01*
X85571979Y-80372419D02*
X85414836Y-80420038D01*
X85414836Y-80420038D02*
X85310074Y-80515276D01*
X85310074Y-80515276D02*
X85257693Y-80610514D01*
X85257693Y-80610514D02*
X85205312Y-80800990D01*
X85205312Y-80800990D02*
X85205312Y-80943847D01*
X85205312Y-80943847D02*
X85257693Y-81134323D01*
X85257693Y-81134323D02*
X85310074Y-81229561D01*
X85310074Y-81229561D02*
X85414836Y-81324800D01*
X85414836Y-81324800D02*
X85571979Y-81372419D01*
X85571979Y-81372419D02*
X85676741Y-81372419D01*
X85676741Y-81372419D02*
X85833884Y-81324800D01*
X85833884Y-81324800D02*
X85886265Y-81277180D01*
X85886265Y-81277180D02*
X85886265Y-80943847D01*
X85886265Y-80943847D02*
X85676741Y-80943847D01*
X86357693Y-81372419D02*
X86357693Y-80372419D01*
X86357693Y-80372419D02*
X86776741Y-80372419D01*
X86776741Y-80372419D02*
X86881503Y-80420038D01*
X86881503Y-80420038D02*
X86933884Y-80467657D01*
X86933884Y-80467657D02*
X86986265Y-80562895D01*
X86986265Y-80562895D02*
X86986265Y-80705752D01*
X86986265Y-80705752D02*
X86933884Y-80800990D01*
X86933884Y-80800990D02*
X86881503Y-80848609D01*
X86881503Y-80848609D02*
X86776741Y-80896228D01*
X86776741Y-80896228D02*
X86357693Y-80896228D01*
X87457693Y-81372419D02*
X87457693Y-80372419D01*
X88191027Y-80372419D02*
X88400551Y-80372419D01*
X88400551Y-80372419D02*
X88505313Y-80420038D01*
X88505313Y-80420038D02*
X88610075Y-80515276D01*
X88610075Y-80515276D02*
X88662456Y-80705752D01*
X88662456Y-80705752D02*
X88662456Y-81039085D01*
X88662456Y-81039085D02*
X88610075Y-81229561D01*
X88610075Y-81229561D02*
X88505313Y-81324800D01*
X88505313Y-81324800D02*
X88400551Y-81372419D01*
X88400551Y-81372419D02*
X88191027Y-81372419D01*
X88191027Y-81372419D02*
X88086265Y-81324800D01*
X88086265Y-81324800D02*
X87981503Y-81229561D01*
X87981503Y-81229561D02*
X87929122Y-81039085D01*
X87929122Y-81039085D02*
X87929122Y-80705752D01*
X87929122Y-80705752D02*
X87981503Y-80515276D01*
X87981503Y-80515276D02*
X88086265Y-80420038D01*
X88086265Y-80420038D02*
X88191027Y-80372419D01*
X89081503Y-80467657D02*
X89133884Y-80420038D01*
X89133884Y-80420038D02*
X89238646Y-80372419D01*
X89238646Y-80372419D02*
X89500551Y-80372419D01*
X89500551Y-80372419D02*
X89605313Y-80420038D01*
X89605313Y-80420038D02*
X89657694Y-80467657D01*
X89657694Y-80467657D02*
X89710075Y-80562895D01*
X89710075Y-80562895D02*
X89710075Y-80658133D01*
X89710075Y-80658133D02*
X89657694Y-80800990D01*
X89657694Y-80800990D02*
X89029122Y-81372419D01*
X89029122Y-81372419D02*
X89710075Y-81372419D01*
X90129122Y-80467657D02*
X90181503Y-80420038D01*
X90181503Y-80420038D02*
X90286265Y-80372419D01*
X90286265Y-80372419D02*
X90548170Y-80372419D01*
X90548170Y-80372419D02*
X90652932Y-80420038D01*
X90652932Y-80420038D02*
X90705313Y-80467657D01*
X90705313Y-80467657D02*
X90757694Y-80562895D01*
X90757694Y-80562895D02*
X90757694Y-80658133D01*
X90757694Y-80658133D02*
X90705313Y-80800990D01*
X90705313Y-80800990D02*
X90076741Y-81372419D01*
X90076741Y-81372419D02*
X90757694Y-81372419D01*
X85833884Y-88420038D02*
X85729122Y-88372419D01*
X85729122Y-88372419D02*
X85571979Y-88372419D01*
X85571979Y-88372419D02*
X85414836Y-88420038D01*
X85414836Y-88420038D02*
X85310074Y-88515276D01*
X85310074Y-88515276D02*
X85257693Y-88610514D01*
X85257693Y-88610514D02*
X85205312Y-88800990D01*
X85205312Y-88800990D02*
X85205312Y-88943847D01*
X85205312Y-88943847D02*
X85257693Y-89134323D01*
X85257693Y-89134323D02*
X85310074Y-89229561D01*
X85310074Y-89229561D02*
X85414836Y-89324800D01*
X85414836Y-89324800D02*
X85571979Y-89372419D01*
X85571979Y-89372419D02*
X85676741Y-89372419D01*
X85676741Y-89372419D02*
X85833884Y-89324800D01*
X85833884Y-89324800D02*
X85886265Y-89277180D01*
X85886265Y-89277180D02*
X85886265Y-88943847D01*
X85886265Y-88943847D02*
X85676741Y-88943847D01*
X86357693Y-89372419D02*
X86357693Y-88372419D01*
X86357693Y-88372419D02*
X86776741Y-88372419D01*
X86776741Y-88372419D02*
X86881503Y-88420038D01*
X86881503Y-88420038D02*
X86933884Y-88467657D01*
X86933884Y-88467657D02*
X86986265Y-88562895D01*
X86986265Y-88562895D02*
X86986265Y-88705752D01*
X86986265Y-88705752D02*
X86933884Y-88800990D01*
X86933884Y-88800990D02*
X86881503Y-88848609D01*
X86881503Y-88848609D02*
X86776741Y-88896228D01*
X86776741Y-88896228D02*
X86357693Y-88896228D01*
X87457693Y-89372419D02*
X87457693Y-88372419D01*
X88191027Y-88372419D02*
X88400551Y-88372419D01*
X88400551Y-88372419D02*
X88505313Y-88420038D01*
X88505313Y-88420038D02*
X88610075Y-88515276D01*
X88610075Y-88515276D02*
X88662456Y-88705752D01*
X88662456Y-88705752D02*
X88662456Y-89039085D01*
X88662456Y-89039085D02*
X88610075Y-89229561D01*
X88610075Y-89229561D02*
X88505313Y-89324800D01*
X88505313Y-89324800D02*
X88400551Y-89372419D01*
X88400551Y-89372419D02*
X88191027Y-89372419D01*
X88191027Y-89372419D02*
X88086265Y-89324800D01*
X88086265Y-89324800D02*
X87981503Y-89229561D01*
X87981503Y-89229561D02*
X87929122Y-89039085D01*
X87929122Y-89039085D02*
X87929122Y-88705752D01*
X87929122Y-88705752D02*
X87981503Y-88515276D01*
X87981503Y-88515276D02*
X88086265Y-88420038D01*
X88086265Y-88420038D02*
X88191027Y-88372419D01*
X89081503Y-88467657D02*
X89133884Y-88420038D01*
X89133884Y-88420038D02*
X89238646Y-88372419D01*
X89238646Y-88372419D02*
X89500551Y-88372419D01*
X89500551Y-88372419D02*
X89605313Y-88420038D01*
X89605313Y-88420038D02*
X89657694Y-88467657D01*
X89657694Y-88467657D02*
X89710075Y-88562895D01*
X89710075Y-88562895D02*
X89710075Y-88658133D01*
X89710075Y-88658133D02*
X89657694Y-88800990D01*
X89657694Y-88800990D02*
X89029122Y-89372419D01*
X89029122Y-89372419D02*
X89710075Y-89372419D01*
X90757694Y-89372419D02*
X90129122Y-89372419D01*
X90443408Y-89372419D02*
X90443408Y-88372419D01*
X90443408Y-88372419D02*
X90338646Y-88515276D01*
X90338646Y-88515276D02*
X90233884Y-88610514D01*
X90233884Y-88610514D02*
X90129122Y-88658133D01*
X85833884Y-90920038D02*
X85729122Y-90872419D01*
X85729122Y-90872419D02*
X85571979Y-90872419D01*
X85571979Y-90872419D02*
X85414836Y-90920038D01*
X85414836Y-90920038D02*
X85310074Y-91015276D01*
X85310074Y-91015276D02*
X85257693Y-91110514D01*
X85257693Y-91110514D02*
X85205312Y-91300990D01*
X85205312Y-91300990D02*
X85205312Y-91443847D01*
X85205312Y-91443847D02*
X85257693Y-91634323D01*
X85257693Y-91634323D02*
X85310074Y-91729561D01*
X85310074Y-91729561D02*
X85414836Y-91824800D01*
X85414836Y-91824800D02*
X85571979Y-91872419D01*
X85571979Y-91872419D02*
X85676741Y-91872419D01*
X85676741Y-91872419D02*
X85833884Y-91824800D01*
X85833884Y-91824800D02*
X85886265Y-91777180D01*
X85886265Y-91777180D02*
X85886265Y-91443847D01*
X85886265Y-91443847D02*
X85676741Y-91443847D01*
X86357693Y-91872419D02*
X86357693Y-90872419D01*
X86357693Y-90872419D02*
X86776741Y-90872419D01*
X86776741Y-90872419D02*
X86881503Y-90920038D01*
X86881503Y-90920038D02*
X86933884Y-90967657D01*
X86933884Y-90967657D02*
X86986265Y-91062895D01*
X86986265Y-91062895D02*
X86986265Y-91205752D01*
X86986265Y-91205752D02*
X86933884Y-91300990D01*
X86933884Y-91300990D02*
X86881503Y-91348609D01*
X86881503Y-91348609D02*
X86776741Y-91396228D01*
X86776741Y-91396228D02*
X86357693Y-91396228D01*
X87457693Y-91872419D02*
X87457693Y-90872419D01*
X88191027Y-90872419D02*
X88400551Y-90872419D01*
X88400551Y-90872419D02*
X88505313Y-90920038D01*
X88505313Y-90920038D02*
X88610075Y-91015276D01*
X88610075Y-91015276D02*
X88662456Y-91205752D01*
X88662456Y-91205752D02*
X88662456Y-91539085D01*
X88662456Y-91539085D02*
X88610075Y-91729561D01*
X88610075Y-91729561D02*
X88505313Y-91824800D01*
X88505313Y-91824800D02*
X88400551Y-91872419D01*
X88400551Y-91872419D02*
X88191027Y-91872419D01*
X88191027Y-91872419D02*
X88086265Y-91824800D01*
X88086265Y-91824800D02*
X87981503Y-91729561D01*
X87981503Y-91729561D02*
X87929122Y-91539085D01*
X87929122Y-91539085D02*
X87929122Y-91205752D01*
X87929122Y-91205752D02*
X87981503Y-91015276D01*
X87981503Y-91015276D02*
X88086265Y-90920038D01*
X88086265Y-90920038D02*
X88191027Y-90872419D01*
X89710075Y-91872419D02*
X89081503Y-91872419D01*
X89395789Y-91872419D02*
X89395789Y-90872419D01*
X89395789Y-90872419D02*
X89291027Y-91015276D01*
X89291027Y-91015276D02*
X89186265Y-91110514D01*
X89186265Y-91110514D02*
X89081503Y-91158133D01*
X90233884Y-91872419D02*
X90443408Y-91872419D01*
X90443408Y-91872419D02*
X90548170Y-91824800D01*
X90548170Y-91824800D02*
X90600551Y-91777180D01*
X90600551Y-91777180D02*
X90705313Y-91634323D01*
X90705313Y-91634323D02*
X90757694Y-91443847D01*
X90757694Y-91443847D02*
X90757694Y-91062895D01*
X90757694Y-91062895D02*
X90705313Y-90967657D01*
X90705313Y-90967657D02*
X90652932Y-90920038D01*
X90652932Y-90920038D02*
X90548170Y-90872419D01*
X90548170Y-90872419D02*
X90338646Y-90872419D01*
X90338646Y-90872419D02*
X90233884Y-90920038D01*
X90233884Y-90920038D02*
X90181503Y-90967657D01*
X90181503Y-90967657D02*
X90129122Y-91062895D01*
X90129122Y-91062895D02*
X90129122Y-91300990D01*
X90129122Y-91300990D02*
X90181503Y-91396228D01*
X90181503Y-91396228D02*
X90233884Y-91443847D01*
X90233884Y-91443847D02*
X90338646Y-91491466D01*
X90338646Y-91491466D02*
X90548170Y-91491466D01*
X90548170Y-91491466D02*
X90652932Y-91443847D01*
X90652932Y-91443847D02*
X90705313Y-91396228D01*
X90705313Y-91396228D02*
X90757694Y-91300990D01*
X85833884Y-93420038D02*
X85729122Y-93372419D01*
X85729122Y-93372419D02*
X85571979Y-93372419D01*
X85571979Y-93372419D02*
X85414836Y-93420038D01*
X85414836Y-93420038D02*
X85310074Y-93515276D01*
X85310074Y-93515276D02*
X85257693Y-93610514D01*
X85257693Y-93610514D02*
X85205312Y-93800990D01*
X85205312Y-93800990D02*
X85205312Y-93943847D01*
X85205312Y-93943847D02*
X85257693Y-94134323D01*
X85257693Y-94134323D02*
X85310074Y-94229561D01*
X85310074Y-94229561D02*
X85414836Y-94324800D01*
X85414836Y-94324800D02*
X85571979Y-94372419D01*
X85571979Y-94372419D02*
X85676741Y-94372419D01*
X85676741Y-94372419D02*
X85833884Y-94324800D01*
X85833884Y-94324800D02*
X85886265Y-94277180D01*
X85886265Y-94277180D02*
X85886265Y-93943847D01*
X85886265Y-93943847D02*
X85676741Y-93943847D01*
X86357693Y-94372419D02*
X86357693Y-93372419D01*
X86357693Y-93372419D02*
X86776741Y-93372419D01*
X86776741Y-93372419D02*
X86881503Y-93420038D01*
X86881503Y-93420038D02*
X86933884Y-93467657D01*
X86933884Y-93467657D02*
X86986265Y-93562895D01*
X86986265Y-93562895D02*
X86986265Y-93705752D01*
X86986265Y-93705752D02*
X86933884Y-93800990D01*
X86933884Y-93800990D02*
X86881503Y-93848609D01*
X86881503Y-93848609D02*
X86776741Y-93896228D01*
X86776741Y-93896228D02*
X86357693Y-93896228D01*
X87457693Y-94372419D02*
X87457693Y-93372419D01*
X88191027Y-93372419D02*
X88400551Y-93372419D01*
X88400551Y-93372419D02*
X88505313Y-93420038D01*
X88505313Y-93420038D02*
X88610075Y-93515276D01*
X88610075Y-93515276D02*
X88662456Y-93705752D01*
X88662456Y-93705752D02*
X88662456Y-94039085D01*
X88662456Y-94039085D02*
X88610075Y-94229561D01*
X88610075Y-94229561D02*
X88505313Y-94324800D01*
X88505313Y-94324800D02*
X88400551Y-94372419D01*
X88400551Y-94372419D02*
X88191027Y-94372419D01*
X88191027Y-94372419D02*
X88086265Y-94324800D01*
X88086265Y-94324800D02*
X87981503Y-94229561D01*
X87981503Y-94229561D02*
X87929122Y-94039085D01*
X87929122Y-94039085D02*
X87929122Y-93705752D01*
X87929122Y-93705752D02*
X87981503Y-93515276D01*
X87981503Y-93515276D02*
X88086265Y-93420038D01*
X88086265Y-93420038D02*
X88191027Y-93372419D01*
X89710075Y-94372419D02*
X89081503Y-94372419D01*
X89395789Y-94372419D02*
X89395789Y-93372419D01*
X89395789Y-93372419D02*
X89291027Y-93515276D01*
X89291027Y-93515276D02*
X89186265Y-93610514D01*
X89186265Y-93610514D02*
X89081503Y-93658133D01*
X90338646Y-93800990D02*
X90233884Y-93753371D01*
X90233884Y-93753371D02*
X90181503Y-93705752D01*
X90181503Y-93705752D02*
X90129122Y-93610514D01*
X90129122Y-93610514D02*
X90129122Y-93562895D01*
X90129122Y-93562895D02*
X90181503Y-93467657D01*
X90181503Y-93467657D02*
X90233884Y-93420038D01*
X90233884Y-93420038D02*
X90338646Y-93372419D01*
X90338646Y-93372419D02*
X90548170Y-93372419D01*
X90548170Y-93372419D02*
X90652932Y-93420038D01*
X90652932Y-93420038D02*
X90705313Y-93467657D01*
X90705313Y-93467657D02*
X90757694Y-93562895D01*
X90757694Y-93562895D02*
X90757694Y-93610514D01*
X90757694Y-93610514D02*
X90705313Y-93705752D01*
X90705313Y-93705752D02*
X90652932Y-93753371D01*
X90652932Y-93753371D02*
X90548170Y-93800990D01*
X90548170Y-93800990D02*
X90338646Y-93800990D01*
X90338646Y-93800990D02*
X90233884Y-93848609D01*
X90233884Y-93848609D02*
X90181503Y-93896228D01*
X90181503Y-93896228D02*
X90129122Y-93991466D01*
X90129122Y-93991466D02*
X90129122Y-94181942D01*
X90129122Y-94181942D02*
X90181503Y-94277180D01*
X90181503Y-94277180D02*
X90233884Y-94324800D01*
X90233884Y-94324800D02*
X90338646Y-94372419D01*
X90338646Y-94372419D02*
X90548170Y-94372419D01*
X90548170Y-94372419D02*
X90652932Y-94324800D01*
X90652932Y-94324800D02*
X90705313Y-94277180D01*
X90705313Y-94277180D02*
X90757694Y-94181942D01*
X90757694Y-94181942D02*
X90757694Y-93991466D01*
X90757694Y-93991466D02*
X90705313Y-93896228D01*
X90705313Y-93896228D02*
X90652932Y-93848609D01*
X90652932Y-93848609D02*
X90548170Y-93800990D01*
X85833884Y-98420038D02*
X85729122Y-98372419D01*
X85729122Y-98372419D02*
X85571979Y-98372419D01*
X85571979Y-98372419D02*
X85414836Y-98420038D01*
X85414836Y-98420038D02*
X85310074Y-98515276D01*
X85310074Y-98515276D02*
X85257693Y-98610514D01*
X85257693Y-98610514D02*
X85205312Y-98800990D01*
X85205312Y-98800990D02*
X85205312Y-98943847D01*
X85205312Y-98943847D02*
X85257693Y-99134323D01*
X85257693Y-99134323D02*
X85310074Y-99229561D01*
X85310074Y-99229561D02*
X85414836Y-99324800D01*
X85414836Y-99324800D02*
X85571979Y-99372419D01*
X85571979Y-99372419D02*
X85676741Y-99372419D01*
X85676741Y-99372419D02*
X85833884Y-99324800D01*
X85833884Y-99324800D02*
X85886265Y-99277180D01*
X85886265Y-99277180D02*
X85886265Y-98943847D01*
X85886265Y-98943847D02*
X85676741Y-98943847D01*
X86357693Y-99372419D02*
X86357693Y-98372419D01*
X86357693Y-98372419D02*
X86776741Y-98372419D01*
X86776741Y-98372419D02*
X86881503Y-98420038D01*
X86881503Y-98420038D02*
X86933884Y-98467657D01*
X86933884Y-98467657D02*
X86986265Y-98562895D01*
X86986265Y-98562895D02*
X86986265Y-98705752D01*
X86986265Y-98705752D02*
X86933884Y-98800990D01*
X86933884Y-98800990D02*
X86881503Y-98848609D01*
X86881503Y-98848609D02*
X86776741Y-98896228D01*
X86776741Y-98896228D02*
X86357693Y-98896228D01*
X87457693Y-99372419D02*
X87457693Y-98372419D01*
X88191027Y-98372419D02*
X88400551Y-98372419D01*
X88400551Y-98372419D02*
X88505313Y-98420038D01*
X88505313Y-98420038D02*
X88610075Y-98515276D01*
X88610075Y-98515276D02*
X88662456Y-98705752D01*
X88662456Y-98705752D02*
X88662456Y-99039085D01*
X88662456Y-99039085D02*
X88610075Y-99229561D01*
X88610075Y-99229561D02*
X88505313Y-99324800D01*
X88505313Y-99324800D02*
X88400551Y-99372419D01*
X88400551Y-99372419D02*
X88191027Y-99372419D01*
X88191027Y-99372419D02*
X88086265Y-99324800D01*
X88086265Y-99324800D02*
X87981503Y-99229561D01*
X87981503Y-99229561D02*
X87929122Y-99039085D01*
X87929122Y-99039085D02*
X87929122Y-98705752D01*
X87929122Y-98705752D02*
X87981503Y-98515276D01*
X87981503Y-98515276D02*
X88086265Y-98420038D01*
X88086265Y-98420038D02*
X88191027Y-98372419D01*
X89710075Y-99372419D02*
X89081503Y-99372419D01*
X89395789Y-99372419D02*
X89395789Y-98372419D01*
X89395789Y-98372419D02*
X89291027Y-98515276D01*
X89291027Y-98515276D02*
X89186265Y-98610514D01*
X89186265Y-98610514D02*
X89081503Y-98658133D01*
X90076741Y-98372419D02*
X90810075Y-98372419D01*
X90810075Y-98372419D02*
X90338646Y-99372419D01*
X85833884Y-100920038D02*
X85729122Y-100872419D01*
X85729122Y-100872419D02*
X85571979Y-100872419D01*
X85571979Y-100872419D02*
X85414836Y-100920038D01*
X85414836Y-100920038D02*
X85310074Y-101015276D01*
X85310074Y-101015276D02*
X85257693Y-101110514D01*
X85257693Y-101110514D02*
X85205312Y-101300990D01*
X85205312Y-101300990D02*
X85205312Y-101443847D01*
X85205312Y-101443847D02*
X85257693Y-101634323D01*
X85257693Y-101634323D02*
X85310074Y-101729561D01*
X85310074Y-101729561D02*
X85414836Y-101824800D01*
X85414836Y-101824800D02*
X85571979Y-101872419D01*
X85571979Y-101872419D02*
X85676741Y-101872419D01*
X85676741Y-101872419D02*
X85833884Y-101824800D01*
X85833884Y-101824800D02*
X85886265Y-101777180D01*
X85886265Y-101777180D02*
X85886265Y-101443847D01*
X85886265Y-101443847D02*
X85676741Y-101443847D01*
X86357693Y-101872419D02*
X86357693Y-100872419D01*
X86357693Y-100872419D02*
X86776741Y-100872419D01*
X86776741Y-100872419D02*
X86881503Y-100920038D01*
X86881503Y-100920038D02*
X86933884Y-100967657D01*
X86933884Y-100967657D02*
X86986265Y-101062895D01*
X86986265Y-101062895D02*
X86986265Y-101205752D01*
X86986265Y-101205752D02*
X86933884Y-101300990D01*
X86933884Y-101300990D02*
X86881503Y-101348609D01*
X86881503Y-101348609D02*
X86776741Y-101396228D01*
X86776741Y-101396228D02*
X86357693Y-101396228D01*
X87457693Y-101872419D02*
X87457693Y-100872419D01*
X88191027Y-100872419D02*
X88400551Y-100872419D01*
X88400551Y-100872419D02*
X88505313Y-100920038D01*
X88505313Y-100920038D02*
X88610075Y-101015276D01*
X88610075Y-101015276D02*
X88662456Y-101205752D01*
X88662456Y-101205752D02*
X88662456Y-101539085D01*
X88662456Y-101539085D02*
X88610075Y-101729561D01*
X88610075Y-101729561D02*
X88505313Y-101824800D01*
X88505313Y-101824800D02*
X88400551Y-101872419D01*
X88400551Y-101872419D02*
X88191027Y-101872419D01*
X88191027Y-101872419D02*
X88086265Y-101824800D01*
X88086265Y-101824800D02*
X87981503Y-101729561D01*
X87981503Y-101729561D02*
X87929122Y-101539085D01*
X87929122Y-101539085D02*
X87929122Y-101205752D01*
X87929122Y-101205752D02*
X87981503Y-101015276D01*
X87981503Y-101015276D02*
X88086265Y-100920038D01*
X88086265Y-100920038D02*
X88191027Y-100872419D01*
X89710075Y-101872419D02*
X89081503Y-101872419D01*
X89395789Y-101872419D02*
X89395789Y-100872419D01*
X89395789Y-100872419D02*
X89291027Y-101015276D01*
X89291027Y-101015276D02*
X89186265Y-101110514D01*
X89186265Y-101110514D02*
X89081503Y-101158133D01*
X90652932Y-100872419D02*
X90443408Y-100872419D01*
X90443408Y-100872419D02*
X90338646Y-100920038D01*
X90338646Y-100920038D02*
X90286265Y-100967657D01*
X90286265Y-100967657D02*
X90181503Y-101110514D01*
X90181503Y-101110514D02*
X90129122Y-101300990D01*
X90129122Y-101300990D02*
X90129122Y-101681942D01*
X90129122Y-101681942D02*
X90181503Y-101777180D01*
X90181503Y-101777180D02*
X90233884Y-101824800D01*
X90233884Y-101824800D02*
X90338646Y-101872419D01*
X90338646Y-101872419D02*
X90548170Y-101872419D01*
X90548170Y-101872419D02*
X90652932Y-101824800D01*
X90652932Y-101824800D02*
X90705313Y-101777180D01*
X90705313Y-101777180D02*
X90757694Y-101681942D01*
X90757694Y-101681942D02*
X90757694Y-101443847D01*
X90757694Y-101443847D02*
X90705313Y-101348609D01*
X90705313Y-101348609D02*
X90652932Y-101300990D01*
X90652932Y-101300990D02*
X90548170Y-101253371D01*
X90548170Y-101253371D02*
X90338646Y-101253371D01*
X90338646Y-101253371D02*
X90233884Y-101300990D01*
X90233884Y-101300990D02*
X90181503Y-101348609D01*
X90181503Y-101348609D02*
X90129122Y-101443847D01*
X85833884Y-108420038D02*
X85729122Y-108372419D01*
X85729122Y-108372419D02*
X85571979Y-108372419D01*
X85571979Y-108372419D02*
X85414836Y-108420038D01*
X85414836Y-108420038D02*
X85310074Y-108515276D01*
X85310074Y-108515276D02*
X85257693Y-108610514D01*
X85257693Y-108610514D02*
X85205312Y-108800990D01*
X85205312Y-108800990D02*
X85205312Y-108943847D01*
X85205312Y-108943847D02*
X85257693Y-109134323D01*
X85257693Y-109134323D02*
X85310074Y-109229561D01*
X85310074Y-109229561D02*
X85414836Y-109324800D01*
X85414836Y-109324800D02*
X85571979Y-109372419D01*
X85571979Y-109372419D02*
X85676741Y-109372419D01*
X85676741Y-109372419D02*
X85833884Y-109324800D01*
X85833884Y-109324800D02*
X85886265Y-109277180D01*
X85886265Y-109277180D02*
X85886265Y-108943847D01*
X85886265Y-108943847D02*
X85676741Y-108943847D01*
X86357693Y-109372419D02*
X86357693Y-108372419D01*
X86357693Y-108372419D02*
X86776741Y-108372419D01*
X86776741Y-108372419D02*
X86881503Y-108420038D01*
X86881503Y-108420038D02*
X86933884Y-108467657D01*
X86933884Y-108467657D02*
X86986265Y-108562895D01*
X86986265Y-108562895D02*
X86986265Y-108705752D01*
X86986265Y-108705752D02*
X86933884Y-108800990D01*
X86933884Y-108800990D02*
X86881503Y-108848609D01*
X86881503Y-108848609D02*
X86776741Y-108896228D01*
X86776741Y-108896228D02*
X86357693Y-108896228D01*
X87457693Y-109372419D02*
X87457693Y-108372419D01*
X88191027Y-108372419D02*
X88400551Y-108372419D01*
X88400551Y-108372419D02*
X88505313Y-108420038D01*
X88505313Y-108420038D02*
X88610075Y-108515276D01*
X88610075Y-108515276D02*
X88662456Y-108705752D01*
X88662456Y-108705752D02*
X88662456Y-109039085D01*
X88662456Y-109039085D02*
X88610075Y-109229561D01*
X88610075Y-109229561D02*
X88505313Y-109324800D01*
X88505313Y-109324800D02*
X88400551Y-109372419D01*
X88400551Y-109372419D02*
X88191027Y-109372419D01*
X88191027Y-109372419D02*
X88086265Y-109324800D01*
X88086265Y-109324800D02*
X87981503Y-109229561D01*
X87981503Y-109229561D02*
X87929122Y-109039085D01*
X87929122Y-109039085D02*
X87929122Y-108705752D01*
X87929122Y-108705752D02*
X87981503Y-108515276D01*
X87981503Y-108515276D02*
X88086265Y-108420038D01*
X88086265Y-108420038D02*
X88191027Y-108372419D01*
X89710075Y-109372419D02*
X89081503Y-109372419D01*
X89395789Y-109372419D02*
X89395789Y-108372419D01*
X89395789Y-108372419D02*
X89291027Y-108515276D01*
X89291027Y-108515276D02*
X89186265Y-108610514D01*
X89186265Y-108610514D02*
X89081503Y-108658133D01*
X90705313Y-108372419D02*
X90181503Y-108372419D01*
X90181503Y-108372419D02*
X90129122Y-108848609D01*
X90129122Y-108848609D02*
X90181503Y-108800990D01*
X90181503Y-108800990D02*
X90286265Y-108753371D01*
X90286265Y-108753371D02*
X90548170Y-108753371D01*
X90548170Y-108753371D02*
X90652932Y-108800990D01*
X90652932Y-108800990D02*
X90705313Y-108848609D01*
X90705313Y-108848609D02*
X90757694Y-108943847D01*
X90757694Y-108943847D02*
X90757694Y-109181942D01*
X90757694Y-109181942D02*
X90705313Y-109277180D01*
X90705313Y-109277180D02*
X90652932Y-109324800D01*
X90652932Y-109324800D02*
X90548170Y-109372419D01*
X90548170Y-109372419D02*
X90286265Y-109372419D01*
X90286265Y-109372419D02*
X90181503Y-109324800D01*
X90181503Y-109324800D02*
X90129122Y-109277180D01*
X86833884Y-82920038D02*
X86729122Y-82872419D01*
X86729122Y-82872419D02*
X86571979Y-82872419D01*
X86571979Y-82872419D02*
X86414836Y-82920038D01*
X86414836Y-82920038D02*
X86310074Y-83015276D01*
X86310074Y-83015276D02*
X86257693Y-83110514D01*
X86257693Y-83110514D02*
X86205312Y-83300990D01*
X86205312Y-83300990D02*
X86205312Y-83443847D01*
X86205312Y-83443847D02*
X86257693Y-83634323D01*
X86257693Y-83634323D02*
X86310074Y-83729561D01*
X86310074Y-83729561D02*
X86414836Y-83824800D01*
X86414836Y-83824800D02*
X86571979Y-83872419D01*
X86571979Y-83872419D02*
X86676741Y-83872419D01*
X86676741Y-83872419D02*
X86833884Y-83824800D01*
X86833884Y-83824800D02*
X86886265Y-83777180D01*
X86886265Y-83777180D02*
X86886265Y-83443847D01*
X86886265Y-83443847D02*
X86676741Y-83443847D01*
X87357693Y-83872419D02*
X87357693Y-82872419D01*
X87357693Y-82872419D02*
X87776741Y-82872419D01*
X87776741Y-82872419D02*
X87881503Y-82920038D01*
X87881503Y-82920038D02*
X87933884Y-82967657D01*
X87933884Y-82967657D02*
X87986265Y-83062895D01*
X87986265Y-83062895D02*
X87986265Y-83205752D01*
X87986265Y-83205752D02*
X87933884Y-83300990D01*
X87933884Y-83300990D02*
X87881503Y-83348609D01*
X87881503Y-83348609D02*
X87776741Y-83396228D01*
X87776741Y-83396228D02*
X87357693Y-83396228D01*
X88457693Y-83872419D02*
X88457693Y-82872419D01*
X89191027Y-82872419D02*
X89400551Y-82872419D01*
X89400551Y-82872419D02*
X89505313Y-82920038D01*
X89505313Y-82920038D02*
X89610075Y-83015276D01*
X89610075Y-83015276D02*
X89662456Y-83205752D01*
X89662456Y-83205752D02*
X89662456Y-83539085D01*
X89662456Y-83539085D02*
X89610075Y-83729561D01*
X89610075Y-83729561D02*
X89505313Y-83824800D01*
X89505313Y-83824800D02*
X89400551Y-83872419D01*
X89400551Y-83872419D02*
X89191027Y-83872419D01*
X89191027Y-83872419D02*
X89086265Y-83824800D01*
X89086265Y-83824800D02*
X88981503Y-83729561D01*
X88981503Y-83729561D02*
X88929122Y-83539085D01*
X88929122Y-83539085D02*
X88929122Y-83205752D01*
X88929122Y-83205752D02*
X88981503Y-83015276D01*
X88981503Y-83015276D02*
X89086265Y-82920038D01*
X89086265Y-82920038D02*
X89191027Y-82872419D01*
X90710075Y-83872419D02*
X90081503Y-83872419D01*
X90395789Y-83872419D02*
X90395789Y-82872419D01*
X90395789Y-82872419D02*
X90291027Y-83015276D01*
X90291027Y-83015276D02*
X90186265Y-83110514D01*
X90186265Y-83110514D02*
X90081503Y-83158133D01*
X86833884Y-85920038D02*
X86729122Y-85872419D01*
X86729122Y-85872419D02*
X86571979Y-85872419D01*
X86571979Y-85872419D02*
X86414836Y-85920038D01*
X86414836Y-85920038D02*
X86310074Y-86015276D01*
X86310074Y-86015276D02*
X86257693Y-86110514D01*
X86257693Y-86110514D02*
X86205312Y-86300990D01*
X86205312Y-86300990D02*
X86205312Y-86443847D01*
X86205312Y-86443847D02*
X86257693Y-86634323D01*
X86257693Y-86634323D02*
X86310074Y-86729561D01*
X86310074Y-86729561D02*
X86414836Y-86824800D01*
X86414836Y-86824800D02*
X86571979Y-86872419D01*
X86571979Y-86872419D02*
X86676741Y-86872419D01*
X86676741Y-86872419D02*
X86833884Y-86824800D01*
X86833884Y-86824800D02*
X86886265Y-86777180D01*
X86886265Y-86777180D02*
X86886265Y-86443847D01*
X86886265Y-86443847D02*
X86676741Y-86443847D01*
X87357693Y-86872419D02*
X87357693Y-85872419D01*
X87357693Y-85872419D02*
X87776741Y-85872419D01*
X87776741Y-85872419D02*
X87881503Y-85920038D01*
X87881503Y-85920038D02*
X87933884Y-85967657D01*
X87933884Y-85967657D02*
X87986265Y-86062895D01*
X87986265Y-86062895D02*
X87986265Y-86205752D01*
X87986265Y-86205752D02*
X87933884Y-86300990D01*
X87933884Y-86300990D02*
X87881503Y-86348609D01*
X87881503Y-86348609D02*
X87776741Y-86396228D01*
X87776741Y-86396228D02*
X87357693Y-86396228D01*
X88457693Y-86872419D02*
X88457693Y-85872419D01*
X89191027Y-85872419D02*
X89400551Y-85872419D01*
X89400551Y-85872419D02*
X89505313Y-85920038D01*
X89505313Y-85920038D02*
X89610075Y-86015276D01*
X89610075Y-86015276D02*
X89662456Y-86205752D01*
X89662456Y-86205752D02*
X89662456Y-86539085D01*
X89662456Y-86539085D02*
X89610075Y-86729561D01*
X89610075Y-86729561D02*
X89505313Y-86824800D01*
X89505313Y-86824800D02*
X89400551Y-86872419D01*
X89400551Y-86872419D02*
X89191027Y-86872419D01*
X89191027Y-86872419D02*
X89086265Y-86824800D01*
X89086265Y-86824800D02*
X88981503Y-86729561D01*
X88981503Y-86729561D02*
X88929122Y-86539085D01*
X88929122Y-86539085D02*
X88929122Y-86205752D01*
X88929122Y-86205752D02*
X88981503Y-86015276D01*
X88981503Y-86015276D02*
X89086265Y-85920038D01*
X89086265Y-85920038D02*
X89191027Y-85872419D01*
X90029122Y-85872419D02*
X90710075Y-85872419D01*
X90710075Y-85872419D02*
X90343408Y-86253371D01*
X90343408Y-86253371D02*
X90500551Y-86253371D01*
X90500551Y-86253371D02*
X90605313Y-86300990D01*
X90605313Y-86300990D02*
X90657694Y-86348609D01*
X90657694Y-86348609D02*
X90710075Y-86443847D01*
X90710075Y-86443847D02*
X90710075Y-86681942D01*
X90710075Y-86681942D02*
X90657694Y-86777180D01*
X90657694Y-86777180D02*
X90605313Y-86824800D01*
X90605313Y-86824800D02*
X90500551Y-86872419D01*
X90500551Y-86872419D02*
X90186265Y-86872419D01*
X90186265Y-86872419D02*
X90081503Y-86824800D01*
X90081503Y-86824800D02*
X90029122Y-86777180D01*
X86833884Y-95920038D02*
X86729122Y-95872419D01*
X86729122Y-95872419D02*
X86571979Y-95872419D01*
X86571979Y-95872419D02*
X86414836Y-95920038D01*
X86414836Y-95920038D02*
X86310074Y-96015276D01*
X86310074Y-96015276D02*
X86257693Y-96110514D01*
X86257693Y-96110514D02*
X86205312Y-96300990D01*
X86205312Y-96300990D02*
X86205312Y-96443847D01*
X86205312Y-96443847D02*
X86257693Y-96634323D01*
X86257693Y-96634323D02*
X86310074Y-96729561D01*
X86310074Y-96729561D02*
X86414836Y-96824800D01*
X86414836Y-96824800D02*
X86571979Y-96872419D01*
X86571979Y-96872419D02*
X86676741Y-96872419D01*
X86676741Y-96872419D02*
X86833884Y-96824800D01*
X86833884Y-96824800D02*
X86886265Y-96777180D01*
X86886265Y-96777180D02*
X86886265Y-96443847D01*
X86886265Y-96443847D02*
X86676741Y-96443847D01*
X87357693Y-96872419D02*
X87357693Y-95872419D01*
X87357693Y-95872419D02*
X87776741Y-95872419D01*
X87776741Y-95872419D02*
X87881503Y-95920038D01*
X87881503Y-95920038D02*
X87933884Y-95967657D01*
X87933884Y-95967657D02*
X87986265Y-96062895D01*
X87986265Y-96062895D02*
X87986265Y-96205752D01*
X87986265Y-96205752D02*
X87933884Y-96300990D01*
X87933884Y-96300990D02*
X87881503Y-96348609D01*
X87881503Y-96348609D02*
X87776741Y-96396228D01*
X87776741Y-96396228D02*
X87357693Y-96396228D01*
X88457693Y-96872419D02*
X88457693Y-95872419D01*
X89191027Y-95872419D02*
X89400551Y-95872419D01*
X89400551Y-95872419D02*
X89505313Y-95920038D01*
X89505313Y-95920038D02*
X89610075Y-96015276D01*
X89610075Y-96015276D02*
X89662456Y-96205752D01*
X89662456Y-96205752D02*
X89662456Y-96539085D01*
X89662456Y-96539085D02*
X89610075Y-96729561D01*
X89610075Y-96729561D02*
X89505313Y-96824800D01*
X89505313Y-96824800D02*
X89400551Y-96872419D01*
X89400551Y-96872419D02*
X89191027Y-96872419D01*
X89191027Y-96872419D02*
X89086265Y-96824800D01*
X89086265Y-96824800D02*
X88981503Y-96729561D01*
X88981503Y-96729561D02*
X88929122Y-96539085D01*
X88929122Y-96539085D02*
X88929122Y-96205752D01*
X88929122Y-96205752D02*
X88981503Y-96015276D01*
X88981503Y-96015276D02*
X89086265Y-95920038D01*
X89086265Y-95920038D02*
X89191027Y-95872419D01*
X90657694Y-95872419D02*
X90133884Y-95872419D01*
X90133884Y-95872419D02*
X90081503Y-96348609D01*
X90081503Y-96348609D02*
X90133884Y-96300990D01*
X90133884Y-96300990D02*
X90238646Y-96253371D01*
X90238646Y-96253371D02*
X90500551Y-96253371D01*
X90500551Y-96253371D02*
X90605313Y-96300990D01*
X90605313Y-96300990D02*
X90657694Y-96348609D01*
X90657694Y-96348609D02*
X90710075Y-96443847D01*
X90710075Y-96443847D02*
X90710075Y-96681942D01*
X90710075Y-96681942D02*
X90657694Y-96777180D01*
X90657694Y-96777180D02*
X90605313Y-96824800D01*
X90605313Y-96824800D02*
X90500551Y-96872419D01*
X90500551Y-96872419D02*
X90238646Y-96872419D01*
X90238646Y-96872419D02*
X90133884Y-96824800D01*
X90133884Y-96824800D02*
X90081503Y-96777180D01*
X86833884Y-103420038D02*
X86729122Y-103372419D01*
X86729122Y-103372419D02*
X86571979Y-103372419D01*
X86571979Y-103372419D02*
X86414836Y-103420038D01*
X86414836Y-103420038D02*
X86310074Y-103515276D01*
X86310074Y-103515276D02*
X86257693Y-103610514D01*
X86257693Y-103610514D02*
X86205312Y-103800990D01*
X86205312Y-103800990D02*
X86205312Y-103943847D01*
X86205312Y-103943847D02*
X86257693Y-104134323D01*
X86257693Y-104134323D02*
X86310074Y-104229561D01*
X86310074Y-104229561D02*
X86414836Y-104324800D01*
X86414836Y-104324800D02*
X86571979Y-104372419D01*
X86571979Y-104372419D02*
X86676741Y-104372419D01*
X86676741Y-104372419D02*
X86833884Y-104324800D01*
X86833884Y-104324800D02*
X86886265Y-104277180D01*
X86886265Y-104277180D02*
X86886265Y-103943847D01*
X86886265Y-103943847D02*
X86676741Y-103943847D01*
X87357693Y-104372419D02*
X87357693Y-103372419D01*
X87357693Y-103372419D02*
X87776741Y-103372419D01*
X87776741Y-103372419D02*
X87881503Y-103420038D01*
X87881503Y-103420038D02*
X87933884Y-103467657D01*
X87933884Y-103467657D02*
X87986265Y-103562895D01*
X87986265Y-103562895D02*
X87986265Y-103705752D01*
X87986265Y-103705752D02*
X87933884Y-103800990D01*
X87933884Y-103800990D02*
X87881503Y-103848609D01*
X87881503Y-103848609D02*
X87776741Y-103896228D01*
X87776741Y-103896228D02*
X87357693Y-103896228D01*
X88457693Y-104372419D02*
X88457693Y-103372419D01*
X89191027Y-103372419D02*
X89400551Y-103372419D01*
X89400551Y-103372419D02*
X89505313Y-103420038D01*
X89505313Y-103420038D02*
X89610075Y-103515276D01*
X89610075Y-103515276D02*
X89662456Y-103705752D01*
X89662456Y-103705752D02*
X89662456Y-104039085D01*
X89662456Y-104039085D02*
X89610075Y-104229561D01*
X89610075Y-104229561D02*
X89505313Y-104324800D01*
X89505313Y-104324800D02*
X89400551Y-104372419D01*
X89400551Y-104372419D02*
X89191027Y-104372419D01*
X89191027Y-104372419D02*
X89086265Y-104324800D01*
X89086265Y-104324800D02*
X88981503Y-104229561D01*
X88981503Y-104229561D02*
X88929122Y-104039085D01*
X88929122Y-104039085D02*
X88929122Y-103705752D01*
X88929122Y-103705752D02*
X88981503Y-103515276D01*
X88981503Y-103515276D02*
X89086265Y-103420038D01*
X89086265Y-103420038D02*
X89191027Y-103372419D01*
X90605313Y-103705752D02*
X90605313Y-104372419D01*
X90343408Y-103324800D02*
X90081503Y-104039085D01*
X90081503Y-104039085D02*
X90762456Y-104039085D01*
X86833884Y-105920038D02*
X86729122Y-105872419D01*
X86729122Y-105872419D02*
X86571979Y-105872419D01*
X86571979Y-105872419D02*
X86414836Y-105920038D01*
X86414836Y-105920038D02*
X86310074Y-106015276D01*
X86310074Y-106015276D02*
X86257693Y-106110514D01*
X86257693Y-106110514D02*
X86205312Y-106300990D01*
X86205312Y-106300990D02*
X86205312Y-106443847D01*
X86205312Y-106443847D02*
X86257693Y-106634323D01*
X86257693Y-106634323D02*
X86310074Y-106729561D01*
X86310074Y-106729561D02*
X86414836Y-106824800D01*
X86414836Y-106824800D02*
X86571979Y-106872419D01*
X86571979Y-106872419D02*
X86676741Y-106872419D01*
X86676741Y-106872419D02*
X86833884Y-106824800D01*
X86833884Y-106824800D02*
X86886265Y-106777180D01*
X86886265Y-106777180D02*
X86886265Y-106443847D01*
X86886265Y-106443847D02*
X86676741Y-106443847D01*
X87357693Y-106872419D02*
X87357693Y-105872419D01*
X87357693Y-105872419D02*
X87776741Y-105872419D01*
X87776741Y-105872419D02*
X87881503Y-105920038D01*
X87881503Y-105920038D02*
X87933884Y-105967657D01*
X87933884Y-105967657D02*
X87986265Y-106062895D01*
X87986265Y-106062895D02*
X87986265Y-106205752D01*
X87986265Y-106205752D02*
X87933884Y-106300990D01*
X87933884Y-106300990D02*
X87881503Y-106348609D01*
X87881503Y-106348609D02*
X87776741Y-106396228D01*
X87776741Y-106396228D02*
X87357693Y-106396228D01*
X88457693Y-106872419D02*
X88457693Y-105872419D01*
X89191027Y-105872419D02*
X89400551Y-105872419D01*
X89400551Y-105872419D02*
X89505313Y-105920038D01*
X89505313Y-105920038D02*
X89610075Y-106015276D01*
X89610075Y-106015276D02*
X89662456Y-106205752D01*
X89662456Y-106205752D02*
X89662456Y-106539085D01*
X89662456Y-106539085D02*
X89610075Y-106729561D01*
X89610075Y-106729561D02*
X89505313Y-106824800D01*
X89505313Y-106824800D02*
X89400551Y-106872419D01*
X89400551Y-106872419D02*
X89191027Y-106872419D01*
X89191027Y-106872419D02*
X89086265Y-106824800D01*
X89086265Y-106824800D02*
X88981503Y-106729561D01*
X88981503Y-106729561D02*
X88929122Y-106539085D01*
X88929122Y-106539085D02*
X88929122Y-106205752D01*
X88929122Y-106205752D02*
X88981503Y-106015276D01*
X88981503Y-106015276D02*
X89086265Y-105920038D01*
X89086265Y-105920038D02*
X89191027Y-105872419D01*
X90081503Y-105967657D02*
X90133884Y-105920038D01*
X90133884Y-105920038D02*
X90238646Y-105872419D01*
X90238646Y-105872419D02*
X90500551Y-105872419D01*
X90500551Y-105872419D02*
X90605313Y-105920038D01*
X90605313Y-105920038D02*
X90657694Y-105967657D01*
X90657694Y-105967657D02*
X90710075Y-106062895D01*
X90710075Y-106062895D02*
X90710075Y-106158133D01*
X90710075Y-106158133D02*
X90657694Y-106300990D01*
X90657694Y-106300990D02*
X90029122Y-106872419D01*
X90029122Y-106872419D02*
X90710075Y-106872419D01*
X88333884Y-110920038D02*
X88229122Y-110872419D01*
X88229122Y-110872419D02*
X88071979Y-110872419D01*
X88071979Y-110872419D02*
X87914836Y-110920038D01*
X87914836Y-110920038D02*
X87810074Y-111015276D01*
X87810074Y-111015276D02*
X87757693Y-111110514D01*
X87757693Y-111110514D02*
X87705312Y-111300990D01*
X87705312Y-111300990D02*
X87705312Y-111443847D01*
X87705312Y-111443847D02*
X87757693Y-111634323D01*
X87757693Y-111634323D02*
X87810074Y-111729561D01*
X87810074Y-111729561D02*
X87914836Y-111824800D01*
X87914836Y-111824800D02*
X88071979Y-111872419D01*
X88071979Y-111872419D02*
X88176741Y-111872419D01*
X88176741Y-111872419D02*
X88333884Y-111824800D01*
X88333884Y-111824800D02*
X88386265Y-111777180D01*
X88386265Y-111777180D02*
X88386265Y-111443847D01*
X88386265Y-111443847D02*
X88176741Y-111443847D01*
X88857693Y-111872419D02*
X88857693Y-110872419D01*
X88857693Y-110872419D02*
X89486265Y-111872419D01*
X89486265Y-111872419D02*
X89486265Y-110872419D01*
X90010074Y-111872419D02*
X90010074Y-110872419D01*
X90010074Y-110872419D02*
X90271979Y-110872419D01*
X90271979Y-110872419D02*
X90429122Y-110920038D01*
X90429122Y-110920038D02*
X90533884Y-111015276D01*
X90533884Y-111015276D02*
X90586265Y-111110514D01*
X90586265Y-111110514D02*
X90638646Y-111300990D01*
X90638646Y-111300990D02*
X90638646Y-111443847D01*
X90638646Y-111443847D02*
X90586265Y-111634323D01*
X90586265Y-111634323D02*
X90533884Y-111729561D01*
X90533884Y-111729561D02*
X90429122Y-111824800D01*
X90429122Y-111824800D02*
X90271979Y-111872419D01*
X90271979Y-111872419D02*
X90010074Y-111872419D01*
X87652931Y-113372419D02*
X88333884Y-113372419D01*
X88333884Y-113372419D02*
X87967217Y-113753371D01*
X87967217Y-113753371D02*
X88124360Y-113753371D01*
X88124360Y-113753371D02*
X88229122Y-113800990D01*
X88229122Y-113800990D02*
X88281503Y-113848609D01*
X88281503Y-113848609D02*
X88333884Y-113943847D01*
X88333884Y-113943847D02*
X88333884Y-114181942D01*
X88333884Y-114181942D02*
X88281503Y-114277180D01*
X88281503Y-114277180D02*
X88229122Y-114324800D01*
X88229122Y-114324800D02*
X88124360Y-114372419D01*
X88124360Y-114372419D02*
X87810074Y-114372419D01*
X87810074Y-114372419D02*
X87705312Y-114324800D01*
X87705312Y-114324800D02*
X87652931Y-114277180D01*
X88805312Y-114277180D02*
X88857693Y-114324800D01*
X88857693Y-114324800D02*
X88805312Y-114372419D01*
X88805312Y-114372419D02*
X88752931Y-114324800D01*
X88752931Y-114324800D02*
X88805312Y-114277180D01*
X88805312Y-114277180D02*
X88805312Y-114372419D01*
X89224360Y-113372419D02*
X89905313Y-113372419D01*
X89905313Y-113372419D02*
X89538646Y-113753371D01*
X89538646Y-113753371D02*
X89695789Y-113753371D01*
X89695789Y-113753371D02*
X89800551Y-113800990D01*
X89800551Y-113800990D02*
X89852932Y-113848609D01*
X89852932Y-113848609D02*
X89905313Y-113943847D01*
X89905313Y-113943847D02*
X89905313Y-114181942D01*
X89905313Y-114181942D02*
X89852932Y-114277180D01*
X89852932Y-114277180D02*
X89800551Y-114324800D01*
X89800551Y-114324800D02*
X89695789Y-114372419D01*
X89695789Y-114372419D02*
X89381503Y-114372419D01*
X89381503Y-114372419D02*
X89276741Y-114324800D01*
X89276741Y-114324800D02*
X89224360Y-114277180D01*
X90271979Y-113705752D02*
X90533884Y-114372419D01*
X90533884Y-114372419D02*
X90795789Y-113705752D01*
D13*
X98461905Y-106454819D02*
X99033333Y-106454819D01*
X98747619Y-107454819D02*
X98747619Y-106454819D01*
X99366667Y-107454819D02*
X99366667Y-106454819D01*
X99366667Y-106454819D02*
X99747619Y-106454819D01*
X99747619Y-106454819D02*
X99842857Y-106502438D01*
X99842857Y-106502438D02*
X99890476Y-106550057D01*
X99890476Y-106550057D02*
X99938095Y-106645295D01*
X99938095Y-106645295D02*
X99938095Y-106788152D01*
X99938095Y-106788152D02*
X99890476Y-106883390D01*
X99890476Y-106883390D02*
X99842857Y-106931009D01*
X99842857Y-106931009D02*
X99747619Y-106978628D01*
X99747619Y-106978628D02*
X99366667Y-106978628D01*
X100890476Y-107454819D02*
X100319048Y-107454819D01*
X100604762Y-107454819D02*
X100604762Y-106454819D01*
X100604762Y-106454819D02*
X100509524Y-106597676D01*
X100509524Y-106597676D02*
X100414286Y-106692914D01*
X100414286Y-106692914D02*
X100319048Y-106740533D01*
X101271429Y-106550057D02*
X101319048Y-106502438D01*
X101319048Y-106502438D02*
X101414286Y-106454819D01*
X101414286Y-106454819D02*
X101652381Y-106454819D01*
X101652381Y-106454819D02*
X101747619Y-106502438D01*
X101747619Y-106502438D02*
X101795238Y-106550057D01*
X101795238Y-106550057D02*
X101842857Y-106645295D01*
X101842857Y-106645295D02*
X101842857Y-106740533D01*
X101842857Y-106740533D02*
X101795238Y-106883390D01*
X101795238Y-106883390D02*
X101223810Y-107454819D01*
X101223810Y-107454819D02*
X101842857Y-107454819D01*
X58666666Y-74454819D02*
X58666666Y-75169104D01*
X58666666Y-75169104D02*
X58619047Y-75311961D01*
X58619047Y-75311961D02*
X58523809Y-75407200D01*
X58523809Y-75407200D02*
X58380952Y-75454819D01*
X58380952Y-75454819D02*
X58285714Y-75454819D01*
X59571428Y-74454819D02*
X59380952Y-74454819D01*
X59380952Y-74454819D02*
X59285714Y-74502438D01*
X59285714Y-74502438D02*
X59238095Y-74550057D01*
X59238095Y-74550057D02*
X59142857Y-74692914D01*
X59142857Y-74692914D02*
X59095238Y-74883390D01*
X59095238Y-74883390D02*
X59095238Y-75264342D01*
X59095238Y-75264342D02*
X59142857Y-75359580D01*
X59142857Y-75359580D02*
X59190476Y-75407200D01*
X59190476Y-75407200D02*
X59285714Y-75454819D01*
X59285714Y-75454819D02*
X59476190Y-75454819D01*
X59476190Y-75454819D02*
X59571428Y-75407200D01*
X59571428Y-75407200D02*
X59619047Y-75359580D01*
X59619047Y-75359580D02*
X59666666Y-75264342D01*
X59666666Y-75264342D02*
X59666666Y-75026247D01*
X59666666Y-75026247D02*
X59619047Y-74931009D01*
X59619047Y-74931009D02*
X59571428Y-74883390D01*
X59571428Y-74883390D02*
X59476190Y-74835771D01*
X59476190Y-74835771D02*
X59285714Y-74835771D01*
X59285714Y-74835771D02*
X59190476Y-74883390D01*
X59190476Y-74883390D02*
X59142857Y-74931009D01*
X59142857Y-74931009D02*
X59095238Y-75026247D01*
X62438095Y-95954819D02*
X63009523Y-95954819D01*
X62723809Y-96954819D02*
X62723809Y-95954819D01*
X63342857Y-96954819D02*
X63342857Y-95954819D01*
X63342857Y-95954819D02*
X63723809Y-95954819D01*
X63723809Y-95954819D02*
X63819047Y-96002438D01*
X63819047Y-96002438D02*
X63866666Y-96050057D01*
X63866666Y-96050057D02*
X63914285Y-96145295D01*
X63914285Y-96145295D02*
X63914285Y-96288152D01*
X63914285Y-96288152D02*
X63866666Y-96383390D01*
X63866666Y-96383390D02*
X63819047Y-96431009D01*
X63819047Y-96431009D02*
X63723809Y-96478628D01*
X63723809Y-96478628D02*
X63342857Y-96478628D01*
X64295238Y-96050057D02*
X64342857Y-96002438D01*
X64342857Y-96002438D02*
X64438095Y-95954819D01*
X64438095Y-95954819D02*
X64676190Y-95954819D01*
X64676190Y-95954819D02*
X64771428Y-96002438D01*
X64771428Y-96002438D02*
X64819047Y-96050057D01*
X64819047Y-96050057D02*
X64866666Y-96145295D01*
X64866666Y-96145295D02*
X64866666Y-96240533D01*
X64866666Y-96240533D02*
X64819047Y-96383390D01*
X64819047Y-96383390D02*
X64247619Y-96954819D01*
X64247619Y-96954819D02*
X64866666Y-96954819D01*
X136190476Y-89374819D02*
X136190476Y-90089104D01*
X136190476Y-90089104D02*
X136142857Y-90231961D01*
X136142857Y-90231961D02*
X136047619Y-90327200D01*
X136047619Y-90327200D02*
X135904762Y-90374819D01*
X135904762Y-90374819D02*
X135809524Y-90374819D01*
X137190476Y-90374819D02*
X136619048Y-90374819D01*
X136904762Y-90374819D02*
X136904762Y-89374819D01*
X136904762Y-89374819D02*
X136809524Y-89517676D01*
X136809524Y-89517676D02*
X136714286Y-89612914D01*
X136714286Y-89612914D02*
X136619048Y-89660533D01*
X138047619Y-89708152D02*
X138047619Y-90374819D01*
X137809524Y-89327200D02*
X137571429Y-90041485D01*
X137571429Y-90041485D02*
X138190476Y-90041485D01*
X99533333Y-117159580D02*
X99485714Y-117207200D01*
X99485714Y-117207200D02*
X99342857Y-117254819D01*
X99342857Y-117254819D02*
X99247619Y-117254819D01*
X99247619Y-117254819D02*
X99104762Y-117207200D01*
X99104762Y-117207200D02*
X99009524Y-117111961D01*
X99009524Y-117111961D02*
X98961905Y-117016723D01*
X98961905Y-117016723D02*
X98914286Y-116826247D01*
X98914286Y-116826247D02*
X98914286Y-116683390D01*
X98914286Y-116683390D02*
X98961905Y-116492914D01*
X98961905Y-116492914D02*
X99009524Y-116397676D01*
X99009524Y-116397676D02*
X99104762Y-116302438D01*
X99104762Y-116302438D02*
X99247619Y-116254819D01*
X99247619Y-116254819D02*
X99342857Y-116254819D01*
X99342857Y-116254819D02*
X99485714Y-116302438D01*
X99485714Y-116302438D02*
X99533333Y-116350057D01*
X100485714Y-117254819D02*
X99914286Y-117254819D01*
X100200000Y-117254819D02*
X100200000Y-116254819D01*
X100200000Y-116254819D02*
X100104762Y-116397676D01*
X100104762Y-116397676D02*
X100009524Y-116492914D01*
X100009524Y-116492914D02*
X99914286Y-116540533D01*
X109804819Y-76079166D02*
X109328628Y-76412499D01*
X109804819Y-76650594D02*
X108804819Y-76650594D01*
X108804819Y-76650594D02*
X108804819Y-76269642D01*
X108804819Y-76269642D02*
X108852438Y-76174404D01*
X108852438Y-76174404D02*
X108900057Y-76126785D01*
X108900057Y-76126785D02*
X108995295Y-76079166D01*
X108995295Y-76079166D02*
X109138152Y-76079166D01*
X109138152Y-76079166D02*
X109233390Y-76126785D01*
X109233390Y-76126785D02*
X109281009Y-76174404D01*
X109281009Y-76174404D02*
X109328628Y-76269642D01*
X109328628Y-76269642D02*
X109328628Y-76650594D01*
X109138152Y-75222023D02*
X109804819Y-75222023D01*
X108757200Y-75460118D02*
X109471485Y-75698213D01*
X109471485Y-75698213D02*
X109471485Y-75079166D01*
X104961905Y-122454819D02*
X105533333Y-122454819D01*
X105247619Y-123454819D02*
X105247619Y-122454819D01*
X105866667Y-123454819D02*
X105866667Y-122454819D01*
X105866667Y-122454819D02*
X106247619Y-122454819D01*
X106247619Y-122454819D02*
X106342857Y-122502438D01*
X106342857Y-122502438D02*
X106390476Y-122550057D01*
X106390476Y-122550057D02*
X106438095Y-122645295D01*
X106438095Y-122645295D02*
X106438095Y-122788152D01*
X106438095Y-122788152D02*
X106390476Y-122883390D01*
X106390476Y-122883390D02*
X106342857Y-122931009D01*
X106342857Y-122931009D02*
X106247619Y-122978628D01*
X106247619Y-122978628D02*
X105866667Y-122978628D01*
X107390476Y-123454819D02*
X106819048Y-123454819D01*
X107104762Y-123454819D02*
X107104762Y-122454819D01*
X107104762Y-122454819D02*
X107009524Y-122597676D01*
X107009524Y-122597676D02*
X106914286Y-122692914D01*
X106914286Y-122692914D02*
X106819048Y-122740533D01*
X108247619Y-122788152D02*
X108247619Y-123454819D01*
X108009524Y-122407200D02*
X107771429Y-123121485D01*
X107771429Y-123121485D02*
X108390476Y-123121485D01*
X136666666Y-103074819D02*
X136666666Y-103789104D01*
X136666666Y-103789104D02*
X136619047Y-103931961D01*
X136619047Y-103931961D02*
X136523809Y-104027200D01*
X136523809Y-104027200D02*
X136380952Y-104074819D01*
X136380952Y-104074819D02*
X136285714Y-104074819D01*
X137619047Y-103074819D02*
X137142857Y-103074819D01*
X137142857Y-103074819D02*
X137095238Y-103551009D01*
X137095238Y-103551009D02*
X137142857Y-103503390D01*
X137142857Y-103503390D02*
X137238095Y-103455771D01*
X137238095Y-103455771D02*
X137476190Y-103455771D01*
X137476190Y-103455771D02*
X137571428Y-103503390D01*
X137571428Y-103503390D02*
X137619047Y-103551009D01*
X137619047Y-103551009D02*
X137666666Y-103646247D01*
X137666666Y-103646247D02*
X137666666Y-103884342D01*
X137666666Y-103884342D02*
X137619047Y-103979580D01*
X137619047Y-103979580D02*
X137571428Y-104027200D01*
X137571428Y-104027200D02*
X137476190Y-104074819D01*
X137476190Y-104074819D02*
X137238095Y-104074819D01*
X137238095Y-104074819D02*
X137142857Y-104027200D01*
X137142857Y-104027200D02*
X137095238Y-103979580D01*
X103961905Y-102954819D02*
X104533333Y-102954819D01*
X104247619Y-103954819D02*
X104247619Y-102954819D01*
X104866667Y-103954819D02*
X104866667Y-102954819D01*
X104866667Y-102954819D02*
X105247619Y-102954819D01*
X105247619Y-102954819D02*
X105342857Y-103002438D01*
X105342857Y-103002438D02*
X105390476Y-103050057D01*
X105390476Y-103050057D02*
X105438095Y-103145295D01*
X105438095Y-103145295D02*
X105438095Y-103288152D01*
X105438095Y-103288152D02*
X105390476Y-103383390D01*
X105390476Y-103383390D02*
X105342857Y-103431009D01*
X105342857Y-103431009D02*
X105247619Y-103478628D01*
X105247619Y-103478628D02*
X104866667Y-103478628D01*
X106390476Y-103954819D02*
X105819048Y-103954819D01*
X106104762Y-103954819D02*
X106104762Y-102954819D01*
X106104762Y-102954819D02*
X106009524Y-103097676D01*
X106009524Y-103097676D02*
X105914286Y-103192914D01*
X105914286Y-103192914D02*
X105819048Y-103240533D01*
X106723810Y-102954819D02*
X107342857Y-102954819D01*
X107342857Y-102954819D02*
X107009524Y-103335771D01*
X107009524Y-103335771D02*
X107152381Y-103335771D01*
X107152381Y-103335771D02*
X107247619Y-103383390D01*
X107247619Y-103383390D02*
X107295238Y-103431009D01*
X107295238Y-103431009D02*
X107342857Y-103526247D01*
X107342857Y-103526247D02*
X107342857Y-103764342D01*
X107342857Y-103764342D02*
X107295238Y-103859580D01*
X107295238Y-103859580D02*
X107247619Y-103907200D01*
X107247619Y-103907200D02*
X107152381Y-103954819D01*
X107152381Y-103954819D02*
X106866667Y-103954819D01*
X106866667Y-103954819D02*
X106771429Y-103907200D01*
X106771429Y-103907200D02*
X106723810Y-103859580D01*
X115954819Y-71309523D02*
X116669104Y-71309523D01*
X116669104Y-71309523D02*
X116811961Y-71357142D01*
X116811961Y-71357142D02*
X116907200Y-71452380D01*
X116907200Y-71452380D02*
X116954819Y-71595237D01*
X116954819Y-71595237D02*
X116954819Y-71690475D01*
X116954819Y-70309523D02*
X116954819Y-70880951D01*
X116954819Y-70595237D02*
X115954819Y-70595237D01*
X115954819Y-70595237D02*
X116097676Y-70690475D01*
X116097676Y-70690475D02*
X116192914Y-70785713D01*
X116192914Y-70785713D02*
X116240533Y-70880951D01*
X115954819Y-69976189D02*
X115954819Y-69357142D01*
X115954819Y-69357142D02*
X116335771Y-69690475D01*
X116335771Y-69690475D02*
X116335771Y-69547618D01*
X116335771Y-69547618D02*
X116383390Y-69452380D01*
X116383390Y-69452380D02*
X116431009Y-69404761D01*
X116431009Y-69404761D02*
X116526247Y-69357142D01*
X116526247Y-69357142D02*
X116764342Y-69357142D01*
X116764342Y-69357142D02*
X116859580Y-69404761D01*
X116859580Y-69404761D02*
X116907200Y-69452380D01*
X116907200Y-69452380D02*
X116954819Y-69547618D01*
X116954819Y-69547618D02*
X116954819Y-69833332D01*
X116954819Y-69833332D02*
X116907200Y-69928570D01*
X116907200Y-69928570D02*
X116859580Y-69976189D01*
X109914819Y-71309523D02*
X110629104Y-71309523D01*
X110629104Y-71309523D02*
X110771961Y-71357142D01*
X110771961Y-71357142D02*
X110867200Y-71452380D01*
X110867200Y-71452380D02*
X110914819Y-71595237D01*
X110914819Y-71595237D02*
X110914819Y-71690475D01*
X110914819Y-70309523D02*
X110914819Y-70880951D01*
X110914819Y-70595237D02*
X109914819Y-70595237D01*
X109914819Y-70595237D02*
X110057676Y-70690475D01*
X110057676Y-70690475D02*
X110152914Y-70785713D01*
X110152914Y-70785713D02*
X110200533Y-70880951D01*
X109914819Y-69690475D02*
X109914819Y-69595237D01*
X109914819Y-69595237D02*
X109962438Y-69499999D01*
X109962438Y-69499999D02*
X110010057Y-69452380D01*
X110010057Y-69452380D02*
X110105295Y-69404761D01*
X110105295Y-69404761D02*
X110295771Y-69357142D01*
X110295771Y-69357142D02*
X110533866Y-69357142D01*
X110533866Y-69357142D02*
X110724342Y-69404761D01*
X110724342Y-69404761D02*
X110819580Y-69452380D01*
X110819580Y-69452380D02*
X110867200Y-69499999D01*
X110867200Y-69499999D02*
X110914819Y-69595237D01*
X110914819Y-69595237D02*
X110914819Y-69690475D01*
X110914819Y-69690475D02*
X110867200Y-69785713D01*
X110867200Y-69785713D02*
X110819580Y-69833332D01*
X110819580Y-69833332D02*
X110724342Y-69880951D01*
X110724342Y-69880951D02*
X110533866Y-69928570D01*
X110533866Y-69928570D02*
X110295771Y-69928570D01*
X110295771Y-69928570D02*
X110105295Y-69880951D01*
X110105295Y-69880951D02*
X110010057Y-69833332D01*
X110010057Y-69833332D02*
X109962438Y-69785713D01*
X109962438Y-69785713D02*
X109914819Y-69690475D01*
X114239819Y-92078333D02*
X114954104Y-92078333D01*
X114954104Y-92078333D02*
X115096961Y-92125952D01*
X115096961Y-92125952D02*
X115192200Y-92221190D01*
X115192200Y-92221190D02*
X115239819Y-92364047D01*
X115239819Y-92364047D02*
X115239819Y-92459285D01*
X115239819Y-91078333D02*
X115239819Y-91649761D01*
X115239819Y-91364047D02*
X114239819Y-91364047D01*
X114239819Y-91364047D02*
X114382676Y-91459285D01*
X114382676Y-91459285D02*
X114477914Y-91554523D01*
X114477914Y-91554523D02*
X114525533Y-91649761D01*
X100304819Y-109254166D02*
X99828628Y-109587499D01*
X100304819Y-109825594D02*
X99304819Y-109825594D01*
X99304819Y-109825594D02*
X99304819Y-109444642D01*
X99304819Y-109444642D02*
X99352438Y-109349404D01*
X99352438Y-109349404D02*
X99400057Y-109301785D01*
X99400057Y-109301785D02*
X99495295Y-109254166D01*
X99495295Y-109254166D02*
X99638152Y-109254166D01*
X99638152Y-109254166D02*
X99733390Y-109301785D01*
X99733390Y-109301785D02*
X99781009Y-109349404D01*
X99781009Y-109349404D02*
X99828628Y-109444642D01*
X99828628Y-109444642D02*
X99828628Y-109825594D01*
X99400057Y-108873213D02*
X99352438Y-108825594D01*
X99352438Y-108825594D02*
X99304819Y-108730356D01*
X99304819Y-108730356D02*
X99304819Y-108492261D01*
X99304819Y-108492261D02*
X99352438Y-108397023D01*
X99352438Y-108397023D02*
X99400057Y-108349404D01*
X99400057Y-108349404D02*
X99495295Y-108301785D01*
X99495295Y-108301785D02*
X99590533Y-108301785D01*
X99590533Y-108301785D02*
X99733390Y-108349404D01*
X99733390Y-108349404D02*
X100304819Y-108920832D01*
X100304819Y-108920832D02*
X100304819Y-108301785D01*
X130961905Y-116454819D02*
X131533333Y-116454819D01*
X131247619Y-117454819D02*
X131247619Y-116454819D01*
X131866667Y-117454819D02*
X131866667Y-116454819D01*
X131866667Y-116454819D02*
X132247619Y-116454819D01*
X132247619Y-116454819D02*
X132342857Y-116502438D01*
X132342857Y-116502438D02*
X132390476Y-116550057D01*
X132390476Y-116550057D02*
X132438095Y-116645295D01*
X132438095Y-116645295D02*
X132438095Y-116788152D01*
X132438095Y-116788152D02*
X132390476Y-116883390D01*
X132390476Y-116883390D02*
X132342857Y-116931009D01*
X132342857Y-116931009D02*
X132247619Y-116978628D01*
X132247619Y-116978628D02*
X131866667Y-116978628D01*
X133390476Y-117454819D02*
X132819048Y-117454819D01*
X133104762Y-117454819D02*
X133104762Y-116454819D01*
X133104762Y-116454819D02*
X133009524Y-116597676D01*
X133009524Y-116597676D02*
X132914286Y-116692914D01*
X132914286Y-116692914D02*
X132819048Y-116740533D01*
X134342857Y-117454819D02*
X133771429Y-117454819D01*
X134057143Y-117454819D02*
X134057143Y-116454819D01*
X134057143Y-116454819D02*
X133961905Y-116597676D01*
X133961905Y-116597676D02*
X133866667Y-116692914D01*
X133866667Y-116692914D02*
X133771429Y-116740533D01*
X95961905Y-115954819D02*
X96533333Y-115954819D01*
X96247619Y-116954819D02*
X96247619Y-115954819D01*
X96866667Y-116954819D02*
X96866667Y-115954819D01*
X96866667Y-115954819D02*
X97247619Y-115954819D01*
X97247619Y-115954819D02*
X97342857Y-116002438D01*
X97342857Y-116002438D02*
X97390476Y-116050057D01*
X97390476Y-116050057D02*
X97438095Y-116145295D01*
X97438095Y-116145295D02*
X97438095Y-116288152D01*
X97438095Y-116288152D02*
X97390476Y-116383390D01*
X97390476Y-116383390D02*
X97342857Y-116431009D01*
X97342857Y-116431009D02*
X97247619Y-116478628D01*
X97247619Y-116478628D02*
X96866667Y-116478628D01*
X98390476Y-116954819D02*
X97819048Y-116954819D01*
X98104762Y-116954819D02*
X98104762Y-115954819D01*
X98104762Y-115954819D02*
X98009524Y-116097676D01*
X98009524Y-116097676D02*
X97914286Y-116192914D01*
X97914286Y-116192914D02*
X97819048Y-116240533D01*
X99295238Y-115954819D02*
X98819048Y-115954819D01*
X98819048Y-115954819D02*
X98771429Y-116431009D01*
X98771429Y-116431009D02*
X98819048Y-116383390D01*
X98819048Y-116383390D02*
X98914286Y-116335771D01*
X98914286Y-116335771D02*
X99152381Y-116335771D01*
X99152381Y-116335771D02*
X99247619Y-116383390D01*
X99247619Y-116383390D02*
X99295238Y-116431009D01*
X99295238Y-116431009D02*
X99342857Y-116526247D01*
X99342857Y-116526247D02*
X99342857Y-116764342D01*
X99342857Y-116764342D02*
X99295238Y-116859580D01*
X99295238Y-116859580D02*
X99247619Y-116907200D01*
X99247619Y-116907200D02*
X99152381Y-116954819D01*
X99152381Y-116954819D02*
X98914286Y-116954819D01*
X98914286Y-116954819D02*
X98819048Y-116907200D01*
X98819048Y-116907200D02*
X98771429Y-116859580D01*
X115516666Y-109154819D02*
X115516666Y-109869104D01*
X115516666Y-109869104D02*
X115469047Y-110011961D01*
X115469047Y-110011961D02*
X115373809Y-110107200D01*
X115373809Y-110107200D02*
X115230952Y-110154819D01*
X115230952Y-110154819D02*
X115135714Y-110154819D01*
X115992857Y-110154819D02*
X115992857Y-109154819D01*
X115992857Y-109154819D02*
X116373809Y-109154819D01*
X116373809Y-109154819D02*
X116469047Y-109202438D01*
X116469047Y-109202438D02*
X116516666Y-109250057D01*
X116516666Y-109250057D02*
X116564285Y-109345295D01*
X116564285Y-109345295D02*
X116564285Y-109488152D01*
X116564285Y-109488152D02*
X116516666Y-109583390D01*
X116516666Y-109583390D02*
X116469047Y-109631009D01*
X116469047Y-109631009D02*
X116373809Y-109678628D01*
X116373809Y-109678628D02*
X115992857Y-109678628D01*
X116945238Y-109250057D02*
X116992857Y-109202438D01*
X116992857Y-109202438D02*
X117088095Y-109154819D01*
X117088095Y-109154819D02*
X117326190Y-109154819D01*
X117326190Y-109154819D02*
X117421428Y-109202438D01*
X117421428Y-109202438D02*
X117469047Y-109250057D01*
X117469047Y-109250057D02*
X117516666Y-109345295D01*
X117516666Y-109345295D02*
X117516666Y-109440533D01*
X117516666Y-109440533D02*
X117469047Y-109583390D01*
X117469047Y-109583390D02*
X116897619Y-110154819D01*
X116897619Y-110154819D02*
X117516666Y-110154819D01*
X60833333Y-100159580D02*
X60785714Y-100207200D01*
X60785714Y-100207200D02*
X60642857Y-100254819D01*
X60642857Y-100254819D02*
X60547619Y-100254819D01*
X60547619Y-100254819D02*
X60404762Y-100207200D01*
X60404762Y-100207200D02*
X60309524Y-100111961D01*
X60309524Y-100111961D02*
X60261905Y-100016723D01*
X60261905Y-100016723D02*
X60214286Y-99826247D01*
X60214286Y-99826247D02*
X60214286Y-99683390D01*
X60214286Y-99683390D02*
X60261905Y-99492914D01*
X60261905Y-99492914D02*
X60309524Y-99397676D01*
X60309524Y-99397676D02*
X60404762Y-99302438D01*
X60404762Y-99302438D02*
X60547619Y-99254819D01*
X60547619Y-99254819D02*
X60642857Y-99254819D01*
X60642857Y-99254819D02*
X60785714Y-99302438D01*
X60785714Y-99302438D02*
X60833333Y-99350057D01*
X61166667Y-99254819D02*
X61785714Y-99254819D01*
X61785714Y-99254819D02*
X61452381Y-99635771D01*
X61452381Y-99635771D02*
X61595238Y-99635771D01*
X61595238Y-99635771D02*
X61690476Y-99683390D01*
X61690476Y-99683390D02*
X61738095Y-99731009D01*
X61738095Y-99731009D02*
X61785714Y-99826247D01*
X61785714Y-99826247D02*
X61785714Y-100064342D01*
X61785714Y-100064342D02*
X61738095Y-100159580D01*
X61738095Y-100159580D02*
X61690476Y-100207200D01*
X61690476Y-100207200D02*
X61595238Y-100254819D01*
X61595238Y-100254819D02*
X61309524Y-100254819D01*
X61309524Y-100254819D02*
X61214286Y-100207200D01*
X61214286Y-100207200D02*
X61166667Y-100159580D01*
X106854819Y-76079166D02*
X106378628Y-76412499D01*
X106854819Y-76650594D02*
X105854819Y-76650594D01*
X105854819Y-76650594D02*
X105854819Y-76269642D01*
X105854819Y-76269642D02*
X105902438Y-76174404D01*
X105902438Y-76174404D02*
X105950057Y-76126785D01*
X105950057Y-76126785D02*
X106045295Y-76079166D01*
X106045295Y-76079166D02*
X106188152Y-76079166D01*
X106188152Y-76079166D02*
X106283390Y-76126785D01*
X106283390Y-76126785D02*
X106331009Y-76174404D01*
X106331009Y-76174404D02*
X106378628Y-76269642D01*
X106378628Y-76269642D02*
X106378628Y-76650594D01*
X105854819Y-75745832D02*
X105854819Y-75126785D01*
X105854819Y-75126785D02*
X106235771Y-75460118D01*
X106235771Y-75460118D02*
X106235771Y-75317261D01*
X106235771Y-75317261D02*
X106283390Y-75222023D01*
X106283390Y-75222023D02*
X106331009Y-75174404D01*
X106331009Y-75174404D02*
X106426247Y-75126785D01*
X106426247Y-75126785D02*
X106664342Y-75126785D01*
X106664342Y-75126785D02*
X106759580Y-75174404D01*
X106759580Y-75174404D02*
X106807200Y-75222023D01*
X106807200Y-75222023D02*
X106854819Y-75317261D01*
X106854819Y-75317261D02*
X106854819Y-75602975D01*
X106854819Y-75602975D02*
X106807200Y-75698213D01*
X106807200Y-75698213D02*
X106759580Y-75745832D01*
X124396666Y-113734819D02*
X124396666Y-114449104D01*
X124396666Y-114449104D02*
X124349047Y-114591961D01*
X124349047Y-114591961D02*
X124253809Y-114687200D01*
X124253809Y-114687200D02*
X124110952Y-114734819D01*
X124110952Y-114734819D02*
X124015714Y-114734819D01*
X124777619Y-113734819D02*
X125396666Y-113734819D01*
X125396666Y-113734819D02*
X125063333Y-114115771D01*
X125063333Y-114115771D02*
X125206190Y-114115771D01*
X125206190Y-114115771D02*
X125301428Y-114163390D01*
X125301428Y-114163390D02*
X125349047Y-114211009D01*
X125349047Y-114211009D02*
X125396666Y-114306247D01*
X125396666Y-114306247D02*
X125396666Y-114544342D01*
X125396666Y-114544342D02*
X125349047Y-114639580D01*
X125349047Y-114639580D02*
X125301428Y-114687200D01*
X125301428Y-114687200D02*
X125206190Y-114734819D01*
X125206190Y-114734819D02*
X124920476Y-114734819D01*
X124920476Y-114734819D02*
X124825238Y-114687200D01*
X124825238Y-114687200D02*
X124777619Y-114639580D01*
X58438095Y-95954819D02*
X59009523Y-95954819D01*
X58723809Y-96954819D02*
X58723809Y-95954819D01*
X59342857Y-96954819D02*
X59342857Y-95954819D01*
X59342857Y-95954819D02*
X59723809Y-95954819D01*
X59723809Y-95954819D02*
X59819047Y-96002438D01*
X59819047Y-96002438D02*
X59866666Y-96050057D01*
X59866666Y-96050057D02*
X59914285Y-96145295D01*
X59914285Y-96145295D02*
X59914285Y-96288152D01*
X59914285Y-96288152D02*
X59866666Y-96383390D01*
X59866666Y-96383390D02*
X59819047Y-96431009D01*
X59819047Y-96431009D02*
X59723809Y-96478628D01*
X59723809Y-96478628D02*
X59342857Y-96478628D01*
X60866666Y-96954819D02*
X60295238Y-96954819D01*
X60580952Y-96954819D02*
X60580952Y-95954819D01*
X60580952Y-95954819D02*
X60485714Y-96097676D01*
X60485714Y-96097676D02*
X60390476Y-96192914D01*
X60390476Y-96192914D02*
X60295238Y-96240533D01*
X106875595Y-112054819D02*
X106875595Y-112864342D01*
X106875595Y-112864342D02*
X106923214Y-112959580D01*
X106923214Y-112959580D02*
X106970833Y-113007200D01*
X106970833Y-113007200D02*
X107066071Y-113054819D01*
X107066071Y-113054819D02*
X107256547Y-113054819D01*
X107256547Y-113054819D02*
X107351785Y-113007200D01*
X107351785Y-113007200D02*
X107399404Y-112959580D01*
X107399404Y-112959580D02*
X107447023Y-112864342D01*
X107447023Y-112864342D02*
X107447023Y-112054819D01*
X107875595Y-112150057D02*
X107923214Y-112102438D01*
X107923214Y-112102438D02*
X108018452Y-112054819D01*
X108018452Y-112054819D02*
X108256547Y-112054819D01*
X108256547Y-112054819D02*
X108351785Y-112102438D01*
X108351785Y-112102438D02*
X108399404Y-112150057D01*
X108399404Y-112150057D02*
X108447023Y-112245295D01*
X108447023Y-112245295D02*
X108447023Y-112340533D01*
X108447023Y-112340533D02*
X108399404Y-112483390D01*
X108399404Y-112483390D02*
X107827976Y-113054819D01*
X107827976Y-113054819D02*
X108447023Y-113054819D01*
%TO.C,J12*%
D14*
X98620000Y-79580000D02*
X100000000Y-79580000D01*
X98620000Y-80960000D02*
X98620000Y-79580000D01*
X98620000Y-82230000D02*
X98620000Y-87420000D01*
X98620000Y-82230000D02*
X101380000Y-82230000D01*
X98620000Y-87420000D02*
X101380000Y-87420000D01*
X101380000Y-82230000D02*
X101380000Y-87420000D01*
%TO.C,JP1*%
X114950000Y-114500000D02*
X117750000Y-114500000D01*
X114950000Y-116500000D02*
X114950000Y-114500000D01*
X117750000Y-114500000D02*
X117750000Y-116500000D01*
X117750000Y-116500000D02*
X114950000Y-116500000D01*
%TO.C,J4*%
X135620000Y-97620000D02*
X137000000Y-97620000D01*
X135620000Y-99000000D02*
X135620000Y-97620000D01*
X135620000Y-100270000D02*
X135620000Y-100380000D01*
X135620000Y-100270000D02*
X138380000Y-100270000D01*
X135620000Y-100380000D02*
X138380000Y-100380000D01*
X138380000Y-100270000D02*
X138380000Y-100380000D01*
%TO.C,R1*%
X104265000Y-109227064D02*
X104265000Y-108772936D01*
X105735000Y-109227064D02*
X105735000Y-108772936D01*
%TO.C,Rload1*%
X60772936Y-97265000D02*
X61227064Y-97265000D01*
X60772936Y-98735000D02*
X61227064Y-98735000D01*
%TO.C,J2*%
X57480000Y-109320000D02*
X64220000Y-109320000D01*
X57480000Y-110660000D02*
X57480000Y-109320000D01*
X57480000Y-115140000D02*
X57480000Y-111260000D01*
X58400000Y-109320000D02*
X58400000Y-115140000D01*
X59400000Y-109320000D02*
X59400000Y-115140000D01*
X62500000Y-109320000D02*
X62500000Y-115140000D01*
X64220000Y-109320000D02*
X64220000Y-115140000D01*
X64220000Y-115140000D02*
X57480000Y-115140000D01*
X57480000Y-110960000D02*
X56870000Y-111400000D01*
X56870000Y-110520000D01*
X57480000Y-110960000D01*
G36*
X57480000Y-110960000D02*
G01*
X56870000Y-111400000D01*
X56870000Y-110520000D01*
X57480000Y-110960000D01*
G37*
%TO.C,C2*%
X109500000Y-118440000D02*
X110000000Y-118440000D01*
X109750000Y-118190000D02*
X109750000Y-118690000D01*
X110240000Y-118804437D02*
X110240000Y-118940000D01*
X110240000Y-118804437D02*
X111304437Y-117740000D01*
X110240000Y-121195563D02*
X110240000Y-121060000D01*
X110240000Y-121195563D02*
X111304437Y-122260000D01*
X111304437Y-117740000D02*
X114760000Y-117740000D01*
X111304437Y-122260000D02*
X114760000Y-122260000D01*
X114760000Y-117740000D02*
X114760000Y-118940000D01*
X114760000Y-122260000D02*
X114760000Y-121060000D01*
%TO.C,U1*%
D11*
X65100000Y-70600000D02*
X93400000Y-70600000D01*
X93400000Y-122100000D01*
X65100000Y-122100000D01*
X65100000Y-70600000D01*
D12*
X75620000Y-118860000D02*
X83240000Y-118860000D01*
X83240000Y-123114179D01*
X75620000Y-123114179D01*
X75620000Y-118860000D01*
%TO.C,TP12*%
D14*
X101000000Y-104500000D02*
G75*
G02*
X98000000Y-104500000I-1500000J0D01*
G01*
X98000000Y-104500000D02*
G75*
G02*
X101000000Y-104500000I1500000J0D01*
G01*
%TO.C,J6*%
X57620000Y-76000000D02*
X59000000Y-76000000D01*
X57620000Y-77380000D02*
X57620000Y-76000000D01*
X57620000Y-78650000D02*
X57620000Y-91460000D01*
X57620000Y-78650000D02*
X60380000Y-78650000D01*
X57620000Y-91460000D02*
X60380000Y-91460000D01*
X60380000Y-78650000D02*
X60380000Y-91460000D01*
%TO.C,TP2*%
X64500000Y-94000000D02*
G75*
G02*
X61500000Y-94000000I-1500000J0D01*
G01*
X61500000Y-94000000D02*
G75*
G02*
X64500000Y-94000000I1500000J0D01*
G01*
%TO.C,J14*%
X135620000Y-86270000D02*
X135620000Y-78540000D01*
X138380000Y-78540000D02*
X135620000Y-78540000D01*
X138380000Y-86270000D02*
X135620000Y-86270000D01*
X138380000Y-86270000D02*
X138380000Y-78540000D01*
X138380000Y-87540000D02*
X138380000Y-88920000D01*
X138380000Y-88920000D02*
X137000000Y-88920000D01*
%TO.C,C1*%
X96700000Y-118440000D02*
X97200000Y-118440000D01*
X96950000Y-118190000D02*
X96950000Y-118690000D01*
X97440000Y-118804437D02*
X97440000Y-118940000D01*
X97440000Y-118804437D02*
X98504437Y-117740000D01*
X97440000Y-121195563D02*
X97440000Y-121060000D01*
X97440000Y-121195563D02*
X98504437Y-122260000D01*
X98504437Y-117740000D02*
X101960000Y-117740000D01*
X98504437Y-122260000D02*
X101960000Y-122260000D01*
X101960000Y-117740000D02*
X101960000Y-118940000D01*
X101960000Y-122260000D02*
X101960000Y-121060000D01*
%TO.C,R4*%
X110265000Y-76139564D02*
X110265000Y-75685436D01*
X111735000Y-76139564D02*
X111735000Y-75685436D01*
%TO.C,TP14*%
X107500000Y-120500000D02*
G75*
G02*
X104500000Y-120500000I-1500000J0D01*
G01*
X104500000Y-120500000D02*
G75*
G02*
X107500000Y-120500000I1500000J0D01*
G01*
%TO.C,J5*%
X135620000Y-104620000D02*
X137000000Y-104620000D01*
X135620000Y-106000000D02*
X135620000Y-104620000D01*
X135620000Y-107270000D02*
X135620000Y-107380000D01*
X135620000Y-107270000D02*
X138380000Y-107270000D01*
X135620000Y-107380000D02*
X138380000Y-107380000D01*
X138380000Y-107270000D02*
X138380000Y-107380000D01*
%TO.C,TP13*%
X106500000Y-101000000D02*
G75*
G02*
X103500000Y-101000000I-1500000J0D01*
G01*
X103500000Y-101000000D02*
G75*
G02*
X106500000Y-101000000I1500000J0D01*
G01*
%TO.C,J13*%
X117500000Y-71880000D02*
X117500000Y-70500000D01*
X118880000Y-71880000D02*
X117500000Y-71880000D01*
X120150000Y-69120000D02*
X127880000Y-69120000D01*
X120150000Y-71880000D02*
X120150000Y-69120000D01*
X120150000Y-71880000D02*
X127880000Y-71880000D01*
X127880000Y-71880000D02*
X127880000Y-69120000D01*
%TO.C,J10*%
X101620000Y-69120000D02*
X101620000Y-71880000D01*
X106810000Y-69120000D02*
X101620000Y-69120000D01*
X106810000Y-69120000D02*
X106810000Y-71880000D01*
X106810000Y-71880000D02*
X101620000Y-71880000D01*
X108080000Y-69120000D02*
X109460000Y-69120000D01*
X109460000Y-69120000D02*
X109460000Y-70500000D01*
%TO.C,J1*%
D15*
X118000000Y-88850000D02*
X118000000Y-90750000D01*
X118000000Y-97250000D02*
X118000000Y-99150000D01*
X118000000Y-99150000D02*
X119100000Y-99150000D01*
X119100000Y-88850000D02*
X118000000Y-88850000D01*
X122000000Y-99150000D02*
X123000000Y-99150000D01*
X123000000Y-88850000D02*
X122000000Y-88850000D01*
X123000000Y-99150000D02*
X123000000Y-88850000D01*
D11*
X116035000Y-96750000D02*
G75*
G02*
X115835000Y-96750000I-100000J0D01*
G01*
X115835000Y-96750000D02*
G75*
G02*
X116035000Y-96750000I100000J0D01*
G01*
%TO.C,R2*%
D14*
X100765000Y-109314564D02*
X100765000Y-108860436D01*
X102235000Y-109314564D02*
X102235000Y-108860436D01*
%TO.C,TP11*%
X133500000Y-114500000D02*
G75*
G02*
X130500000Y-114500000I-1500000J0D01*
G01*
X130500000Y-114500000D02*
G75*
G02*
X133500000Y-114500000I1500000J0D01*
G01*
%TO.C,TP15*%
X98500000Y-114000000D02*
G75*
G02*
X95500000Y-114000000I-1500000J0D01*
G01*
X95500000Y-114000000D02*
G75*
G02*
X98500000Y-114000000I1500000J0D01*
G01*
%TO.C,JP2*%
X114950000Y-110500000D02*
X117750000Y-110500000D01*
X114950000Y-112500000D02*
X114950000Y-110500000D01*
X117750000Y-110500000D02*
X117750000Y-112500000D01*
X117750000Y-112500000D02*
X114950000Y-112500000D01*
%TO.C,C3*%
X58000000Y-101440000D02*
X58500000Y-101440000D01*
X58250000Y-101190000D02*
X58250000Y-101690000D01*
X58740000Y-101804437D02*
X58740000Y-101940000D01*
X58740000Y-101804437D02*
X59804437Y-100740000D01*
X58740000Y-104195563D02*
X58740000Y-104060000D01*
X58740000Y-104195563D02*
X59804437Y-105260000D01*
X59804437Y-100740000D02*
X63260000Y-100740000D01*
X59804437Y-105260000D02*
X63260000Y-105260000D01*
X63260000Y-100740000D02*
X63260000Y-101940000D01*
X63260000Y-105260000D02*
X63260000Y-104060000D01*
%TO.C,R3*%
X107315000Y-76139564D02*
X107315000Y-75685436D01*
X108785000Y-76139564D02*
X108785000Y-75685436D01*
%TO.C,J3*%
X121820000Y-115280000D02*
X127640000Y-115280000D01*
X121820000Y-117000000D02*
X127640000Y-117000000D01*
X121820000Y-120100000D02*
X127640000Y-120100000D01*
X121820000Y-121100000D02*
X127640000Y-121100000D01*
X121820000Y-122020000D02*
X121820000Y-115280000D01*
X123160000Y-122020000D02*
X121820000Y-122020000D01*
X127640000Y-115280000D02*
X127640000Y-122020000D01*
X127640000Y-122020000D02*
X123760000Y-122020000D01*
X123460000Y-122020000D02*
X123900000Y-122630000D01*
X123020000Y-122630000D01*
X123460000Y-122020000D01*
G36*
X123900000Y-122630000D02*
G01*
X123020000Y-122630000D01*
X123460000Y-122020000D01*
X123900000Y-122630000D01*
G37*
%TO.C,TP1*%
X60500000Y-94000000D02*
G75*
G02*
X57500000Y-94000000I-1500000J0D01*
G01*
X57500000Y-94000000D02*
G75*
G02*
X60500000Y-94000000I1500000J0D01*
G01*
%TO.C,U2*%
X106727500Y-113440000D02*
X108547500Y-113440000D01*
X106727500Y-113490000D02*
X106727500Y-113440000D01*
X106727500Y-116560000D02*
X106727500Y-116510000D01*
X108547500Y-113440000D02*
X108547500Y-113490000D01*
X108547500Y-114610000D02*
X108547500Y-115390000D01*
X108547500Y-116510000D02*
X108547500Y-116560000D01*
X108547500Y-116560000D02*
X106727500Y-116560000D01*
X106187500Y-113490000D02*
X105947500Y-113160000D01*
X106427500Y-113160000D01*
X106187500Y-113490000D01*
G36*
X106187500Y-113490000D02*
G01*
X105947500Y-113160000D01*
X106427500Y-113160000D01*
X106187500Y-113490000D01*
G37*
%TD*%
M02*
