M48
; DRILL file KiCad 10.0.4 date 2026-07-23T05:30:00
; FORMAT={-:-/ absolute / metric / decimal}
; #@! TF.CreationDate,2026-07-23T05:30:00-04:00
; #@! TF.GenerationSoftware,Kicad,Pcbnew,10.0.4
; #@! TF.FileFunction,Plated,1,2,PTH
FMAT,2
METRIC
; #@! TA.AperFunction,Plated,PTH,ViaDrill
T1C0.300
; #@! TA.AperFunction,Plated,PTH,ComponentDrill
T2C0.800
; #@! TA.AperFunction,Plated,PTH,ComponentDrill
T3C1.000
; #@! TA.AperFunction,Plated,PTH,ComponentDrill
T4C1.200
%
G90
G05
T1
X63.0Y-99.0
X64.0Y-101.0
X101.5Y-92.0
X103.5Y-119.0
X105.0Y-115.0
X109.25Y-90.25
X109.5Y-80.25
X111.75Y-113.25
X112.0Y-100.0
X112.25Y-116.75
X113.0Y-94.0
X114.0Y-82.25
X115.25Y-93.25
X115.5Y-91.0
X116.5Y-120.5
X119.25Y-97.0
X119.5Y-91.5
X119.75Y-94.75
X119.75Y-107.25
X120.0Y-92.25
X120.0Y-96.5
X123.5Y-97.75
X124.25Y-91.75
X126.0Y-91.25
X127.0Y-93.25
X128.75Y-94.5
T2
X66.502Y-78.46
X66.502Y-81.0
X66.502Y-83.54
X66.502Y-86.08
X66.502Y-88.62
X66.502Y-91.16
X66.502Y-93.7
X66.502Y-96.24
X66.502Y-98.78
X66.502Y-101.32
X66.502Y-103.86
X66.502Y-106.4
X66.502Y-108.94
X66.502Y-111.48
X66.502Y-114.02
X91.902Y-78.46
X91.902Y-81.0
X91.902Y-83.54
X91.902Y-86.08
X91.902Y-88.62
X91.902Y-91.16
X91.902Y-93.7
X91.902Y-96.24
X91.902Y-98.78
X91.902Y-101.32
X91.902Y-103.86
X91.902Y-106.4
X91.902Y-108.94
X91.902Y-111.48
X91.902Y-114.02
T3
X59.0Y-77.38
X59.0Y-79.92
X59.0Y-82.46
X59.0Y-85.0
X59.0Y-87.54
X59.0Y-90.08
X59.0Y-94.0
X63.0Y-94.0
X97.0Y-114.0
X99.5Y-104.5
X100.0Y-80.96
X100.0Y-83.5
X100.0Y-86.04
X103.0Y-70.5
X105.0Y-101.0
X105.54Y-70.5
X106.0Y-120.5
X108.08Y-70.5
X118.88Y-70.5
X121.42Y-70.5
X123.96Y-70.5
X126.5Y-70.5
X132.0Y-114.5
X137.0Y-79.92
X137.0Y-82.46
X137.0Y-85.0
X137.0Y-87.54
X137.0Y-99.0
X137.0Y-106.0
T4
X61.0Y-110.96
X61.0Y-113.5
X123.46Y-118.5
X126.0Y-118.5
M30
